<svg width="14" height="14" viewBox="0 0 14 14" fill="none" xmlns="http://www.w3.org/2000/svg">
<path d="M14.0001 0.600648V11.0119C14.0001 11.1712 13.9369 11.324 13.8242 11.4366C13.7116 11.5492 13.5588 11.6125 13.3995 11.6125C13.2402 11.6125 13.0874 11.5492 12.9748 11.4366C12.8621 11.324 12.7988 11.1712 12.7988 11.0119V2.05021L1.01012 13.8389C0.89626 13.945 0.745661 14.0028 0.590052 14C0.434444 13.9973 0.285975 13.9343 0.175926 13.8242C0.0658765 13.7142 0.00283911 13.5657 9.35788e-05 13.4101C-0.00265196 13.2545 0.0551087 13.1039 0.161207 12.99L11.9499 1.2013H2.98826C2.82896 1.2013 2.67618 1.13801 2.56354 1.02537C2.45089 0.912727 2.38761 0.75995 2.38761 0.600648C2.38761 0.441346 2.45089 0.288569 2.56354 0.175926C2.67618 0.0632823 2.82896 0 2.98826 0H13.3995C13.5588 0 13.7116 0.0632823 13.8242 0.175926C13.9369 0.288569 14.0001 0.441346 14.0001 0.600648Z" fill="#AFFF40"/>
</svg>
