<svg preserveAspectRatio="none" width="100%" height="100%" overflow="visible" style="display: block;" viewBox="0 0 6 6" fill="none" xmlns="http://www.w3.org/2000/svg">
<path id="Vector" d="M6.00012 0.257423V4.71942C6.00012 4.7877 5.973 4.85317 5.92472 4.90145C5.87644 4.94972 5.81097 4.97685 5.74269 4.97685C5.67442 4.97685 5.60894 4.94972 5.56067 4.90145C5.51239 4.85317 5.48527 4.7877 5.48527 4.71942V0.878671L0.432914 5.93103C0.384115 5.9765 0.319572 6.00125 0.252882 6.00008C0.186192 5.9989 0.122562 5.97188 0.0753974 5.92472C0.0282331 5.87755 0.00121677 5.81392 4.01056e-05 5.74723C-0.00113656 5.68054 0.0236182 5.616 0.0690895 5.5672L5.12145 0.514846H1.28069C1.21242 0.514846 1.14694 0.487725 1.09867 0.439448C1.05039 0.391172 1.02327 0.325696 1.02327 0.257423C1.02327 0.18915 1.05039 0.123674 1.09867 0.0753974C1.14694 0.0271212 1.21242 0 1.28069 0H5.74269C5.81097 0 5.87644 0.0271212 5.92472 0.0753974C5.973 0.123674 6.00012 0.18915 6.00012 0.257423Z" fill="var(--fill-0, #2F2F2F)"/>
</svg>
