<svg width="24" height="25" viewBox="0 0 24 25" fill="none" xmlns="http://www.w3.org/2000/svg">
<path d="M12 8.28711C11.1842 8.28711 10.3866 8.52904 9.70827 8.9823C9.02992 9.43556 8.50121 10.0798 8.189 10.8335C7.87679 11.5873 7.7951 12.4167 7.95426 13.2169C8.11343 14.017 8.50629 14.752 9.08318 15.3289C9.66008 15.9058 10.3951 16.2987 11.1953 16.4578C11.9954 16.617 12.8248 16.5353 13.5786 16.2231C14.3323 15.9109 14.9766 15.3822 15.4298 14.7038C15.8831 14.0255 16.125 13.228 16.125 12.4121C16.1238 11.3185 15.6888 10.27 14.9154 9.49666C14.1421 8.72335 13.0936 8.28835 12 8.28711ZM12 15.7871C11.3325 15.7871 10.68 15.5892 10.125 15.2183C9.56993 14.8475 9.13735 14.3204 8.88191 13.7037C8.62646 13.087 8.55962 12.4084 8.68985 11.7537C8.82007 11.099 9.14151 10.4976 9.61351 10.0256C10.0855 9.55362 10.6869 9.23218 11.3416 9.10196C11.9963 8.97173 12.6749 9.03857 13.2916 9.29402C13.9083 9.54946 14.4354 9.98204 14.8062 10.5371C15.1771 11.0921 15.375 11.7446 15.375 12.4121C15.375 13.3072 15.0194 14.1657 14.3865 14.7986C13.7535 15.4315 12.8951 15.7871 12 15.7871ZM16.5 3.03711H7.5C6.20753 3.0386 4.96842 3.55269 4.0545 4.46661C3.14058 5.38053 2.62649 6.61964 2.625 7.91211V16.9121C2.62649 18.2046 3.14058 19.4437 4.0545 20.3576C4.96842 21.2715 6.20753 21.7856 7.5 21.7871H16.5C17.7925 21.7856 19.0316 21.2715 19.9455 20.3576C20.8594 19.4437 21.3735 18.2046 21.375 16.9121V7.91211C21.3735 6.61964 20.8594 5.38053 19.9455 4.46661C19.0316 3.55269 17.7925 3.0386 16.5 3.03711ZM20.625 16.9121C20.6238 18.0057 20.1888 19.0542 19.4154 19.8276C18.6421 20.6009 17.5936 21.0359 16.5 21.0371H7.5C6.40636 21.0359 5.35787 20.6009 4.58455 19.8276C3.81124 19.0542 3.37624 18.0057 3.375 16.9121V7.91211C3.37624 6.81847 3.81124 5.76998 4.58455 4.99666C5.35787 4.22335 6.40636 3.78835 7.5 3.78711H16.5C17.5936 3.78835 18.6421 4.22335 19.4154 4.99666C20.1888 5.76998 20.6238 6.81847 20.625 7.91211V16.9121ZM17.625 7.53711C17.625 7.68545 17.581 7.83045 17.4986 7.95379C17.4162 8.07712 17.2991 8.17325 17.162 8.23002C17.025 8.28678 16.8742 8.30164 16.7287 8.2727C16.5832 8.24376 16.4496 8.17233 16.3447 8.06744C16.2398 7.96255 16.1684 7.82891 16.1394 7.68343C16.1105 7.53794 16.1253 7.38714 16.1821 7.2501C16.2389 7.11305 16.335 6.99592 16.4583 6.91351C16.5817 6.8311 16.7267 6.78711 16.875 6.78711C17.0739 6.78711 17.2647 6.86613 17.4053 7.00678C17.546 7.14743 17.625 7.3382 17.625 7.53711Z" fill="#AFFF40"/>
</svg>
