<svg width="24" height="25" viewBox="0 0 24 25" fill="none" xmlns="http://www.w3.org/2000/svg">
<path d="M20.25 3.03711H3.75C3.45163 3.03711 3.16548 3.15564 2.9545 3.36661C2.74353 3.57759 2.625 3.86374 2.625 4.16211V20.6621C2.625 20.9605 2.74353 21.2466 2.9545 21.4576C3.16548 21.6686 3.45163 21.7871 3.75 21.7871H20.25C20.5484 21.7871 20.8345 21.6686 21.0455 21.4576C21.2565 21.2466 21.375 20.9605 21.375 20.6621V4.16211C21.375 3.86374 21.2565 3.57759 21.0455 3.36661C20.8345 3.15564 20.5484 3.03711 20.25 3.03711ZM20.625 20.6621C20.625 20.7616 20.5855 20.8569 20.5152 20.9273C20.4448 20.9976 20.3495 21.0371 20.25 21.0371H3.75C3.65054 21.0371 3.55516 20.9976 3.48484 20.9273C3.41451 20.8569 3.375 20.7616 3.375 20.6621V4.16211C3.375 4.06265 3.41451 3.96727 3.48484 3.89694C3.55516 3.82662 3.65054 3.78711 3.75 3.78711H20.25C20.3495 3.78711 20.4448 3.82662 20.5152 3.89694C20.5855 3.96727 20.625 4.06265 20.625 4.16211V20.6621ZM8.625 10.9121V16.9121C8.625 17.0116 8.58549 17.1069 8.51517 17.1773C8.44484 17.2476 8.34946 17.2871 8.25 17.2871C8.15054 17.2871 8.05516 17.2476 7.98483 17.1773C7.91451 17.1069 7.875 17.0116 7.875 16.9121V10.9121C7.875 10.8127 7.91451 10.7173 7.98483 10.6469C8.05516 10.5766 8.15054 10.5371 8.25 10.5371C8.34946 10.5371 8.44484 10.5766 8.51517 10.6469C8.58549 10.7173 8.625 10.8127 8.625 10.9121ZM16.875 13.5371V16.9121C16.875 17.0116 16.8355 17.1069 16.7652 17.1773C16.6948 17.2476 16.5995 17.2871 16.5 17.2871C16.4005 17.2871 16.3052 17.2476 16.2348 17.1773C16.1645 17.1069 16.125 17.0116 16.125 16.9121V13.5371C16.125 12.9404 15.8879 12.3681 15.466 11.9461C15.044 11.5242 14.4717 11.2871 13.875 11.2871C13.2783 11.2871 12.706 11.5242 12.284 11.9461C11.8621 12.3681 11.625 12.9404 11.625 13.5371V16.9121C11.625 17.0116 11.5855 17.1069 11.5152 17.1773C11.4448 17.2476 11.3495 17.2871 11.25 17.2871C11.1505 17.2871 11.0552 17.2476 10.9848 17.1773C10.9145 17.1069 10.875 17.0116 10.875 16.9121V10.9121C10.875 10.8127 10.9145 10.7173 10.9848 10.6469C11.0552 10.5766 11.1505 10.5371 11.25 10.5371C11.3495 10.5371 11.4448 10.5766 11.5152 10.6469C11.5855 10.7173 11.625 10.8127 11.625 10.9121V11.5562C12.0279 11.0994 12.5602 10.776 13.1513 10.6291C13.7424 10.4822 14.3642 10.5186 14.9341 10.7336C15.5039 10.9487 15.9949 11.332 16.3416 11.8328C16.6883 12.3336 16.8743 12.928 16.875 13.5371ZM9 8.28711C9 8.43545 8.95601 8.58045 8.8736 8.70379C8.79119 8.82712 8.67406 8.92325 8.53701 8.98002C8.39997 9.03678 8.24917 9.05164 8.10368 9.0227C7.9582 8.99376 7.82456 8.92233 7.71967 8.81744C7.61478 8.71255 7.54335 8.57891 7.51441 8.43343C7.48547 8.28794 7.50032 8.13714 7.55709 8.0001C7.61386 7.86305 7.70999 7.74592 7.83332 7.66351C7.95666 7.5811 8.10166 7.53711 8.25 7.53711C8.44891 7.53711 8.63968 7.61613 8.78033 7.75678C8.92098 7.89743 9 8.0882 9 8.28711Z" fill="#AFFF40"/>
</svg>
