<svg width="24" height="25" viewBox="0 0 24 25" fill="none" xmlns="http://www.w3.org/2000/svg">
<path d="M22.125 14.4098C22.125 15.8517 21.8438 17.077 21.3187 17.9517C20.6934 18.9886 19.725 19.537 18.5062 19.537C16.1109 19.537 14.3034 16.162 12.3891 12.5892C10.6669 9.36793 8.88188 6.03699 6.9375 6.03699C5.89687 6.03699 4.80938 7.02418 3.9525 8.74543C3.09846 10.5128 2.64518 12.447 2.625 14.4098C2.625 15.7157 2.86688 16.8061 3.32344 17.5645C3.81281 18.3754 4.54219 18.7832 5.49 18.7832C7.09781 18.7832 8.59031 16.5032 9.96469 14.0395C9.9887 13.9964 10.021 13.9585 10.0596 13.9278C10.0983 13.8972 10.1426 13.8745 10.1901 13.861C10.2375 13.8475 10.2871 13.8435 10.3361 13.8492C10.3851 13.8549 10.4325 13.8702 10.4756 13.8942C10.5187 13.9182 10.5567 13.9504 10.5873 13.9891C10.6179 14.0278 10.6406 14.0721 10.6541 14.1196C10.6676 14.167 10.6716 14.2166 10.6659 14.2656C10.6602 14.3146 10.6449 14.362 10.6209 14.4051C9.23625 16.8895 7.58438 19.537 5.49 19.537C4.27781 19.537 3.30656 18.9886 2.6775 17.9517C2.15625 17.077 1.875 15.8517 1.875 14.4098C1.89662 12.3307 2.37679 10.282 3.28125 8.4098C4.28344 6.39605 5.58188 5.28699 6.9375 5.28699C9.33187 5.28699 11.1403 8.66199 13.0547 12.2348C14.7806 15.4561 16.5647 18.787 18.5109 18.787C19.4597 18.787 20.1881 18.3754 20.6775 17.5682C21.1341 16.8098 21.3759 15.7195 21.3759 14.4136C21.3558 12.4507 20.9025 10.5166 20.0484 8.74918C19.1906 7.02418 18.1031 6.03699 17.0625 6.03699C16.1484 6.03699 15.1734 6.78699 14.0831 8.34043C14.0246 8.41817 13.9381 8.47009 13.8419 8.48522C13.7458 8.50035 13.6475 8.4775 13.5679 8.4215C13.4883 8.36551 13.4335 8.28075 13.4153 8.18515C13.397 8.08954 13.4166 7.99058 13.47 7.90918C14.7281 6.12043 15.87 5.28418 17.0625 5.28418C18.4172 5.28418 19.7156 6.39324 20.7188 8.40793C21.6235 10.2807 22.1037 12.3301 22.125 14.4098Z" fill="#AFFF40"/>
</svg>
