<svg width="62" height="62" viewBox="0 0 62 62" fill="none" xmlns="http://www.w3.org/2000/svg">
<path fill-rule="evenodd" clip-rule="evenodd" d="M15.6108 52.9312L30.8551 61.7273V59.387V48.4866V44.124L15.6108 52.9312Z" fill="#028FA3"/>
<path fill-rule="evenodd" clip-rule="evenodd" d="M30.8547 48.4866V59.387V61.7267L46.099 52.9312L30.8547 44.124V48.4866Z" fill="#02A8B2"/>
<path fill-rule="evenodd" clip-rule="evenodd" d="M30.8547 44.1242L46.099 52.9308V48.5676V37.6678V35.3281L30.8547 44.1242Z" fill="#03B8D4"/>
<path fill-rule="evenodd" clip-rule="evenodd" d="M46.0994 37.6678V48.5676V52.9314L61.343 44.1242L46.0994 35.3281V37.6678Z" fill="#03B8D4"/>
<path fill-rule="evenodd" clip-rule="evenodd" d="M46.0994 35.3174L61.343 44.124V26.5208L46.0994 35.3174Z" fill="#02A8B2"/>
<path fill-rule="evenodd" clip-rule="evenodd" d="M46.0994 17.7251L61.343 26.5211V8.91846L46.0994 17.7251Z" fill="#05ABB5"/>
<path fill-rule="evenodd" clip-rule="evenodd" d="M46.0994 22.0879V32.9877V35.328L61.343 26.5314L46.0994 17.7253V22.0879Z" fill="#039CAB"/>
<path fill-rule="evenodd" clip-rule="evenodd" d="M46.0994 0.122314V2.462V13.3624V17.7256L61.343 8.91896L46.0994 0.122314Z" fill="#00A8CC"/>
<path fill-rule="evenodd" clip-rule="evenodd" d="M46.099 0.122314L30.8547 8.91896L46.099 17.7256V13.3624V2.462V0.122314Z" fill="#028FA3"/>
<path fill-rule="evenodd" clip-rule="evenodd" d="M46.099 17.7248L30.8547 8.91821V13.2814V24.1812V26.5209L46.099 17.7248Z" fill="#FAB312"/>
<path fill-rule="evenodd" clip-rule="evenodd" d="M15.6108 17.7248L30.8551 8.91821V13.2814V24.1812V26.5209L15.6108 17.7248Z" fill="#F5991C"/>
<path fill-rule="evenodd" clip-rule="evenodd" d="M0.366455 13.2816V24.1814V26.5211L15.6107 17.7251L0.366455 8.91846V13.2816Z" fill="#ED4033"/>
<path fill-rule="evenodd" clip-rule="evenodd" d="M15.6108 0.122314V2.462V13.3624V17.7256L30.8551 8.91896L15.6108 0.122314Z" fill="#F79B19"/>
<path fill-rule="evenodd" clip-rule="evenodd" d="M15.6107 0.121826L0.366455 8.91847L15.6107 17.7251V13.3619V2.46151V0.121826Z" fill="#F27226"/>
<path fill-rule="evenodd" clip-rule="evenodd" d="M0.366455 28.861V39.7608V44.124L15.6107 35.3174L0.366455 26.5208V28.861Z" fill="#8F0031"/>
<path fill-rule="evenodd" clip-rule="evenodd" d="M30.8546 26.5312L15.6104 17.7246V22.0878V32.9876V35.3279L30.8546 26.5312Z" fill="#D10DAB"/>
<path fill-rule="evenodd" clip-rule="evenodd" d="M0.366455 26.5309L15.6107 35.3281V32.9872V22.0875V17.7249L0.366455 26.5309Z" fill="#D61E45"/>
<path fill-rule="evenodd" clip-rule="evenodd" d="M0.366455 44.1242L15.6107 52.9314V48.5676V37.6678V35.3281L0.366455 44.1242Z" fill="#91198E"/>
</svg>
