<svg  xmlns="http://www.w3.org/2000/svg" xmlns:xlink="http://www.w3.org/1999/xlink" viewBox="0 0 484.8 410.1" style="enable-background:new 0 0 484.8 410.1;" xml:space="preserve">
                        <style type="text/css">
                            .st0 {
                                fill: #FFFFFF;
                            }
                        </style>
                                    <g>
                                        <path class="st0" d="M391.1,118c-2.9-3.1-6.5-4.6-10.8-4.6c-4.4,0-8,1.5-10.9,4.5c-2.9,3-4.4,6.8-4.4,11.1c0,4.4,1.5,8.1,4.4,11.1
		c2.9,3,6.5,4.5,10.9,4.5c4.2,0,7.9-1.5,10.8-4.5c3-3.1,4.5-6.7,4.5-11.1C395.6,124.6,394.1,121,391.1,118z M391.1,118
		c-2.9-3.1-6.5-4.6-10.8-4.6c-4.4,0-8,1.5-10.9,4.5c-2.9,3-4.4,6.8-4.4,11.1c0,4.4,1.5,8.1,4.4,11.1c2.9,3,6.5,4.5,10.9,4.5
		c4.2,0,7.9-1.5,10.8-4.5c3-3.1,4.5-6.7,4.5-11.1C395.6,124.6,394.1,121,391.1,118z M284.7,117.9c-2.9-3-6.2-4.5-10.2-4.5
		c-8.1,0-14.5,6.9-14.5,15.5c0,9,6.4,15.8,14.5,15.8c8,0,14.5-6.7,14.5-15.8C288.9,124.5,287.5,120.9,284.7,117.9z M391.1,118
		c-2.9-3.1-6.5-4.6-10.8-4.6c-4.4,0-8,1.5-10.9,4.5c-2.9,3-4.4,6.8-4.4,11.1c0,4.4,1.5,8.1,4.4,11.1c2.9,3,6.5,4.5,10.9,4.5
		c4.2,0,7.9-1.5,10.8-4.5c3-3.1,4.5-6.7,4.5-11.1C395.6,124.6,394.1,121,391.1,118z M284.7,117.9c-2.9-3-6.2-4.5-10.2-4.5
		c-8.1,0-14.5,6.9-14.5,15.5c0,9,6.4,15.8,14.5,15.8c8,0,14.5-6.7,14.5-15.8C288.9,124.5,287.5,120.9,284.7,117.9z M391.1,118
		c-2.9-3.1-6.5-4.6-10.8-4.6c-4.4,0-8,1.5-10.9,4.5c-2.9,3-4.4,6.8-4.4,11.1c0,4.4,1.5,8.1,4.4,11.1c2.9,3,6.5,4.5,10.9,4.5
		c4.2,0,7.9-1.5,10.8-4.5c3-3.1,4.5-6.7,4.5-11.1C395.6,124.6,394.1,121,391.1,118z M284.7,117.9c-2.9-3-6.2-4.5-10.2-4.5
		c-8.1,0-14.5,6.9-14.5,15.5c0,9,6.4,15.8,14.5,15.8c8,0,14.5-6.7,14.5-15.8C288.9,124.5,287.5,120.9,284.7,117.9z M391.1,118
		c-2.9-3.1-6.5-4.6-10.8-4.6c-4.4,0-8,1.5-10.9,4.5c-2.9,3-4.4,6.8-4.4,11.1c0,4.4,1.5,8.1,4.4,11.1c2.9,3,6.5,4.5,10.9,4.5
		c4.2,0,7.9-1.5,10.8-4.5c3-3.1,4.5-6.7,4.5-11.1C395.6,124.6,394.1,121,391.1,118z M284.7,117.9c-2.9-3-6.2-4.5-10.2-4.5
		c-8.1,0-14.5,6.9-14.5,15.5c0,9,6.4,15.8,14.5,15.8c8,0,14.5-6.7,14.5-15.8C288.9,124.5,287.5,120.9,284.7,117.9z M391.1,118
		c-2.9-3.1-6.5-4.6-10.8-4.6c-4.4,0-8,1.5-10.9,4.5c-2.9,3-4.4,6.8-4.4,11.1c0,4.4,1.5,8.1,4.4,11.1c2.9,3,6.5,4.5,10.9,4.5
		c4.2,0,7.9-1.5,10.8-4.5c3-3.1,4.5-6.7,4.5-11.1C395.6,124.6,394.1,121,391.1,118z M0,0.5v409.5h483.5V0.5H0z M355.5,104.7
		c6.6-6.6,15-9.9,24.9-9.9c9.9,0,18.1,3.3,24.8,9.9c6.6,6.5,10,14.6,10,24.3s-3.4,17.8-10,24.4c-6.6,6.5-14.9,9.8-24.8,9.8
		c-9.9,0-18.3-3.3-24.9-9.8c-6.6-6.6-9.9-14.8-9.9-24.4S348.8,111.2,355.5,104.7z M319.4,72.1c2.2-2.1,5-3.2,8.4-3.2
		s6.1,1.1,8.3,3.2c2.2,2.1,3.4,4.9,3.4,8.3c0,3.4-1.1,6.1-3.4,8.2c-2.1,2.1-4.9,3.3-8.3,3.3c-3.4,0-6.1-1.1-8.4-3.3
		c-2.1-2.1-3.2-4.9-3.2-8.2C316.1,77,317.2,74.2,319.4,72.1z M337.1,96.5l0,65l-18.8,0l0-65L337.1,96.5z M249.2,104.6
		c5.9-6.5,13.3-9.7,22-9.7c6.6,0,12.6,2,18,6l0-33.1l18.6,0l-0.1,93.8l-18.6,0V157c-5.3,4.1-11.3,6.1-18,6.1c-8.8,0-16.1-3.3-22-9.8
		c-5.9-6.6-8.8-14.8-8.7-24.4C240.4,119.2,243.3,111.1,249.2,104.6z M170.5,96.4l18.8,0l0,36.8c0,7.1,5,12.5,11.9,12.5
		c6.9,0,12-5.4,12-12.5l0-36.8l18.8,0l0,65l-18.8,0v-6.6c-4.4,5.5-10.3,8.2-17.8,8.2c-7,0-12.9-2.4-17.8-7.1
		c-4.8-4.8-7.1-10.6-7.1-17.8L170.5,96.4z M129.1,83.7l18.8,0l0,12.6l14.8,0l0,16.3l-14.8,0l0,24.4c0,4,3,6.9,7.1,6.9l7.6,0l0,17.5
		l-10.8,0c-6.4,0-11.9-2-16.3-5.9c-4.4-4-6.5-9-6.5-14.9L129.1,83.7z M98.8,137.7L87,134.2c-12.1-3.4-17.1-9.1-17.1-18.8
		c0-14.4,10.5-20.9,26.4-20.9c15.1,0,26,9.5,26,20.6l-17.1-0.1c-1.1-3.6-4.4-5.5-9.8-5.5c-4.9,0-7.4,1.4-7.4,4.2
		c0,1.6,1.8,3.1,5.1,4.4l11.6,3.8c13.1,4.1,18.5,10.1,18.5,20c0,13.6-10.6,20.9-26.8,20.9c-16.4,0-27-5.8-28-21.9l17.3,0
		c1.2,4.4,5,6.5,11.1,6.5c5,0,8.5-1.7,8.5-4.7C105.4,140.6,103.2,139,98.8,137.7z M212.2,330.6l29.9-21.3
		c29.2,8.9,63.1-19.7,53.2-53.8l-94.1,66.7c-4.7,3.4-9.7,6.4-14.8,9.1c-7.7,4-13.6,6-18.9,7.3c-5.7,1.4-11.6,2-17.5,2h-1.7
		c-94.9,0.8-108.3-125.5-23.9-148.8c5.5-1.5,12.2-2.3,18.4-2.6c15.7-0.6,33.4,5.5,45.7,14.3c0,0,0,0,0,0L169,229.3l0,0l-6.1-3.6
		c-6.3-3.1-13.1-4.5-20.1-4.4c-56.5,3.4-56.6,87,2.5,88.2c8.9,0,18.6-0.5,34.6-11.3l97-68.9c-28.9-20.7-67.1,1.9-68.4,32.3l-30,21.2
		c0,0-7.6-22.8,4.5-49.2c0,0,13.6-35.1,54.4-43.1c0,0,35.9-9.1,66.3,19.2c0,0,5.3,4.6,10.8,12.7l-0.2-0.2c5.8,7.9,8.4,14.4,8.4,14.4
		c16.6,38-3.9,68.9-3.9,68.9c-21.1,35.8-58.7,37.1-58.7,37.1C231.1,345.3,212.2,330.6,212.2,330.6z M296.8,340.6l74.8-64.4
		c7.3-6.2,11.7-13,12.5-22.1c1.7-18.8-13.6-32.2-29.2-33.2c-8.1-0.5-14.5,2.8-21.3,7.5l-17.7-26.5c9.1-5.8,20.6-11.5,37.9-12.4
		c57.1-2.9,84.5,75,37.5,111.8l-45.7,39.3L296.8,340.6z M411.2,340.7l-44.7,0l42.1-36.4c2.6-2.2,6.6-0.4,6.6,3l0,29.3
		C415.2,338.9,413.4,340.7,411.2,340.7z M380.3,144.6c4.2,0,7.9-1.5,10.8-4.5c3-3.1,4.5-6.7,4.5-11.1c0-4.4-1.5-8-4.5-11
		c-2.9-3.1-6.5-4.6-10.8-4.6c-4.4,0-8,1.5-10.9,4.5c-2.9,3-4.4,6.8-4.4,11.1c0,4.4,1.5,8.1,4.4,11.1
		C372.3,143.1,376,144.6,380.3,144.6z M274.4,144.6c8,0,14.5-6.7,14.5-15.8c0-4.4-1.4-8-4.2-11s-6.2-4.5-10.2-4.5
		c-8.1,0-14.5,6.9-14.5,15.5C259.9,137.9,266.3,144.6,274.4,144.6z M391.1,118c-2.9-3.1-6.5-4.6-10.8-4.6c-4.4,0-8,1.5-10.9,4.5
		c-2.9,3-4.4,6.8-4.4,11.1c0,4.4,1.5,8.1,4.4,11.1c2.9,3,6.5,4.5,10.9,4.5c4.2,0,7.9-1.5,10.8-4.5c3-3.1,4.5-6.7,4.5-11.1
		C395.6,124.6,394.1,121,391.1,118z M284.7,117.9c-2.9-3-6.2-4.5-10.2-4.5c-8.1,0-14.5,6.9-14.5,15.5c0,9,6.4,15.8,14.5,15.8
		c8,0,14.5-6.7,14.5-15.8C288.9,124.5,287.5,120.9,284.7,117.9z M391.1,118c-2.9-3.1-6.5-4.6-10.8-4.6c-4.4,0-8,1.5-10.9,4.5
		c-2.9,3-4.4,6.8-4.4,11.1c0,4.4,1.5,8.1,4.4,11.1c2.9,3,6.5,4.5,10.9,4.5c4.2,0,7.9-1.5,10.8-4.5c3-3.1,4.5-6.7,4.5-11.1
		C395.6,124.6,394.1,121,391.1,118z M284.7,117.9c-2.9-3-6.2-4.5-10.2-4.5c-8.1,0-14.5,6.9-14.5,15.5c0,9,6.4,15.8,14.5,15.8
		c8,0,14.5-6.7,14.5-15.8C288.9,124.5,287.5,120.9,284.7,117.9z M391.1,118c-2.9-3.1-6.5-4.6-10.8-4.6c-4.4,0-8,1.5-10.9,4.5
		c-2.9,3-4.4,6.8-4.4,11.1c0,4.4,1.5,8.1,4.4,11.1c2.9,3,6.5,4.5,10.9,4.5c4.2,0,7.9-1.5,10.8-4.5c3-3.1,4.5-6.7,4.5-11.1
		C395.6,124.6,394.1,121,391.1,118z M391.1,118c-2.9-3.1-6.5-4.6-10.8-4.6c-4.4,0-8,1.5-10.9,4.5c-2.9,3-4.4,6.8-4.4,11.1
		c0,4.4,1.5,8.1,4.4,11.1c2.9,3,6.5,4.5,10.9,4.5c4.2,0,7.9-1.5,10.8-4.5c3-3.1,4.5-6.7,4.5-11.1C395.6,124.6,394.1,121,391.1,118z
		 M391.1,118c-2.9-3.1-6.5-4.6-10.8-4.6c-4.4,0-8,1.5-10.9,4.5c-2.9,3-4.4,6.8-4.4,11.1c0,4.4,1.5,8.1,4.4,11.1
		c2.9,3,6.5,4.5,10.9,4.5c4.2,0,7.9-1.5,10.8-4.5c3-3.1,4.5-6.7,4.5-11.1C395.6,124.6,394.1,121,391.1,118z M391.1,118
		c-2.9-3.1-6.5-4.6-10.8-4.6c-4.4,0-8,1.5-10.9,4.5c-2.9,3-4.4,6.8-4.4,11.1c0,4.4,1.5,8.1,4.4,11.1c2.9,3,6.5,4.5,10.9,4.5
		c4.2,0,7.9-1.5,10.8-4.5c3-3.1,4.5-6.7,4.5-11.1C395.6,124.6,394.1,121,391.1,118z"></path>
                                    </g>
                    </svg>