<svg width="24" height="25" viewBox="0 0 24 25" fill="none" xmlns="http://www.w3.org/2000/svg">
<path d="M21 7.53711C19.7075 7.53562 18.4684 7.02153 17.5545 6.10761C16.6406 5.19369 16.1265 3.95458 16.125 2.66211C16.125 2.56265 16.0855 2.46727 16.0152 2.39694C15.9448 2.32662 15.8495 2.28711 15.75 2.28711H12C11.9005 2.28711 11.8052 2.32662 11.7348 2.39694C11.6645 2.46727 11.625 2.56265 11.625 2.66211V15.0371C11.6249 15.4398 11.5168 15.8351 11.3119 16.1817C11.1071 16.5283 10.8129 16.8136 10.4601 17.0078C10.1074 17.202 9.70901 17.298 9.30653 17.2858C8.90404 17.2735 8.51223 17.1535 8.17195 16.9382C7.83168 16.7229 7.55542 16.4202 7.37199 16.0617C7.18857 15.7033 7.1047 15.3022 7.12915 14.9002C7.1536 14.4983 7.28545 14.1103 7.51097 13.7767C7.73648 13.4431 8.04739 13.1761 8.41125 13.0037C8.47535 12.9731 8.52947 12.925 8.56731 12.865C8.60515 12.8049 8.62515 12.7353 8.625 12.6643V8.66211C8.62502 8.60729 8.61303 8.55314 8.58986 8.50346C8.5667 8.45378 8.53292 8.40978 8.49091 8.37457C8.4489 8.33935 8.39968 8.31378 8.34672 8.29964C8.29376 8.2855 8.23835 8.28314 8.18438 8.29273C5.01469 8.85711 2.625 11.7559 2.625 15.0371C2.625 16.8273 3.33616 18.5442 4.60203 19.8101C5.8679 21.076 7.58479 21.7871 9.375 21.7871C11.1652 21.7871 12.8821 21.076 14.148 19.8101C15.4138 18.5442 16.125 16.8273 16.125 15.0371V10.6721C17.5926 11.5689 19.2801 12.0414 21 12.0371C21.0995 12.0371 21.1948 11.9976 21.2652 11.9273C21.3355 11.8569 21.375 11.7616 21.375 11.6621V7.91211C21.375 7.81265 21.3355 7.71727 21.2652 7.64694C21.1948 7.57662 21.0995 7.53711 21 7.53711ZM20.625 11.2796C18.9488 11.2105 17.3299 10.6504 15.9694 9.66898C15.9133 9.62852 15.8471 9.60435 15.7781 9.59917C15.7091 9.59399 15.64 9.60799 15.5785 9.63962C15.517 9.67126 15.4654 9.71929 15.4295 9.77841C15.3936 9.83753 15.3747 9.90543 15.375 9.97461V15.0371C15.375 16.6284 14.7429 18.1545 13.6176 19.2798C12.4924 20.405 10.9663 21.0371 9.375 21.0371C7.7837 21.0371 6.25758 20.405 5.13236 19.2798C4.00714 18.1545 3.375 16.6284 3.375 15.0371C3.375 12.2696 5.28 9.8068 7.875 9.13086V12.4412C7.41886 12.7045 7.0401 13.0833 6.77679 13.5395C6.51348 13.9956 6.37491 14.5131 6.375 15.0398C6.37509 15.5665 6.51385 16.0839 6.77733 16.5399C7.0408 16.996 7.4197 17.3747 7.87593 17.6379C8.33216 17.901 8.84964 18.0395 9.37634 18.0392C9.90304 18.039 10.4204 17.9001 10.8764 17.6365C11.3324 17.3729 11.7109 16.9939 11.974 16.5376C12.2371 16.0813 12.3754 15.5638 12.375 15.0371V3.03711H15.3872C15.4801 4.39566 16.0617 5.67462 17.0246 6.6375C17.9875 7.60038 19.2665 8.18204 20.625 8.27492V11.2796Z" fill="#AFFF40"/>
</svg>
