<?xml version="1.0" encoding="UTF-8"?>
<svg id="Layer_1" data-name="Layer 1" xmlns="http://www.w3.org/2000/svg" viewBox="0 0 1649.21 477.82">
  <defs>
    <style>
      .cls-1 {
        fill: #fff;
      }
    </style>
  </defs>
  <path class="cls-1" d="M418.12,215.76c.71-1.41.24-3.29-.94-4.47L248.9,37.37c-.71-.71-1.88-1.18-2.82-1.18l-242.08.24c-2.35,0-4,1.88-4,4,0,.94.47,2.12,1.18,2.82l168.28,173.92c.71.71,1.88,1.18,2.82,1.18l241.85-.24c1.88.24,3.29-.71,4-2.35Z"/>
  <path class="cls-1" d="M418.12,259.24c.71,1.41.24,3.29-.94,4.47l-168.28,173.92c-.71.71-1.88,1.18-2.82,1.18l-242.08-.24c-2.35,0-4-1.88-4-4,0-.94.47-2.12,1.18-2.82l168.28-173.92c.71-.71,1.88-1.18,2.82-1.18l241.85.24c1.88,0,3.29.94,4,2.35Z"/>
  <g>
    <path class="cls-1" d="M688.87,189.43h-66.98l-57.58-133.26h-1.18c-.24,20.92-.71,36.9-1.65,47.95l-7.52,85.32h-45.36L525.06.24h66.75l57.35,131.62h.71c.47-19.04,1.18-34.31,2.12-46.07L659.49.23h45.6l-16.22,189.2Z"/>
    <path class="cls-1" d="M842.35,189.43h-112.58L746.22.24h112.34l-3.53,41.13h-61.34l-2.59,29.85h56.64l-3.53,41.13h-56.64l-3.06,35.72h61.34l-3.53,41.37Z"/>
    <path class="cls-1" d="M1079.73,189.43h-60.4l-10.81-82.5c-.47-3.53-1.41-10.34-2.35-20.68-.94-10.34-1.65-18.8-1.88-25.85-1.18,5.64-2.82,12.69-5.17,20.92-2.35,8.23-4.47,15.98-6.58,23.03-2.12,7.05-10.81,35.25-26.32,84.85h-60.4L875.49.24h49.36l12.22,94.95c2.82,20.92,4.47,37.6,5.17,50.06,1.88-8.7,4.94-20.68,9.17-35.96,4.23-15.04,7.99-27.73,11.28-37.6L985.72,0h47.48l9.87,71.68c1.65,11.52,3.29,24.68,4.94,39.72,1.65,15.04,2.35,26.32,2.82,33.61,1.88-9.64,6.58-26.09,13.63-49.83L1093.83,0h49.36l-63.46,189.43Z"/>
    <path class="cls-1" d="M533.99,475h-50.3l16.45-189.2h112.11l-3.53,41.13h-61.58l-3.06,36.19h56.41l-3.53,41.13h-56.64l-6.35,70.74Z"/>
    <path class="cls-1" d="M626.59,475l16.45-189.2h51.24l-12.93,148.07h72.86l-3.53,41.37h-124.1v-.24Z"/>
    <path class="cls-1" d="M958.45,285.8l-9.87,113.99c-2.12,24.68-10.81,43.95-26.09,57.58-15.28,13.63-35.96,20.45-62.52,20.45s-45.13-6.58-57.82-19.74c-12.69-13.16-17.86-32.2-15.75-56.88l10.11-115.16h51.47l-9.64,111.17c-1.18,13.4.47,23.03,4.94,29.14,4.47,6.11,11.52,9.17,21.39,9.17s18.33-3.06,23.5-8.93c5.17-6.11,8.46-15.75,9.64-29.38l9.64-110.93h51v-.47Z"/>
    <path class="cls-1" d="M1094.06,475h-112.34l16.45-189.2h112.34l-3.53,41.13h-61.34l-2.59,29.85h56.64l-3.53,41.13h-56.64l-3.06,35.72h61.34l-3.76,41.37Z"/>
    <path class="cls-1" d="M1307.47,475h-66.98l-57.58-133.26h-1.18c-.23,20.92-.71,36.9-1.65,47.95l-7.52,85.32h-45.36l16.45-189.2h66.75l57.35,131.62h.71c.47-19.04,1.18-34.31,2.12-46.07l7.52-85.55h45.6l-16.22,189.2Z"/>
    <path class="cls-1" d="M1445.9,325.05c-12.22,0-22.09,4.94-29.85,15.04-7.76,9.87-12.22,23.74-13.87,41.13-3.29,36.43,9.17,54.53,36.9,54.53,8.46,0,16.69-1.18,24.68-3.53,7.99-2.35,16.22-5.17,24.44-8.46l-3.76,43.25c-16.45,7.05-34.55,10.58-54.53,10.58-28.67,0-49.83-8.23-63.46-24.91-13.87-16.69-19.27-40.43-16.45-71.92,1.65-19.51,6.82-36.9,15.51-51.71,8.7-14.81,20.21-26.32,34.78-34.31,14.57-7.99,31.26-11.99,49.83-11.99,20.45,0,39.72,4.47,57.58,13.4l-19.27,40.19c-6.82-3.29-13.4-6.11-20.21-8.23s-14.34-3.06-22.33-3.06Z"/>
    <path class="cls-1" d="M1632.75,475h-112.34l16.45-189.2h112.34l-3.53,41.13h-61.34l-2.59,29.85h56.64l-3.53,41.13h-56.64l-3.06,35.72h61.34l-3.76,41.37Z"/>
  </g>
</svg>