<svg viewBox="0 0 662.6 158" version="1.1" xmlns="http://www.w3.org/2000/svg">
  
  <g>
    <g id="svg8">
      
      <g id="layer1">
        <g id="text817">
          <path d="M628.7,77.5c7.6-5.9,13.1-12,16.3-18.5,3.5-6.5,5-13.5,4.4-21.1-1.2-11.5-5.6-20.6-13.2-27.3C628.6,3.5,619.3,0,608.5,0h-59.9v131.3h23.8v-53.8h28.2l33.9,53.8h28.2l-33.9-53.8ZM626.5,37.9c-.3,5.3-2.1,9.4-5.3,12.3-2.9,2.6-7.2,4-12.8,4h-36.1v-30.8h36.1c6.8.3,11.5,2.1,14.1,5.3s4,6.3,4,9.3h0ZM366.6,82.4l30.8,48.9h28.2l-43.6-69.6-15.4,20.7ZM417.2,0h-30.4l-62.6,82.8V0h-24.2v119.8c0,2.3.7,4.7,2.2,7,1.5,2.1,4,3.5,7.5,4.4,1.5.3,3.2.1,5.3-.4,2.3-.6,4.4-1.9,6.2-4L417.2,0ZM470.1,77.1l47.1.4v-23.4h-47.1v22.9ZM529.6,0h-93.8v119.8c.3,3.2,1.5,6,3.5,8.4,2.3,2.1,5.1,3.1,8.4,3.1h81.9v-22.9h-69.6V23.4h69.6V0ZM252,0v82.8L189.9,0h-30.8v131.3h24.2V31.3l71.8,95.6c1.8,2.1,3.7,3.4,5.7,4,2.3.6,4.3.7,5.7.4,3.5-.9,6-2.3,7.5-4.4,1.5-2.3,2.2-4.7,2.2-7V0h-24.2ZM61.7,7L0,131.3h26.9l46.3-93.4,46.3,93.4h26.4L85,7.5c-2.6-4.7-6.6-7-11.9-7s-9.1,2.2-11.5,6.6ZM94.7,112.8h-15.9v-.4l3.1-33.5c-.3-.3-.4-.4-.4-.4l-34.4,44.9h16.3v.4l-3.1,33.9c0,.3.1.3.4,0l34.4-44.5v-.4h-.4Z" id="path819"></path>
        </g>
      </g>
    </g>
  </g>
</svg>