<svg viewBox="0 0 1000 228.2" version="1.1" xmlns="http://www.w3.org/2000/svg">
  
  <g>
    <g id="be453618-7c74-4c2c-8cd1-f86f1901c5ba">
      <path d="M1000,24.7v142.7c0,13.6-11,24.7-24.6,24.7H81.9v-24.6h893.5V24.6H24.6v111.1l57.3,57.6v34.9L10,155.9c-6.4-6.5-10-15.2-10-24.3V29.5C0,13.2,13.2,0,29.4,0h945.9c13.6,0,24.7,11.1,24.7,24.7Z"></path>
      <rect height="79.6" width="17.3" y="55.7" x="466.5"></rect>
      <path d="M191.1,61.8c-2.6-6.3-9.8-9.3-16.1-6.7-3,1.2-5.4,3.7-6.7,6.7l-30.4,73h18.8l7.3-17.5h31.6l7.3,17.5h18.8l-30.4-73ZM169.5,103.8l10.2-24.4,10.2,24.4h-20.3Z"></path>
      <path d="M643.6,61.8c-2.6-6.3-9.8-9.3-16.1-6.7-3,1.2-5.4,3.7-6.7,6.7l-30.4,73h18.8l7.3-17.5h31.6l7.3,17.5h18.7l-30.4-73ZM622,103.8l10.2-24.4,10.2,24.4h-20.3Z"></path>
      <path d="M431.2,61.8c-2.6-6.3-9.8-9.3-16.1-6.7-3,1.2-5.4,3.7-6.7,6.7l-30.4,73h18.8l7.3-17.4h31.6l7.3,17.5h18.8l-30.5-73ZM409.6,103.8l10.1-24.4,10.2,24.4h-20.3Z"></path>
      <path d="M586.3,55.7v69.5c0,10.9-14,15.3-20.2,6.4l-32-46.1v49.9h-17.3v-68.7c0-11.2,14.4-15.7,20.8-6.5l31.5,45.3v-49.7h17.3Z"></path>
      <path d="M295.5,55.7v69.5c0,10.9-14,15.3-20.2,6.4l-32-46.1v49.9h-17.4v-68.7c0-11.2,14.4-15.7,20.8-6.5l31.5,45.3v-49.7h17.3Z"></path>
      <path d="M900,136.8c-29.4,0-44.4-19.9-44.4-40.6s20.5-41.6,43.9-41.6,44.3,15,44.3,42.2c0,21.3-16.7,40-43.8,40ZM924.9,96.2c0-15.6-9.9-26.1-23.8-27-13.4-.8-26.3,10.9-26.3,26.6,0,15,11,26.8,25,26.9,14.4,0,24.9-11.1,25-26.5h0Z"></path>
      <path d="M821.6,122.7c-14,0-25.1-11.9-25-26.9,0-15.7,12.9-27.5,26.3-26.6,7.6.3,14.5,4.1,18.9,10.3l10.8-14.2c-7.9-7-18.9-10.7-31.4-10.7-23.4,0-43.9,17.3-43.9,41.6s15,40.6,44.4,40.6,22.9-4,30.4-10.5l-10.5-13.7c-4.6,6.5-12.1,10.2-20,10Z"></path>
      <path d="M766.2,135.4h-17.3v-50.3l-17.7,26.2c-3.4,5-10.1,6.3-15.1,3-1.2-.8-2.2-1.8-3-3l-17.7-26.2v50.3h-17.3v-69c0-12.9,15.7-14.6,22.5-4.6l21.5,31.9,21.5-31.9c6.8-10.1,22.5-8.4,22.5,4.6v69Z"></path>
      <path d="M339.5,55.7h-21.4c-3.8,0-6.9,3.1-6.9,6.9v65.9c0,3.8,3.1,6.9,6.9,6.9h23.7c25.4,0,39.2-19.6,39.2-40.4,0-23.1-16.2-39.2-41.5-39.2ZM339.5,121.4h-11v-50.9h11c12.7,0,23.1,8.3,23.1,25.6,0,15-11.5,25.3-23.1,25.3Z"></path>
      <path d="M131.8,75.4c0-10.9-10.2-19.6-22.8-19.6h-37.6c-3.8,0-6.9,3.1-6.9,6.9h0v65.9c0,3.8,3.1,6.9,6.9,6.9h44.5c13.2,0,20.4-10.5,20.4-21.3s-8.8-17.4-17.3-19.6c9.7-4.1,12.8-9.6,12.8-19.1ZM103.7,70.5c6.8,0,10,3.3,10,8.5s-2.7,9.7-10,9.7h-21.9v-18.2h21.9ZM117.9,111.7c0,4.6-2.8,9.8-11.2,9.8h-24.8v-19.5h25.4c8.1,0,10.7,4.7,10.7,9.8Z"></path>
    </g>
  </g>
</svg>