<svg viewBox="0 0 400 240" version="1.1" xmlns="http://www.w3.org/2000/svg">
  <defs>
    <style>
      .cls-1 {
        fill-rule: evenodd;
      }
    </style>
  </defs>
  
  <g>
    <g id="svg2">
      <g id="_x3C_defs">
        
        
        
      </g>
      
      <g id="layer1">
        <g id="g3789">
          <path d="M29.9,196.6h9v2.4h-5.5v2.6h5.2v2.4h-5.2v2.9h5.7v2.5h-9.2v-12.9h0ZM346.5,196.6h9.8v2.6h-3.2v10.3h-3.4v-10.3h-3.2v-2.6ZM317.3,196.6h4.3l3.7,7.7c.1.3.3.6.4,1.1.2.5.4,1,.6,1.7-.1-.6-.2-1.2-.2-1.8,0-.5,0-1,0-1.5v-7.3h3.1v12.9h-4.3l-3.9-8c-.2-.4-.3-.8-.5-1.2-.1-.4-.3-.9-.4-1.4.1.8.2,1.5.3,2.1,0,.6,0,1.2,0,1.7v6.8h-3.1v-12.9h0ZM292.3,196.6h9v2.4h-5.5v2.6h5.2v2.4h-5.2v2.9h5.7v2.5h-9.2v-12.9h0ZM261.2,196.6h5l2.2,7.7c0,.3.2.7.2,1,0,.4,0,.8.1,1.2,0-.5,0-.9.2-1.3,0-.4.1-.7.2-1l2.2-7.7h4.9v12.9h-3.1v-8.7c0-.4,0-.8,0-1.3,0-.4,0-.9.1-1.4,0,.4-.2.8-.2,1.1,0,.4-.2.7-.3,1l-2.8,9.2h-2.9l-2.7-9.1c0-.3-.2-.7-.3-1s-.2-.8-.2-1.2c0,.6,0,1.2,0,1.6s0,.9,0,1.1v8.6h-2.9v-12.9h0ZM233.3,196.6h4.3l3.7,7.7c.1.3.3.6.4,1.1.2.5.4,1,.6,1.7-.1-.6-.2-1.2-.2-1.8s0-1,0-1.5v-7.3h3.1v12.9h-4.3l-3.9-8c-.2-.4-.4-.8-.5-1.2-.2-.4-.3-.9-.4-1.4.1.8.2,1.5.3,2.1,0,.6,0,1.2,0,1.7v6.8h-3.1v-12.9h0ZM213.1,196.6h3.4v12.9h-3.4v-12.9ZM191.5,199.5l-1.7,4.8h3.3l-1.6-4.8ZM189.4,196.6h4.1l4.9,12.9h-3.7l-.9-2.7h-5l-1,2.7h-3.4l4.9-12.9h0ZM161.3,196.6h9.8v2.6h-3.2v10.3h-3.4v-10.3h-3.2v-2.6ZM139.5,198.9v3.3h1.2c.7,0,1.3-.1,1.7-.4.4-.3.6-.7.6-1.2s-.2-1-.6-1.3c-.4-.3-1.1-.4-2-.4h-.9,0ZM136.2,196.6h5.1c1.7,0,3,.3,3.8.8.8.6,1.2,1.4,1.2,2.5s-.2,1.5-.7,2.1c-.4.5-1.1.9-1.9,1.1.7.2,1.2.9,1.6,2.1h0s1.5,4.3,1.5,4.3h-3.6l-1.1-3.5c-.2-.6-.4-1-.7-1.2-.3-.2-.8-.3-1.5-.3h-.5v5h-3.4v-12.9h0ZM110.6,196.6h9v2.4h-5.5v2.6h5.2v2.4h-5.2v2.9h5.7v2.5h-9.2v-12.9h0ZM84.7,196.6h9.8v2.6h-3.2v10.3h-3.4v-10.3h-3.2v-2.6ZM55.5,196.6h4.3l3.7,7.7c.1.3.3.6.4,1.1.2.5.4,1,.6,1.7-.1-.6-.2-1.2-.2-1.8,0-.5,0-1,0-1.5v-7.3h3.1v12.9h-4.3l-3.9-8c-.2-.4-.3-.8-.5-1.2-.1-.4-.3-.9-.4-1.4.1.8.2,1.5.3,2.1,0,.6,0,1.2,0,1.7v6.8h-3.1v-12.9h0Z" id="path2892"></path>
          <path d="M116.2,157.2s.7,3.1,2.4,1.9c1.7-1.2,2.4-2.9,4.1-2.9s8.9-1.4,10.6,0,1.9.2,2.8.2,3.4.4,3.4.4c2.2-.2,1.8-3.7.2-4.8-2.3-1.8-5.4-3-7.7-4.8-.2-1.7-.5-3.5-.7-5.2.6-.9,1.3-1.8,1.9-2.7v-8.7c-.3-.8-.7-1.5-1-2.3-.1-2.2-.2-4.4-.3-6.6-.3-.4-.6-.8-.9-1.2v-2.5c.6-.8,1.7-1.7,2.3-2.5.2-1.6-.6-2.7-.4-4.4-.4-2.1-.5-4.6-.9-6.7v-7.5c1.7-.5,2.1-1.2,2.2-2,.2-1-.3-2.1-.8-4.4-.2-12-.3-24.5-.6-36.6.9-1.4,2-2.2,2-3.2,0-.8-.9-1.5-2-2.5v-2.5s1.9-3.9,3.5-3.9,2.6-1.2,2.6-2.3c1.4-2.8-1.6-3.1-1.6-3.1-3.3,0-7,0-10.2,0-2.8,0-5.1-.4-7.9-.4-1.2,0-2.4.1-3.6.2-3,.9-2.3,2.5-1.2,3.4,1.4.9,2.6,1.9,4.1,1.9,1.9,0,3.5.7,4.1,2.6.2,7.7.3,15.4.5,23.2,0,5.7.2,11.4.3,17.1,0,5.7,0,11.4,0,17.1.1,6.7.2,13.4.3,20.1,0,0-.3,2.5-.9,3.1-.5.6-.3,5.6-.3,5.6,1.9,1.7,1.5,1.4.2,3.7-.1,5-.2,9.9-.3,14.9-.5.9-.9,1.8-1.4,2.7,0,0-5,2.9-5,5.4h0ZM32.6,181.2c-2.6-.5-3-1.8-2.1-2.5.5-.4,2-.4,2.7-.7,1-.5,1.9-1,2.5-1.8,1-1.2.4-4.1,1.6-6.4,1.1-9.7,1.5-22.6.3-26.9-.7-6.7,0-28.9,0-31.7.8-1.4,1-1.5,1-3.8,0-.9.6-2.4,0-3.5-1-1.1-.7-5.4-.7-7.8-.1-3.6.2-3.6,1.2-6.8.4-1.2.5-2.7,0-3.9-.8-1.9-2,.3-1.9-3.5.2-9.3.5-18.6.3-27.9,0-.8,1.4-1,1.7-1.8.3-1,.5-2.2,0-3.2-.3-.5-1.7.2-2.1-.2-2.6-2.5-5.8-4-7.3-7.3-.6-1.3.4-4.1,1.6-4.7,2-1,5.8,0,8.1-.4,1.2-.2,2-.9,3.2-1,9.5-.4,19.3-1.4,28.7-.4,1.5.2,2,2.8,3.4,3.5,1.9.9,4.7.7,6.1,2.3,2.3,2.5,4,4.5,4.3,8,.4,4.2,1.1,9,1.1,12.3,0,2.7-.8,5.2-2.1,7.5-1.7,3.2-3.6,6.2-5.8,9.4-1.2,1.8-3.4,3.5-3.9,5.6-.5,2.2,5,.6,6.2,2.5,1.1,1.8-.9,3.9-.3,6,.5,1.8,3.7,2,4.1,3.9,1,4.8-1.2,9.9-.3,14.8.3,1.6,2.7,1.6,3,3.2.3,3.4.2,6.9.2,10.5,0,3.8.2,7.6.1,11.2,0,1.4-1.9,2.2-2,3.5-.4,3.6.8,7.7,0,11.2-.8,3.7-3.8,6.4-5,10-1,3.1-.7,7.7-2.4,9.7-2.7.8-6.1,2.7-8.2,4.3-3.1,2.3-5.1,5-6,5-1.2,1.1-3.8.4-5.3.9-1.4.5-1.5,1.7-3,1.5-1.2-.1-.8-1.1-1.7-1.9-.5-.4-1.5-.5-2,0-3,2.5-.8,1.8-4.2,1.5-3.5-.3-10.4.8-14.6-.1h0ZM52.3,167.1c.8-1.5,1.6-3,2.4-4.6-.2-5-.5-10.1-.7-15.1.7-.9,1.4-1.9,2-2.8v-15.2c0-2.3-.3-4.6-.3-6.9-2.4-2-1.2-1.9.7-4.2,0-2.2.5-4,.5-6.2-.2-1.9-.5-3.7-.7-5.6.3-.9.7-1.9,1-2.8,0-2.8.3-5.1.3-7.9s0-3.5.6-3.4c.5.2,1.4,1.4,3,2.9,1.2,1.2,2.5,2.4,3.7,3.6,2.3,2.2,4.5,2.4,3.6,6-.9,3.4,1.6,4.3.8,7.6-.6,2.6-1.4,4.1-1.2,5.7.1.9.5,1.9,1.6,3.1,1,1.1,1.3,1,.7,2.4-.9,2.1-1.6,3.3-1.7,4.6-.1,1.6.8,2.3,1.5,5.2.6,2.3.6,3.9,0,6.2-.7,2.8-1.4,5.5-2.1,8.3,0,2.1-.3,4.2-.4,6.3-.2,3.2-.7,3.3-2.9,5.6-2,2.1-4.6,3.8-6.6,5.7-2.1.8-3.8.9-6,1.7h0ZM57.5,78.4c1.7,0,2.5.2,3,0,.5-.2.8-.8,1.6-2.3,1-2,2.5-4.4,3.7-4.6,2.1-.3,3.2-.6,3.2-.6,0,0,1.1-.2.7-2.9-.4-2.7-1.1-5.3-.5-6,.7-.7.8-2.8,0-3.6-.7-.8-1.4-1.7-.2-2.8,1.2-1.1,2-3-.8-2.7-2.8.3-2.7-.9-3.1-1.7-.3-.8-3.4-.6-4.9-.7-1.6.3-2.9.2-2.9,1.9,0,1.7-.2,9.6-.2,10.4,0,.8.2,15.7.2,15.7h0ZM145.4,150.8c-.1.7-1.7.7-1.6,1.4.2,1,.2,2.5,1.2,2.6,2.9.4,6.8-.8,9.7-.2,1.1.2,1.2,2.1,2.2,2.6.8,0,2.1,0,3.2,0,.8-.4.6-1.9,1.4-2.4,1-.6,2.3-.8,3.4-.4.6.2-.2,1.7.4,1.8,5-.2,9.5.4,14.3,0,.9-.2,0-1.5.8-2.1.9-.6,3.1.5,3.2-.6.8-5.6-.4-11.8,0-17.5.2-1.8,1.9-2.9,2.3-4.6.1-.6.8-.6.9-1.2.2-2,.2-4.5-.4-6.5-.7-.7-2.7-.9-3.4-.6-.8.6,0,2.6-.6,3.4-.3.4-1.2-.4-1.4,0-.2.4,0,1,.2,1.5,0,.3,0,.6-.2.7-1.3.7-3.3-.9-4.4,0-1.1.9.1,2.6-.8,3.7-1.6,1.7-4.9,2.8-6.5,4.5-1.9,2.1-1.7,4.2-3.8,6-1.7,1.4-4.5,1.6-6.5,2.4-2.3,1-3.5,2.7-5.9,3.4-.7.2-1.6-1.1-1.4-1.8,1.8-5.9,4.2-11.9,6.2-17.8,1.3-3.8,1.9-6.1,3.2-9.9,1.4-3.9,3.3-8.6,5.6-12,.5-.7,2-.2,2.2-1,.6-1.9-.5-4.1,0-6,.4-1.4,1.9-2.8,3.2-3.6.8-.5,2.2.2,2.6-.7.9-2.2,0-4.5.6-6.8.4-1.5,1.4-2.5,2.1-3.9.9-1.9.8-3.6,1.8-5.4.8-1.5,2.5-3.6,3-5.3.7-2.3.1-3.4.3-5.7,0-.6,1-1,1-1.6.3-7.6.7-15.2.3-22.8,0-.6-1.4-.6-1.4-1.2,0-2.3.3-4.4.2-6.4,0-.4.1-.7-.3-.8-6.3-.3-12.5-.1-18.8,0-5.2,0-10.4-.4-15.5,0-.8,0-1.5.2-2,.8-.5.5-.8,1.7-.7,2.5.1,3.4,0,7,0,11.1,0,.8,1.5.3,1.7,1,.7,2,.8,4.2.6,6.2,0,.7-.9,1.6-.8,2.2.3,2.3.6,4,1.1,6.2.2.9,1,1.5,1.2,2.4.3,1-.7,3.2.4,3.2.4,0,1.6.2,2.2,0,.8-.3-.3-1.8,0-2.6.2-.6,1.3-.6,1.4-1.2.5-3.3-.4-7.2.1-10.5.2-1,.7-2.1,1.6-2.6.7-.5,2.1.7,2.6,0,.7-1,0-2.1.5-3.2.7-1.6,1.7-3.1,3-4.2,1.2-1.1,2.4-2.3,4-2.5,3.5-.4,7.8,0,12.6-.2.4,0,.6.7.6,1.1.2,2.2.6,5.2,0,6.6-.8,2.1-2.7,4.4-4.6,6.6-1.3,1.5-2.6,2.8-3.6,4.3-1.2,1.8.6,4.2,0,6.3-.6,2.1-2.4,4.3-3.7,6.1-1.1,1.4-2.7,2.2-3.7,3.6-1.3,1.9-2,3.7-2.8,5.8-.7,1.7-1.1,3.6-1.4,5.4-.2,1.5.5,3.1-.2,4.4-.5,1-1.6.8-2.3,1.6-1,1.1-1.5,2.6-2,4-.6,1.7-.6,2.7-1.5,4.2-1,1.7-2.9,3.4-3.8,5.2-1,2-1.1,4.3-1.5,6.4-.5,2.1-.9,4-1.3,6-.5,2.5-1.1,5.1-1,7.7,0,.8.8,1.3,1.2,2,.3.6,1,1.2.8,1.8-.3.9-1.9.9-2,1.8-.1.9.1,1.8.8,2.4.6.6,1.8.3,2.2,1,.5.7.4,1.8,0,2.6-.3.7-1.4.5-1.5,1.2-.6,2.9.1,5-.4,7.9h0ZM320,179.4c-.4-1.2.6-1.4,1.2-2.1.9-.9,1.8-1.8,2.2-3.6.1-.7.8-1.8,1-2.9.2-1.6-.1-3.3-.6-4.3-.6-1.4-1.5-2.1-1.2-3.4.1-.8,2-.9,3.5-1.6.8-.3,1.4-1,1.7-1.6.3-.8-.8-.7-1.3-1.7-.6-1.1-.7-2.8-1.1-3.6-.8-1.5-2.2-3.4-2.3-5.1-.1-4.4,1.1-8.9,1.3-13.1.1-3.6,1-4.4.7-8.1-.1-1.8-1.1-3.1-2.1-5-.8-1.5-1.9-3.1-2.3-4.5-.7-2.6,0-5.6-.4-8.3,0-.5-1.4-1.2-1.4-1.7-.3-3.6,0-7.4-.2-10.9-.1-.7-.7-.8-.7-1.5-.2-2,0-4,0-5.7,0-1.5-.2-2.8-.2-4.6s-.6-1.1-.6-1.8c-.1-3.9,0-8.3,0-12.2,0-4.2-.3-8,0-12.2,0-.7,1.5-.7,1.5-1.4-.1-3.2-.4-4.5-.3-7.7,0-.4.8-1.2.8-1.6.2-2.7.6-5.4-.1-7.6-.5-1.7-1.7-2.2-3.2-3.2-1.3-.9-2.7-2.5-3.8-3.3-1.5-1.1-2.5-2-3.6-3.6-.7-1,.4-1.1,1.7-1.1,1.6,0,3.4,0,4.9.3.5,0,1.5,1,2,1.2,1.2.5,2-.1,3.2.2.9.3,4.8,2.3,5.8,2.9,1.4.8,1.9,2,3.4,2.7.3.1,4.8,1.4,5.4,1.6,1.2.3,2-.6,3.2-.3,1.4.4,4,1.1,5.6,1.6.9.3,1.5,1.3,2.4,1.5,4.5.9,3.7-.6,7.3,3,1.1,1.1,2.8,1.9,3.6,3.2,1.1,1.8,1.2,4,1.9,5.9.5,1.5,1.8,2.8,2.1,4.4.8,4.3,0,8.8.5,13.2.2,1.3,1.5,2.7,1.7,4.1.5,5.1.6,10.2,0,15.3-.2,1.7-1.7,2.4-1.9,4.1-.4,2.9.4,5.8.2,8.7,0,1.4-.9,2.8-1.6,4-.5.9-1.7,1.2-2.1,2.1-1,2.5-.8,5.8-1.2,8.5-.1,5.1,0,9,.2,14.1.2,3.6.5,6.8,0,10.3-.2,1.2-1.2,1.9-1.4,3.1-.5,3.4,0,6.9-.4,10.3,0,.6-.9,1.3-1,1.8-.2,3.1-.4,7.7-1.8,11.2-.9,2.3-3.1,4.6-5.2,6-2,1.3-4.2,1.6-6.5,2.2-1.5.4-3.1.2-4.5.9-.8.4-.3.4-1,1-.4.3-1.2.3-1.6,0-.6-.5-.4-.7-1.1-1-1-.5-2.3-.4-3.4,0-.7.3-.5.9-1.3,1.1-1.6.3-3.5.7-5.2.7-1,0-1.8.4-2.1-.5h0ZM335,64.6c2.2-.1,2.7-.2,4.7.8,2.1,1.1,2.5,1.8,3.8,3.8.7.6,1.3,1.3,2,1.9,2.7,2.6,3.9,6.2,5,9.6.2,3.7,1,10.1-.9,13.5-.9,1.7-1.3,3-1.4,4.4-.4,4-1.6,3.3-2.7,6.3-.3.8-.2,1.8-.3,3.8,0,6.9-.2,13.8-.3,20.7,0,4.4-.9,6.5-2.7,10.6-1,1.9-1.6,3.2-1.6,5.4s-.5,3.8-1.6,6.2c-.6,1.4-1.3,2.9-1.9,4.3-.8,1.7-1.4,2.3-1.9,2.1-.5-.2-.8-1.3-.8-3,0-8.4,0-16.8.1-25.2,0-8.9.2-17.9.3-26.8-.1-1.9,0-2.3-1.3-3.8-.1-2.9-.7-4.2-1.6-7-1.2-2.2-1-3.8-1.1-6.2,0-6.2-.1-12.4-.2-18.6,0-3.8.8-2.5,4.4-2.7h0ZM188.5,171.5c-.7-3.4-.2-6.1,0-8.6,0-.6,1.3,0,1.6-.6.5-.8.9-1.8.6-2.7-.2-.5-.5.2-.8-.3-.4-.6-.3-1.7.2-2.3.7-.9,2-.6,2.5-1.6.6-1.4-.5-3.1,0-4.5.1-.5,1.3.5,1.4,0,.5-2.2-.1-4.5.2-6.8,0-.6.6-.9.7-1.4.3-2.4.4-5,0-7.4-.3-1.5-1.5-2.6-1.7-4.1-.8-5.5-1-11.5-.3-17,.5-4.3,3.3-10.9,4.9-14.9,1-2.5,1.5-1.7,2.4-4.3.3-.8.5-1.7.2-2.5-.3-1-1.5-1.7-1.3-2.7.2-1.2,1.7-1.2,2.1-2.4.6-1.6-.6-3.5,0-5.1.7-1.9,2.9-3,3.5-4.9.5-1.8,0-4.8.5-6.6,1-3.7,2.3-6,4-9.4,1-2,2.9-3.7,3.7-5.7.8-2,.7-4.7,1.1-6.4-1.3-1.6-4.2.6-6.2,0-1-.4-1-2-1.9-2.3-2.1-.1-4.1-.2-5.5.9-2,1.5-2,3.2-2.8,5.6-1.2,3.5-.3,7.5-1.7,10.9-.6,1.3-2.9,1.7-4,2.7-.6.5-.9,1-1.6,1s-1.4-.3-1.6-1c-.4-1.5,0-3.1,0-4.7,0-1.2-.7-2.5-.4-3.7.2-.6,1.6-.4,1.6-1,.6-7-.2-14.1-.1-20.8,0-2.4.7-2,3-2,3.9,0,10.1,0,14.6,0,7.9,0,15.8-.3,23.7-.1,1.2,0,2.7.5,2.8,1.7.2,2.4-1.4,4.7-2.5,6.8-.6,1.1-1.9,1.8-2.3,3-.7,2,0,4.4-.7,6.4-.5,1.2-2.9,1.4-3.3,2.7-.7,1.7.5,3.8-.2,5.5-.3.9-2.2.4-2.5,1.2-1,2.9-.4,6.2-1.2,9.2-.4,1.7-1.7,2.8-1.9,4.5-.6,4.6.4,9.3,0,14,0,1-1.2,1.7-1.4,2.7-.7,2.3-1.1,4.7-1.9,7-.3,1-1.6,1.5-1.8,2.5-.4,1.5.6,3.1,0,4.5-.7,1.7-3.3,2.5-3.7,4.3-1.1,5.2.6,10.7-.2,16-.4,2.4-2.4,4.2-2.9,6.6-.6,3,.4,6.6-.4,9.6-.7,2.9-2.8,5.4-3.9,8.2-.2,2.7-3.5,5.2-1.7,7.3,2.1.3,5.7.7,8.2-.4,1.1-.5-.2-2.9.8-3.7,3.1-2.3,6.6-3.2,10-4.9,2-1,4.4-1.9,6.2-3.3.9-.7,1-2.3,2-2.7.6-.2.8,1.3,1.4,1.4,2.3.4,4.3-.6,6.5,0,.9.2.9,1.4,1.1,2.3.2.8.6,1.7.1,2.4-.3.4-1.2,0-1.4.4-.4.9-.2,2.1,0,3.1.2.8.9,1.3,1,2.1.4,4.2.5,8.4,0,12.5,0,.9-.6,1.8-1.5,1.9-5.9-.3-11.4.2-17.3.2-.6,0-.3-1.1-.8-1.4-1.5-.7-4.3-.7-5.9-.4-1.9.4-2,2-3.9,2.4-3.4.7-7.4,0-10.8.5-1.2.2-2.1,1.2-3.3,1.5-1.7.4-4.3.9-5.1-.6h0ZM97.2,181.1c-2.6.9-5.5,0-8.3,0-.8,0-2.2.7-3,.4-.9-.3-2.3-2-1.7-2.7,2.1-2.9,6.4-3.2,8.3-6.2,1.1-1.8,0-4.1.6-6.2.2-.6,1.2-.6,1.6-1.1.3-.5.3-1.2,0-1.6-.8-.9-1.3,1-1.6-1.7-.3-2.4-.3-4.9-.1-7.3.1-1.6,1.3-1.2,1.5-2,.4-1.5-.4-2.7,0-4.2.2-.7,1.4-.5,1.8-1.1.3-.6.4-1.5,0-2-.8-1.1-2.8-1.1-3.1-2.5-.4-2.5-.2-5.2-.2-7.7,0-2.6-.1-5.3,0-8,0-.5,1.2-.5,1.3-.9.3-.9.1-2,0-2.9-.1-.8.1-2.4,0-3.1,0-1.2-.6-1.6,0-2.7.4-.7,1.7-.3,1.8-1.1.6-4.4-.7-8.9-.2-13.3,0-.7,1.3-.6,1.4-1.3.3-1.2.4-2.5-.1-3.6-.2-.5-1.4-.5-1.4-1.1-.5-6.4.4-12.5-.1-18.9,0-.6-1.5.2-1.6-2.4,0-2.7-.3-5.3-.2-7.3,0-1.5,3.4-1.6,3.3-3.1,0-2.4.3-5-.2-7.4-.2-.8-1.2-.6-1.5-1.4-.3-.7,0-1.4.3-2,.3-.8,1.3-1.4,1.5-2.2.4-1.6.4-3.3,0-4.9-.1-.5-1-1-1.3-1.5-.5-.9-.3-1.7-.9-2.4-.4-.5-1.7-.2-2.2-.7-1.3-1.2-2.1-2.4-3.3-3.5-1.1-1-2.5-1.7-3.3-3.2-.5-.9,0-2.5.9-3.2.7-.5,1.7-.4,2.4,0,.6.3.6,1.6,1.2,1.7,2.9.4,5.8-.9,8.6-.2,1.2.3,1.3,1.8,2.5,2.4.8.4,2.2-.3,2.9.1,1,.7,1.9,2.2,2.7,3,1.1,1.1,2,1.5,2.5,3.1.7,1.9.4,3.9.4,5.9,0,1.8.3,3.5,0,5.3,0,.6-1.2.3-1.4.9-.3,1,0,2.2.4,3.1.4.7,1.4.3,1.7,1.1.6,1.7.7,3.8.2,5.5-.2.6-1.4.2-1.5.9-.5,8.4-.6,17,.2,25.4.1,1.4,2.4,1.9,2.6,3.4.8,8,0,16-.3,24,0,1.1-.6,2.6-1.1,3.4-.5.9-.2,1.9-.2,2.9,0,1.3-.1,2.8,0,4.2.1.8,1.7,1.5,1.7,2.3-.2,2.2.2,3.2.3,5.4,0,1-1.8,1.7-2.4,2.5-.4.6-.7,1.8-.3,2.5.3.6.9.3,1.1,1,.3,1,.3,1.8-.2,2.6-.3.6-1.5.5-1.6,1.1-.3,1.8.7,3.6.4,5.4,0,.5-1.3.4-1.3.9-.4,2.7.5,5.4,0,8.1-.2,1-1.7,1.5-1.8,2.5,0,.6,1.3.2,1.6.7.4.8-.6,2.4.2,2.7,2.9.8,6.4.6,9.3-.1,1.6-.4,2.3-2.7,4-2.9,2-.2,3.5,1.2,5.5,1.5,2.7.5,5.6.6,8.2-.1,1.5-.4,2.4-2,4-2.3,6.8-.9,13.2-.4,20.1-.4,6.5,0,14.8-.4,19.7.2,2.8,0-.2,9.8.8,15,.2,1.1,1.2,1.8,1.8,2.8.9,1.7,1.3,2.5-1.1,2.5-4.5,0-9,.3-13.9.1-1,0-.9-1.9-1.8-2.2-1-.4-2.1.5-3.1.2-1.5-.4-3.3-1.8-4.8-2-4.2-.5-8.4.5-12.5,0-.9-.1-1.1-2-2-2-9.7-.7-19,.3-28.7-.2-2.1-.1-2.3-.8-3.6-1.2-1.9-.5-5.2-.8-7,0-3.3,1.5-3.3,4.4-6.7,5.6h0ZM214,143.2c-2,0-2.2-3.3-2-5.3.2-2,2.8-1.9,3.8-3.8.7-1.3-.3-3.6.4-4.9.9-1.4,3.2-1.3,4-2.7.5-.8-.2-2.3-.2-3.2,0-2.2.5-3.8.4-6,0-1.1-.5-3.2-.3-4.3.3-1.5,1.2-1.1,1.6-2.6.6-1.9-.4-4,.2-5.8.2-.7,2.1-.4,2-1.1-.2-.9-1.8-.4-2-1.3-.5-2.8-.5-6.1.2-8.8.5-1.7,2.4-3,2.9-4.7.5-1.8-.6-3.8,0-5.6.4-1.2,2.4-1.5,2.7-2.7.7-2.9,0-6.4.8-9.3.4-1.5,1.2-3.2,2.1-4.2.6-.6,1.1-1,1.4-1.9.4-1.2-.5-2.3-.3-3.5.2-1.1,1-1.8,1.6-2.8.7-1.3,1-2.8,1.6-4.1,1-1.9,2.3-3.4,2.9-5.4.5-1.5-.6-3.9,0-5.3.9-2,3.3-2,4.3-4,.7-1.6-.6-3.7.2-5.4.6-1.2,1.8-1.7,3.1-1.7,1,0,2.1.6,2.4,1.5.6,1.8,0,3.9.8,5.6,1.3,3,3.5,4.8,4.7,7.8.6,1.6,0,3.9.3,5.5.5,2.3.9,4.5,1.6,6.7.9,2.7,2.3,5.4,3,8.2.7,2.5.9,5.1,1.4,7.7.4,1.8,1.1,3.5,1.7,5.3.3.8,1.2.6,1.4,1.3.4,1.4-.8,2.9-.4,4.2.4,1.7,2.2,3.3,2.5,5,.5,2.7,0,5.3,0,8,0,2.5.3,4.8.7,7.3.2,1.5,1,3.6,1.1,4.7.1,4,.3,8,.4,12,0,5.9,0,12.2-.2,18,0,.7-.8,1-1.1,1.7-.9,2.4-1.7,3.8-2.3,6.3-.3,1.3-.3,2.8-.9,4-.4.8-1.9,1.4-2.2,2.2-.6,1.8.1,3.6,0,5.8-.1,1.9-.9,3-1.7,4.8-.5,1.2-1.4,3.1-1.8,4.4-.4,1.4.3,2.9-.1,4.2-.2.7-1.2,1.1-1.3,1.8-.4,1.8.3,3.8-.2,5.6-.3,1-.5.9-1.5,1.3-.7.3-2.5.7-2.6,0-.4-3.1.4-5.3,0-8.4-.6-3.6-2.1-5.8-3-9.4-.4-1.7.3-4.8-.5-6.4-1.5-2.8-6.2-4-6-7.2.2-3.1,2-5.1,3.9-7.6,1.3-1.7,2.1-4.5,2.9-6.5.6-1.4.9-3.1,1-4.6,0-2.1-.5-3.1-2.2-4.4-3.4-2.8-8.8-5.3-13-7.4-.6-.3-1.3.9-1.3,1.6s.8,1.2.9,1.9c.2,2-1,4.1-.1,5.9.9,1.9,4.5,2.5,4,4.5-.4,1.4-.7,1.9-1.9,2.5-.7.4-1.5.4-2.3.4-2.5.1-5-.8-7.4-.3-2.6.6-4.9,1.8-7.3,3-1.6.8-3.2,1.8-5,1.8h0ZM236,112c0-2,0-3.9,0-5.8,0-1.7,0-3.4.2-5.1,0-1.1,1.1-2,1.2-3.1.2-1.8-.9-4.1-.4-5.8.2-.7,2,0,2.5-.6.1-.2.4-1.4.9-2.3.3-.6.9-1.1.9-1.4,0-.3,0-2.7.2-4.7.1-1.2.3-2.2.5-2.2.2,0,.4,1,1,1.8.7.9,1,1.9,1.6,2.9.4.6.8,1.3,1.4,1.5.8.3,1.7-.1,2.5.2.6.2.7,1.1,1.2,1.5.4.2,1.2-.2,1.2.2.4,2,0,4.7.4,6.8,0,.5,1.2.3,1.2.8.2,3.5.2,7.1.2,10.6,0,3.1,0,6.3-.3,9.4,0,.9-2.4,1-3.1.5-1.3-1-2.1-2.1-3.7-2.5-.7-.2-.7-1.3-1.3-1.5-1.5-.5-3.3-.6-4.8-.6s-2.4.4-3.4.2c-.2,0,0-.4,0-.6h0ZM283.4,50.9c0,2,.2,4.2.2,6.4,0,2.7-.2,5.2-.2,8,0,2.9.2,6.2.2,9.1s-.4,6.8-.2,8.8c.2,2.5.4,2.9,3.8,2.9s3.9-1.7,5.6-3.4c1.1-1.2,1-3.2,1.4-4.1.6-1.3,1.7-2.5,2-4,.3-1.9-.4-3.5.9-4.7.5-.5,1-6,1-7.2,0-1.7-1.8-4.3-3.9-6.6-1.4-1.6-3.2-3-3.9-4.1-1.3-2-2.3-2.8-3.9-3.2-2.9-.6-2.9-.4-2.9,2.1h0ZM268,159.5c-.5,2.1,1.1,3,3.1,4.3,1.9,1.3,4.2,2.9,6.3,4.6,3.6,2.9,6,8.3,8.4,13.6,1.2-1.3.4-7.2,1-10.8.1-.8,1-1.3,1-2.1.3-2.8.3-5.6,0-8.4-.1-1-1.1-1.8-1.4-2.8-.2-.8-.2-1.6,0-2.4.2-1,1-1.8,1-2.8.3-2.9.4-5.8,0-8.7-.2-1.1-1.8-1.7-1.7-2.8,0-.9,2-.8,2.1-1.7.2-2.6-.7-5.1-1-7.7-.7-5.8-1.1-11.6-1.7-17.4-.2-2.1-1-4.2-.7-6.3,1.1-2.8,2.1-5.7,3.1-8,.5-.7,1.2.6,1.7,1.3,1.7,2.2,4,4.9,4.4,7.6.6,3.3-1.2,6.3-.8,9.6.1,1,1.6.8,2,1.7,1.7,4.4,3,9,3.8,13.6.9,5.3,1.2,10.7,1.4,16,0,2.3,0,4.7-.7,7-1,3.2-2.9,5.7-3.9,8.8-1,3.2-1.4,4.2,2.1,4.2,1.4,0,2.9,0,4,.6,2.8,1.4,4,4.6,6.6,6.3.6.4,1.3.8,2.1,1.3,3.8,2.1,4.2.7,5-2.6,1-4.4,1.3-8.3,2-12.6.3-2.2.3-4.4.4-6.6.1-3.1.4-6.3.2-9.4,0-1.5,0-3.1-1-4.2-.7-.8-2.9,0-3.1-1-.4-1.5,1.7-2.7,1.7-4.2-.6-4.1-1.1-7.7-1.2-11.7,0-4.7-1.1-2.4-2.7-4.2-.9-1.1-1.2-2.1-1.4-3.6-.4-4.3.2-9-.5-13.3-.3-1.9-1.2-3.8-2.4-5.2-.5-.5-1.3.3-1.6-.4-.5-1,1.1-1.8.5-2.8-1.4-2.3-4.4-4.1-6.7-5.6-.7-.5-1.9.6-2.4,0s-.6-2.3,0-2.9c4-.6,6.1-2.5,8-4.7,2.7-3.1,4-6.5,5.3-10.3.6-1.8-.2-3.8,0-5.7.4-3.4,2.2-6.6,1.6-10-.9-5-3.3-9.4-6.1-13.6-1.6-2.3-4-4.4-6.5-5.6-2.1-1-3.9-.2-6.1-.8-2.6-.8-4.7-2.2-7.3-2.8-2.1-.4-4.2.4-6.3,0-1.3-.3-1.5-1.7-2.8-1.9-.9-.1-1.8,1.2-2.7,1.2-6.2.5-11.4-.7-17.6.1-.9.1-.7,1.2.1,1.7,1.2.8,2.9.4,4.2,1,2.3,1,4.1,2.3,5.8,4.2,1.4,1.5,2,3.2,3.3,5.6.5,1,2-.9,3.1-1,1.4-.2,2.3-.2,3.2.9.8,1-.8,2.3-1.8,3.1-1.9,1.7-3.1,2.6-4.8,3.7-1.1.8-3.1,1.5-4,3-1.9,3.3.3,7.2,1.1,10.9.3,1.4.6,2.7.9,4.1,1,4.4.7,8.1,1.3,12.6.2,1.5,1.2,2.7,1.4,4.2.2,1.7-.1,3,.1,4.7.1.7.7,1.5.9,2.2.9,3.2,1.6,7.2,1.7,10.5.4,10.8-.3,21.4.3,32.2,0,1,1.5,1.4,1.7,2.3.3,1.5-.7,3.2-1.2,4.7-2.1,5.9-4.5,10.3-5.8,15.3h0Z" class="cls-1" id="path2894"></path>
          <path d="M364.1,34.5h-.3v1.5h.4c.3,0,.5,0,.7-.2s.2-.3.2-.6,0-.5-.3-.6c-.2-.1-.4-.2-.8-.2h0ZM364.4,33.2c.9,0,1.6.2,2.1.5.5.3.7.8.7,1.4s-.1.8-.3,1.1c-.2.3-.6.5-1,.7l1.4,2.8h-2.2l-1.2-2.5h-.2v2.5h-2.1v-6.5h2.7ZM369.1,36.6c0-.6-.1-1.3-.4-1.8-.2-.6-.6-1.1-1-1.5-.5-.5-1-.8-1.6-1.1-.6-.2-1.2-.4-1.8-.4s-1.3.1-1.8.3c-.6.2-1.1.6-1.5,1-.5.5-.8,1-1.1,1.6-.2.6-.4,1.2-.4,1.8s.1,1.2.4,1.8c.2.6.6,1.1,1,1.6.5.5,1,.8,1.6,1.1.6.2,1.2.4,1.8.4s1.2-.1,1.8-.4c.6-.2,1.1-.6,1.6-1.1.5-.4.8-1,1-1.5.2-.6.3-1.2.3-1.8h0ZM364.3,30.6c.8,0,1.6.2,2.3.4s1.4.7,2,1.3c.6.6,1,1.2,1.3,1.9.3.7.5,1.5.5,2.3s-.1,1.6-.4,2.3c-.3.7-.7,1.4-1.3,1.9-.6.6-1.3,1-2,1.3-.7.3-1.5.5-2.3.5s-1.6-.2-2.3-.5c-.7-.3-1.4-.7-2-1.3-.6-.6-1-1.2-1.3-2-.3-.7-.5-1.5-.5-2.3s.2-1.6.5-2.3c.3-.7.8-1.4,1.3-2,.5-.6,1.2-1,1.9-1.3.7-.3,1.5-.4,2.3-.4h0Z" id="path2896"></path>
        </g>
      </g>
    </g>
  </g>
</svg>