<svg viewBox="0 0 311.7 203.6" version="1.1" xmlns="http://www.w3.org/2000/svg">
  <defs>
    <style>
      .cls-1 {
        fill-rule: evenodd;
      }
    </style>
  </defs>
  
  <g>
    <g id="Livello_1">
      <g>
        <path d="M208.4,28.8c-9.8,4.8-19.7,9.6-29.5,14.4h0c6,2.3,12,4.6,18,6.9,3.7,1.4,8.1,3.2,9.7,7.6,1.7,4.5-.8,8.5-2.9,11.9-3.3,5.1-6.6,10.3-9.8,15.4-11.7,18.2-23.3,36.5-35,54.7,0-5.6,0-11.3,0-16.9h0c4.5-14.1,8.8-28.2,13-42.3,1.2-4,2.4-8,3.5-12.1.7-2.4.2-3.9-2.1-5-6-2.9-11.9-5.9-17.9-8.8-6,2.9-11.9,5.9-17.9,8.8-2.3,1.2-2.8,2.6-2.1,5,1.2,4,2.4,8,3.5,12.1,4.2,14.1,8.6,28.2,13,42.3h0c0,5.6,0,11.3,0,16.9-11.7-18.2-23.4-36.5-35-54.7-3.3-5.1-6.6-10.3-9.8-15.4-2.2-3.4-4.6-7.4-3-11.9,1.6-4.4,6-6.2,9.7-7.6,6-2.3,12-4.6,18-6.9h0c-9.8-4.8-19.7-9.6-29.5-14.4h0c3.1,5.1,6.1,10.3,9.2,15.4-5.1,1.9-10.1,3.9-15.2,5.8-10.7-16.7-21.3-33.4-31.9-50.1,30.3,10.7,60.5,21.6,91,32,30.4-10.4,60.7-21.2,91-32-10.6,16.7-21.3,33.4-31.9,50.1-5.1-2-10.1-3.9-15.2-5.8,3.1-5.1,6.1-10.3,9.2-15.4"></path>
        <path d="M200.9,180.6v6.9h37.1c.8,0,1.4-.6,1.4-1.3v-4.3c0-.7-.6-1.3-1.4-1.3h-37.1ZM191.5,203.6v-29.4s48.1,0,48.1,0c4.5,0,8.1,2.7,8.1,6.9v6.1c0,4.2-2.8,7.1-5.7,7.1l6.4,9.3h-10.5l-5.5-9h-31.6v9h-9.4Z" class="cls-1"></path>
        <path d="M56.2,203.6H8.1c-4.5,0-8.1-3.4-8.1-7.5v-14.4c0-4.1,3.6-7.5,8.1-7.5h48.1v8.1H9.7c-.8,0-1.4.6-1.4,1.3v10.7c0,.7.6,1.3,1.4,1.3h46.5s0,8.1,0,8.1ZM120.1,174.2v21.9c0,4.1-3.6,7.5-8.1,7.5h-40.1c-4.5,0-8.1-3.4-8.1-7.5v-21.9h9.7v20.1c0,.7.6,1.3,1.4,1.3h34.1c.8,0,1.4-.6,1.4-1.3v-20.1h9.7ZM302.6,187.5v-6.9h-36.8c-.8,0-1.4.6-1.4,1.3v5.6c0,0,25.1,0,38.2,0M311.7,203.6h-9.1v-9h-38.1v9h-9.1v-21.9c0-4.1,3.5-7.5,8-7.5h48.1c0,0,.1,0,.1,0v29.4h0ZM136.7,187.5h37.6c.8,0,1.4-.6,1.4-1.3v-4.3c0-.7-.6-1.3-1.4-1.3h-37.6v6.9ZM175.9,174.2c5.9,0,8.1,2.7,8.1,6.9v6.1c0,4.1-1.8,7.5-8.1,7.5h-39.2v9h-9.1v-29.4h48.3Z"></path>
      </g>
    </g>
  </g>
</svg>