<svg viewBox="0 0 807 146.9" version="1.1" xmlns="http://www.w3.org/2000/svg">
  <defs>
    <style>
      .cls-1 {
        fill-rule: evenodd;
      }
    </style>
  </defs>
  
  <g>
    <g id="svg4">
      
      <path d="M768.4,70.7c0-3.8,4.1-5.9,8.6-5.9,7.5,0,13.2,4.3,14.2,11h14.8c-1.4-13.7-13.1-23.3-28.8-23.3s-24.7,7.3-24.7,19.6,13.1,17.3,23.9,20.1c7.8,2,14.5,3.7,14.5,8.3s-4.2,6.3-10.1,6.3-13.9-4.5-14.8-11.1h-14.8c1.4,13.7,13.4,23.4,29.7,23.4s26.2-7.8,26.2-20.1-13-16.9-23.9-19.7c-7.9-2-14.7-3.8-14.7-8.6ZM687.5,54h-16.3v63.8h16.3v-33.7c0-8.7,7.7-17.8,20.7-15.7v-15.5c-9.9-1.2-16.9,4.3-20.7,12.7v-11.5ZM633.1,85l-12.4-26.1-12,26.1h24.4ZM621.3,24.4l46.1,93.3h-18.7l-9.1-19h-37.4l-8.8,19h-18.2l46.1-93.3ZM532.4,79h16.5c-3.1-15.5-16.4-26.3-32.2-26.3s-33.4,13.9-33.4,33.2,15,33.1,33.4,33.1,29.2-10.4,32.2-25.8h-16.5c-2.6,6.9-8.6,11.2-15.7,11.2s-17.3-7.5-17.3-18.3,7.7-18.4,17.3-18.4,13.2,4.3,15.7,11.2ZM459.8,117.7h16.2v-63.8h-16.2v63.8ZM457.5,35.6c0,5.8,4.7,10.5,10.4,10.5s10.5-4.7,10.5-10.5-4.7-10.5-10.5-10.5-10.4,4.7-10.4,10.5ZM407.9,61.9v-7.9h-16.3v63.8h16.3v-38.6c0-7.4,5.8-13.3,13.3-13.3s13.3,5.6,13.3,13.9v38h16.3v-39.2c0-15-8.6-25.9-23.8-25.9s-15.2,3.6-19.1,9.3h0ZM350.6,67.6c-9.9,0-17.7,7.4-17.7,18.4s7.8,18.3,17.7,18.3,17.7-7.5,17.7-18.3-7.8-18.4-17.7-18.4ZM350.6,119c-18.7,0-33.8-13.9-33.8-33.1s15.1-33.2,33.8-33.2,33.8,13.9,33.8,33.2-15.1,33.1-33.8,33.1ZM295.6,54h-16.3v63.8h16.3v-33.7c0-8.7,7.7-17.8,20.7-15.7v-15.5c-9.9-1.2-16.9,4.3-20.7,12.7v-11.5ZM729.8,35.3l-16,5.1v60.8c0,9.8,6.9,16.5,18.7,16.5h15.9v-14.4h-11.3c-5,0-7.3-2.3-7.3-6.5v-29h18.6v-13.8h-18.6v-18.7ZM254.6,35.3l-16,5.1v60.8c0,9.8,6.9,16.5,18.7,16.5h15.9v-14.4h-11.3c-5,0-7.3-2.3-7.3-6.5v-29h18.6v-13.8h-18.6v-18.7ZM216.8,79h16.5c-3.1-15.5-16.4-26.3-32.2-26.3s-33.4,13.9-33.4,33.2,15,33.1,33.4,33.1,29.2-10.4,32.2-25.8h-16.5c-2.6,6.9-8.6,11.2-15.7,11.2s-17.3-7.5-17.3-18.3,7.7-18.4,17.3-18.4,13.2,4.3,15.7,11.2ZM144.6,79.5c-1.4-7.5-8.1-12.8-15.6-12.8s-13.8,5-16,12.8h31.6ZM162.1,91.2h-49.3c2.2,8.1,9.3,13.4,18,13.4s9.6-1.9,12.3-5.9h18c-4.9,12.3-16.4,20.3-30.6,20.3s-34.8-14.1-34.8-33.2,14.8-33.2,33.1-33.2,33.3,11.6,33.3,36.2-.1,1.5-.1,2.4h0ZM72.4,117.7h16.3V23.2l-16.3,5.1v89.5ZM0,28.3h65v15.7H17.9v21h38.1v15.5H17.9v21.9h47.1v15.5H0V28.3Z" class="cls-1" id="path2"></path>
    </g>
  </g>
</svg>