<svg viewBox="0 0 436 100" version="1.1" xmlns="http://www.w3.org/2000/svg">
  
  <g>
    <g id="Ebene_1">
      <path d="M0,100h100V0H0v100ZM64.1,7.6c17.7,5.8,30.4,22.5,30.5,42.3,0,19.5-12.5,36.2-30.5,42.4V7.6ZM50,5.4c3.2,0,6.6.4,9.4,1,0,22.7-21.9,41.3-44.5,41.3H5.4C7,24.4,26.2,5.4,50,5.4ZM14.9,52.4c22.6,0,44.5,18.6,44.5,41.3-2.8.6-6.4,1-9.4,1-23.8,0-43.6-19.1-44.5-42.3h9.5ZM133.4,58.8v-6.3h20.8v-8h-20.8v-11.7h22.1v-8h-30.6v33.7c0,8.5,3.6,14.3,12.1,15.5.2,0,.3,0,.5,0h.2c.9,0,1.8.2,2.7.2h15.8v-8h-15.7c-2.7,0-7-1.3-7-7.4ZM162.2,74.2h8.5V24.7h-8.5v49.5ZM195.7,37.3c-10.8,0-18.8,7.4-18.8,19v.3c0,11.3,7.8,18.5,19,18.5s10.5-1.5,15.1-6.4l-5.1-5c-2.7,2.7-5.3,4.1-9.7,4.1-6.3,0-10.6-3.7-10.8-9.4h27.9c.1-1.4.1-3,.1-3,0-10.1-7.1-18.1-17.7-18.1ZM185.6,52.4c.4-4.4,4.8-7.8,10.1-7.8s9.1,3.6,9.1,7.8h-19.2ZM237.4,44.9c3.9,0,6.7,1.4,9.1,3.9l5.3-5.5c-4.1-4.4-9.1-6.2-14.4-6.2-10.8,0-19.5,8.1-19.5,19s8.7,19,19.5,19,10.3-1.8,14.4-6.2l-5.3-5.5c-2.4,2.5-5.3,3.9-9.1,3.9-6.3,0-11.1-4.8-11.1-11.3s4.8-11.3,11.1-11.3ZM265.6,58.8h0v-12.6h7.7v-7.7h-7.7v-13.7h-8.5v34.6h0c.2,8,3.9,13.5,12.1,14.7.2,0,.3,0,.5,0h.2c.9,0,1.8.2,2.7.2h.9v-8s-.8,0-.8,0c-2.7,0-7-1.3-7-7.4ZM289,43.7v-5.3h-8.4v35.8h8.4v-18.8c0-5.9,3.8-9.6,9.7-9.6s2.6.1,3.5.4v-8.2c-.4,0-1.6-.2-2.6-.2-5.1,0-8.9,2.3-10.6,6ZM323,37.4c-10.9,0-19.5,8.2-19.5,19s8.7,19,19.5,19,19.5-8.2,19.5-19c0-10.7-8.7-19-19.5-19ZM323,67.5c-6.3,0-11.1-4.9-11.1-11.2s4.8-11.2,11.1-11.2,11.1,4.9,11.1,11.2c0,6.3-4.8,11.2-11.1,11.2ZM347.8,74.2h8.5V24.7h-8.5v49.5ZM387,59.2c0,5.7-3.3,8.1-7.8,8.1s-7.8-2.4-7.8-8v-20.9h-8.6v21.6c0,10.2,7.5,15.1,16.3,15.1s16.5-5,16.5-15.3v-21.4h-8.6v20.8ZM427.8,62.8l-5.4-7.5,6.7-9.1,5.7-7.8h-9.3l-7.7,10.7-7.8-10.7h-9.2l5.3,7.2,7.1,9.7-7.4,10.3-6.2,8.6h9.2l9.1-12.6,9.1,12.6h9.2l-8.2-11.4Z"></path>
    </g>
  </g>
</svg>