<svg viewBox="0 0 647.2 751" xmlns:xlink="http://www.w3.org/1999/xlink" version="1.1" xmlns="http://www.w3.org/2000/svg">
  <defs>
    <style>
      .cls-1, .cls-2 {
        fill: #fff;
      }

      .cls-2, .cls-3 {
        fill-rule: evenodd;
      }

      .cls-4 {
        fill: none;
      }

      .cls-5 {
        clip-path: url(#clippath);
      }
    </style>
    <clipPath id="clippath">
      <rect height="1054.5" width="1200" y="-151.9" x="-278.1" class="cls-4"></rect>
    </clipPath>
  </defs>
  
  <g>
    <g id="svg2">
      <g id="g10">
        <g id="g14">
          <g class="cls-5">
            <g id="g16">
              <g id="g22">
                <path d="M588.4,0H58.8C15.8,0,0,15.8,0,58.8v518.2c0,4.9.2,9.4.6,13.6,1,9.4,1.2,18.5,9.9,28.8.9,1,9.8,7.6,9.8,7.6,4.8,2.3,8.1,4.1,13.5,6.3l260.8,109.3c13.5,6.2,19.2,8.6,29,8.4h0s0,0,0,0h0c9.8.2,15.5-2.2,29-8.4l260.8-109.3c5.4-2.2,8.7-3.9,13.5-6.3,0,0,8.9-6.6,9.8-7.6,8.7-10.3,8.9-19.4,9.9-28.8.4-4.2.6-8.7.6-13.6V58.8c0-42.9-15.8-58.8-58.8-58.8" class="cls-3" id="path24"></path>
              </g>
              <g id="g26">
                <path d="M552.9,521v1.2c-.1,0-.2,1.3-.2,1.3l-.2,1.2-.4,1.2-.2,1.1-.4,1.2-.5,1.1-.5,1-.5,1.1-.6,1-.6,1-.7,1-.6,1-.7.8-.8.8-.7.7-1,.8-.8.7-1,.7-.9.6-.9.7-1.1.6-1.1.5-1.1.6-1.2.5-1.2.5-1.2.4-1.2.4-1.1.4-1.2.2-1.1.2-1.1.2-1.2.2h-1.2c0,.1-1.1.2-1.1.2h-1.2c0,.1-1.3.2-1.3.2h-1.2c0,.1-1.2.1-1.2.1h-5c0-.1-1.3-.1-1.3-.1h-1.2c0-.1-1.2-.2-1.2-.2h-1.3c0-.1-1.2-.4-1.2-.4h-1.2c0-.1-1.2-.4-1.2-.4l-1.2-.2-1.2-.2-1.2-.2-1.2-.4-1.1-.2-1.2-.4-1.2-.4-1.1-.5-1.2-.4-1.1-.4-1.2-.5-1.1-.5-1.1-.5-1.1-.6-1.1-.5-1.1-.6-.9-.6-1.1-.6-.9-.6-1-.6-.9-.7-.9-.7-1-.7-1-.7-.8-.7-.9-.8.7-1,.8-.8.7-1,.8-1,.7-.8.7-1,.8-1,.7-.8.8-1,.7-.8.8-1,.7-1,.7-.8.8-1,.7-1,.8-.8.7-1,.9.7,1.1.7,1,.7,1.1.7,1,.6,1.1.7.9.6,1.1.5.9.6,1.1.5,1.1.5,1.1.5,1.1.4,1.1.5,1.2.4,1.2.4,1.1.4,1.2.2,1.2.2,1.2.2h1.3c0,.1,1.2.4,1.2.4h2.5c0,.1,1.2.1,1.2.1h2.7c0-.1,1.2-.4,1.2-.4l1.1-.2,1.1-.2,1-.4.8-.5,1-.7.7-.8.5-1,.4-1.1v-1.2c.1,0,.1-.2.1-.2v-1.4c-.1,0-.6-1.2-.6-1.2l-.6-.8-.8-.7-1-.7-.9-.5-1.1-.5-1.2-.5-1.4-.6-.8-.2-.9-.2-1.1-.4-1.1-.2-1.2-.4-1.2-.2-1.3-.4-1.2-.2-1.3-.4-1.2-.2-1.2-.4-1.2-.2-1.2-.4-1.1-.4-1.2-.2-1.1-.4-1.1-.4-1.1-.4-1.3-.5-1.2-.5-1.2-.5-1.2-.5-1.1-.6-1.2-.6-1-.6-1.1-.6-.9-.7-1-.6-.8-.7-.8-.8-.8-.8-.7-.8-.7-.8-.6-.8-.6-1-.6-1.1-.5-.8-.4-1-.4-1.1-.4-1-.2-1.2-.2-1.1v-1.2c-.1,0-.2-1.2-.2-1.2v-1.3c-.1,0-.1-1.3-.1-1.3v-2.6c.1,0,.2-1.1.2-1.1v-1.2c.1,0,.4-1.1.4-1.1l.2-1.1.4-1.1.2-1.1.5-1.1.5-1.1.5-1.1.6-1.1.6-1.1.7-1,.7-1,.8-1,.8-.8.8-1,1-.8.8-.6,1-.7,1-.7.9-.6,1.1-.6,1.1-.5,1.1-.6,1.1-.5,1.2-.4,1.2-.5,1.1-.4.9-.2,1.1-.2,1.1-.2,1.2-.2,1.1-.2h1.2c0-.1,1.2-.2,1.2-.2h1.2c0-.1,1.2-.2,1.2-.2h6.4c0,.1,1.3.2,1.3.2h2.5c0,.1,1.2.4,1.2.4h1.3c0,.1,1.2.4,1.2.4l1.1.2,1.2.2,1.2.2,1.1.2,1.2.4,1.1.4,1.1.2,1.2.5,1.1.4,1.1.5,1.1.5,1.2.5,1.1.6.9.5,1.1.6,1.1.6.9.6,1.1.7,1,.6,1,.7.9.7.9.7-.7,1-.6,1-.7,1-.7,1-.7,1.1-.6,1-.7,1-.7,1-.6,1-.7,1-.7,1-.6,1-.7,1.1-.7,1-.7,1-.6,1-.7,1-1-.7-1.1-.6-1-.6-1-.7-1.1-.5-1-.6-1.1-.5-.9-.5-1.1-.5-.9-.5-1.1-.4-1-.5-1.3-.4-1.2-.4-1.2-.4-1.2-.2-1.2-.2-1.2-.2h-1.2c0-.1-1.2-.2-1.2-.2h-1.1c0-.1-1.2-.1-1.2-.1h-1.4l-1.3.2-1.2.2-1.1.2-.9.5-.8.5-1.1,1-.7,1.1-.5,1.1v1.2c-.1,0-.1.2-.1.2v1.6c.1,0,.7,1.3.7,1.3l.5.7.8.8,1.1.6.9.6,1.2.5,1.3.5,1.4.5.9.2.9.4,1.1.2,1.1.4,1.2.2,1.3.4,1.3.4,1.3.4,1.3.2,1.2.4,1.3.4,1.2.2,1.2.4,1.2.4,1.1.4,1.2.4,1.1.4,1.1.4,1.3.5,1.2.6,1.2.5,1.2.6,1.1.6,1.1.6.9.6,1,.7,1,.6.9.8,1,.8.8,1,.8.8.7,1,.7,1.1.6,1,.6,1.1.5,1,.4,1.1.4,1.1.2,1.1.2,1.2.2,1.2v1.2c.1,0,.2,1.3.2,1.3v4.2ZM469.5,544.9h-68.2v-87h68.8v19.7h-46.1v14.2h41.4v18.5h-41.4v14.8h46.7v19.7h-1.2ZM382.5,544.9h-21.8v-51.5l-.6,1-.7,1.1-.6,1-.7,1-.6,1.1-.7,1-.6,1-.6,1.1-.7,1-.6,1-.7,1-.6,1.1-.7,1-.6,1-.6,1.1-.7,1-.6,1-.7,1.1-.6,1-.7,1-.6,1.1-.6,1-.7,1-.6,1.1-.7,1-.6,1-.7,1-.6,1.1-.6,1-.7,1-.6,1.1-.7,1-.6,1-.7,1.1-.6,1h-.5l-.7-1.1-.6-1-.7-1.1-.6-1-.7-1.1-.6-1-.7-1.1-.6-1-.7-1.1-.6-1-.7-1.1-.6-1-.7-1.1-.6-1-.7-1.1-.6-1-.7-1.1-.7-1-.6-1.1-.7-1-.6-1.1-.7-1-.6-1.1-.7-1-.6-1.1-.7-1-.6-1.1-.7-1-.6-1.1-.7-1-.6-1.1-.7-1-.6-1.1-.7-1v51.2h-22.6v-87h24.4l.6,1,.6,1.1.7.9.6,1.1.6,1,.6,1.1.6.9.7,1.1.6,1,.6,1,.6,1.1.6,1,.7,1.1.6,1,.6,1.1.6,1,.7,1,.6,1.1.6,1,.6,1.1.6,1,.7,1.1.6,1,.6,1.1.6.9.6,1,.7,1.1.6,1,.6,1.1.6.9.6,1.1.7,1,.6,1.1.6,1,.6-1,.6-1.1.7-1,.6-1.1.6-.9.6-1.1.7-1,.6-1.1.6-1,.6-.9.7-1.1.6-1,.6-1.1.6-1,.7-1.1.6-1,.6-1.1.6-1,.6-1,.7-1.1.6-1,.6-1.1.6-1,.7-1.1.6-1,.6-1,.6-1.1.7-.9.6-1.1.6-1,.6-1.1.7-.9.6-1.1.6-1h24.4v87h-1.2ZM244.4,509.1l-.4-1.1-.5-1.2-.5-1.1-.4-1.1-.5-1.1-.5-1.2-.4-1.1-.5-1.1-.5-1.1-.4-1.1-.5-1.2-.4-1.1-.5-1.1-.5-1.1-.4-1.1-.5-1.2-.5-1.1-.4-1.1-.5-1.1-.5-1.2-.4-1.1-.5-1.1-.5,1.1-.4,1.1-.5,1.2-.5,1.1-.4,1.1-.5,1.1-.5,1.2-.5,1.1-.4,1.1-.5,1.1-.5,1.1-.4,1.2-.5,1.1-.5,1.1-.4,1.1-.5,1.1-.5,1.2-.5,1.1-.4,1.1-.5,1.1-.5,1.2-.4,1.1-.5,1.1h20.1l-.5-1.1ZM281.8,544.9h-23.3l-.5-1.1-.4-1.1-.5-1.1-.5-1.2-.4-1.1-.5-1.1-.5-1.1-.4-1.1-.5-1.1-.5-1.1-.4-1.1-.5-1.2-.5-1.1-.4-1.1-.5-1.1h-34.2l-.5,1.1-.4,1.1-.5,1.1-.5,1.2-.4,1.1-.5,1.1-.5,1.1-.4,1.1-.5,1.1-.5,1.1-.4,1.1-.5,1.2-.5,1.1-.4,1.1-.5,1.1h-24l.5-1.1.5-1.1.5-1.1.5-1.2.4-1.1.5-1.1.5-1.1.5-1.1.5-1.1.5-1.2.5-1.1.5-1.1.4-1.1.5-1.1.5-1.1.5-1.2.5-1.1.5-1.1.5-1.1.5-1.1.4-1.1.5-1.2.5-1.1.5-1.1.5-1.1.5-1.1.5-1.1.5-1.2.4-1.1.5-1.1.5-1.1.5-1.1.5-1.1.5-1.2.5-1.1.5-1.1.4-1.1.5-1.1.5-1.1.5-1.2.5-1.1.5-1.1.5-1.1.5-1.1.4-1.1.5-1.1.5-1.2.5-1.1.5-1.1.5-1.1.5-1.1.5-1.1.4-1.2.5-1.1.5-1.1.5-1.1.5-1.1.5-1.1.5-1.2.5-1.1.4-1.1.5-1.1.5-1.1.5-1.1.5-1.2.5-1.1.5-1.1.5-1.1.4-1.1.5-1.1.5-1.2.5-1.1.5-1.1.5-1.1.5-1.1.5-1.1.4-1.2.5-1.1.5-1.1.5-1.1h22l.5,1.1.5,1.1.5,1.1.5,1.2.4,1.1.5,1.1.5,1.1.5,1.1.5,1.1.5,1.2.5,1.1.5,1.1.4,1.1.5,1.1.5,1.1.5,1.2.5,1.1.5,1.1.5,1.1.5,1.1.4,1.1.5,1.2.5,1.1.5,1.1.5,1.1.5,1.1.5,1.1.5,1.2.4,1.1.5,1.1.5,1.1.5,1.1.5,1.1.5,1.2.5,1.1.5,1.1.4,1.1.5,1.1.5,1.1.5,1.1.5,1.2.5,1.1.5,1.1.5,1.1.4,1.1.5,1.1.5,1.2.5,1.1.5,1.1.5,1.1.5,1.1.5,1.1.4,1.2.5,1.1.5,1.1.5,1.1.5,1.1.5,1.1.5,1.2.5,1.1.4,1.1.5,1.1.5,1.1.5,1.1.5,1.2.5,1.1.5,1.1.5,1.1.4,1.1.5,1.1.5,1.2.5,1.1.5,1.1.5,1.1.5,1.1.5,1.1.4,1.2.5,1.1.5,1.1.5,1.1h-1.2ZM177.5,533.8l-1,.7-.8.6-1,.7-.9.6-.9.7-1,.6-.9.6-1.1.6-1.1.6-1.1.6-1.1.5-1.1.6-1.2.5-1.1.5-1.2.5-1.1.5-1.1.4-1.1.4-1.1.4-1.2.4-1.1.4-1.2.2-1.1.2-1.2.2-1.2.2h-1.2c0,.1-1.3.2-1.3.2h-1.2c0,.1-1.3.2-1.3.2h-1.2c0,.1-1.3.2-1.3.2h-6.3c0-.1-1.3-.2-1.3-.2h-1.2c0-.1-1.2-.2-1.2-.2h-1.2c0-.1-1.2-.4-1.2-.4l-1.2-.2-1.1-.2-1.2-.2-1.1-.4-1.2-.2-1.1-.4-1.1-.5-1.1-.4-1.2-.5-1.1-.5-1.1-.5-1.1-.5-1.1-.6-.9-.6-1.1-.6-1-.6-.9-.6-1-.7-.9-.7-1-.7-.8-.7-.8-.7-.8-.8-.8-.7-.8-.8-.8-.8-.7-.8-.7-1-.7-.8-.6-1-.7-1-.6-1-.6-1-.6-1.1-.6-1-.5-1.1-.5-1.1-.5-1.1-.5-1.1-.4-1-.5-1.1-.2-1.1-.4-1.1-.2-1.2-.4-1.1-.2-1.2v-1.1c-.1,0-.4-1.2-.4-1.2v-1.1c-.1,0-.2-1.2-.2-1.2v-1.2c-.1,0-.2-1.2-.2-1.2v-5.3c.1,0,.1-1.2.1-1.2v-1.2c.1,0,.2-1.3.2-1.3l.2-1.2v-1.2c.1,0,.4-1.1.4-1.1l.4-1.2.2-1.2.4-1.1.4-1.2.4-1.1.5-1.2.5-1.1.5-1.1.5-1.1.5-1.1.6-1.1.6-1,.6-1,.6-1,.6-1,.7-1,.7-1,.7-1,.7-.8.8-.8.7-.8.8-.8.8-.8.8-.7,1-.8.8-.7.9-.7,1-.6.9-.7,1-.6.9-.6,1.1-.6,1.1-.6,1.1-.6,1.1-.5,1.1-.5,1.2-.6.9-.4,1.2-.4,1.1-.5,1.1-.2,1.1-.4,1.2-.2,1.1-.4,1.2-.2h1.2c0-.1,1.2-.4,1.2-.4h1.2c0-.1,1.2-.2,1.2-.2h1.2c0-.1,1.2-.2,1.2-.2h6.4c0,.1,1.3.2,1.3.2h2.4c0,.1,1.3.4,1.3.4h1.1c0,.1,1.2.4,1.2.4l1.2.2,1.1.2,1.1.2,1.1.2,1.1.4,1.1.2.9.4,1.1.4,1.1.5,1.1.5,1.1.5,1.1.6,1.1.5,1,.6,1.1.6.9.6,1.1.6.9.7.9.6,1,.7.9.7,1,.8.9.7-.7,1-.8.8-.7,1-.8,1-.7,1-.7.8-.8,1-.7,1-.7.8-.8,1-.7,1-.8,1-.7.8-.7,1-.8,1-.7,1-.8.8-.7,1-1-.7-.9-.8-1-.6-.9-.7-.9-.6-1-.6-1-.6-1.1-.6-1-.5-.9-.5-1-.4-1.1-.4-1.1-.4-1.1-.2-1.2-.2-1.2-.2h-1.2c0-.1-1.3-.2-1.3-.2h-1.3c0-.1-1.3-.1-1.3-.1h-2.4c0,.1-1.1.2-1.1.2l-1.2.2-1.1.2-1.1.4-1.1.4-1.1.5-1.1.5-1,.6-.9.6-1,.6-.8.7-.8.7-.8.7-.7.8-.8.8-.7,1-.6.8-.6,1-.6,1.1-.6,1-.5,1.1-.4,1.1-.5,1.1-.4,1.2-.2,1.2-.2,1.1-.2,1.3v1.2c-.1,0-.2,1.2-.2,1.2v3.9c.1,0,.2,1.1.2,1.1v1.2c.1,0,.4,1.1.4,1.1l.2,1.1.2,1.1.4,1.1.4,1,.5,1.2.5,1.1.6,1.1.6,1,.6,1,.7,1,.7.8.8.8.7.8.8.7,1,.7.9.7.9.6,1,.6,1.1.5,1.1.5,1.1.5,1.2.4,1.2.4,1.2.2,1.2.2h1.2c0,.1,1.3.2,1.3.2h4.1c0-.1,1.3-.2,1.3-.2h1.2c0-.1,1.2-.4,1.2-.4l1.2-.2,1.2-.4,1.1-.2,1.1-.5,1-.5,1.1-.5.8-.5,1-.6v-10.9h-17.4v-17.4h39.3v38.8l-.8.7Z" class="cls-1" id="path28"></path>
              </g>
              <g id="g30">
                <path d="M139.3,261h51.6v-39.9h-51.6v-81.4h53.6v-39.9h-97.4v287.9h98.2v-39.9h-54.4v-86.8Z" class="cls-1" id="path32"></path>
              </g>
              <g id="g34">
                <path d="M508.7,269.7v65c0,11.5-5.3,16.9-16.4,16.9h-8.2c-11.5,0-16.8-5.3-16.8-16.9v-181.8c0-11.5,5.3-16.9,16.8-16.9h7.4c11.1,0,16.4,5.3,16.4,16.9v56.4h43v-58.8c0-35.8-17.2-53.1-52.8-53.1h-21.3c-35.6,0-53.2,17.7-53.2,53.5v185.9c0,35.8,17.6,53.5,53.2,53.5h21.7c35.6,0,53.2-17.7,53.2-53.5v-67h-43Z" class="cls-1" id="path36"></path>
              </g>
              <path d="M356.6,387.7h43.8V99.8h-43.8v287.9Z" class="cls-1" id="path38"></path>
              <g id="g40">
                <path d="M293,227.7c0,11.5-5.3,16.9-16.4,16.9h-18v-106.1h18c11.1,0,16.4,5.3,16.4,16.9v72.4ZM283.6,99.8h-68.8v287.9h43.8v-104.5h25c35.6,0,53.2-17.7,53.2-53.5v-76.5c0-35.8-17.6-53.5-53.2-53.5" class="cls-1" id="path42"></path>
              </g>
              <g id="g44">
                <path d="M198.8,648.1h250.7l-128,42.2-122.8-42.2Z" class="cls-2" id="path46"></path>
              </g>
            </g>
          </g>
        </g>
      </g>
    </g>
  </g>
</svg>