<svg viewBox="0 0 499.9 175.2" version="1.1" xmlns="http://www.w3.org/2000/svg">
  <defs>
    <style>
      .cls-1 {
        fill-rule: evenodd;
      }
    </style>
  </defs>
  
  <g>
    <g id="Calque_1">
      <g>
        <path d="M2.4,8.4c.4,0,.8.4,1.7,1.3.4.8,1.3,1.7,2.1,2.9s1.7,2.9,2.9,4.6c.8,1.7,2.1,3.3,2.9,5,1.3,1.3,2.1,2.5,2.5,3.3,2.1,2.5,2.9,2.5,4.2,2.5,1.3-.4,2.5-.8,3.8-1.3.4-.4,1.7-.8,2.9-1.3,3.8-1.7,9.2-2.9,14.2-2.5,1.3,0,2.5,0,4.2.4s3.8.8,5,1.3c1.7.4,2.5.8,3.3.8.8.4,1.7.4,2.5.8,1.3,0,2.5.4,3.3-.8.8-1.3,1.7-3.3.4-4.6-.4-.4-.8-.4-1.7-.8-2.1-.8-5.4-2.1-8.4-2.5-1.7-.4-2.9-.4-4.6-.4-5.4,0-11.7.8-18,2.9,1.3-1.3,2.5-2.1,3.8-2.9,1.7-.8,3.8-1.7,6.3-2.5,2.9-.8,6.3-2.1,10-2.9,3.8-.4,7.5-1.3,10.9-1.7,2.9,0,5.8-.4,7.1-.4h2.9c1.7,0,3.3-.4,4.6-2.1.8-.8,1.7-2.1,2.5-2.9.8-1.7,2.1-2.9,4.6-4.6l1.7,11.7c5.8,0,11.7,1.3,17.5,3.8,5.8,2.1,11.7,5.4,17.5,9.6,5.4,4.2,10.9,8.8,15.5,14.6,4.6,5.8,8.4,12.5,11.3,19.6,3.3,6.7,5.4,13.8,6.7,21.3,1.3,7.1,1.3,14.2.4,21.7-.8,7.5-2.5,15.5-5,22.1-2.5,7.1-5.4,13-9.6,18.8-3.8,5.4-8.8,10.4-14.2,15-5.4,4.2-11.7,7.5-18.4,10.4-6.3,2.5-13.4,5-20.5,5.9-6.7.8-13.8.8-20.9,0-7.1-1.3-14.6-3.3-21.3-5.9-6.7-2.9-12.9-6.7-17.5-10-4.6-3.3-7.9-7.1-10.4-10.9,4.2.8,8.8.8,12.9.4,2.1-.4,4.2-.8,5.8-1.3,5-1.7,9.2-4.2,13-10,1.3-2.1,2.9-4.6,4.2-7.5,1.7-2.9,3.3-7.1,4.2-9.6l2.9-5.8c.8-1.7,2.1-3.8,3.3-5.8,1.3-1.7,2.9-3.3,4.6-5.4,2.1-1.7,4.6-4.2,6.7-5.8s3.8-2.9,5.4-4.6c1.3-1.7,2.9-3.8,4.6-5.4,1.3-1.7,2.5-3.8,3.3-5.8,2.9-5.8,5-14.2,4.6-21.3,0-2.1-.4-4.6-.8-7.1-.4-2.1-1.3-4.6-2.1-6.7-.8-2.1-1.3-3.8-2.1-4.6-.8-1.7-1.3-1.7-2.1-1.3-.4,0-.4.4-.8.8,0,.4-.4,1.3,0,2.5,0,1.3.4,3.3.8,5,.4,1.3.4,2.1.8,3.8.4,3.3.8,9.2,0,13.8-.4,4.2-1.7,8.4-4.2,12.1-1.7,3.8-5.4,7.5-9.6,11.7-2.1,2.1-4.6,3.8-5.8,5-1.7,1.3-2.5,2.1-3.8,3.3-1.7,1.7-3.3,4.2-5,6.3-1.7,2.1-3.3,4.6-4.6,7.1-1.3,2.9-2.5,6.3-3.3,8.4-.8,1.7-.8,2.5-1.3,3.8s-1.3,2.9-2.1,4.2c-2.1,3.8-4.2,4.2-6.7,4.2s-2.9-.4-4.6-2.1c-.8-.4-1.3-1.3-1.7-2.5-.8-.8-1.3-2.9-1.7-4.6-1.3-4.6-2.5-12.1-6.3-18.4-1.3-1.7-2.5-3.8-4.2-5.4-1.7-2.1-3.8-4.2-5-5.4-1.3-1.3-2.1-1.7-2.9-2.5-.8-.8-1.7-1.7-2.5-2.9-1.3-1.3-1.7-2.5-2.5-3.8-.4-1.3-1.3-2.9-1.7-5.4-.4-2.1-.8-4.6-.8-9.6-.4-5-.4-11.7,0-22.1.4-10.4.8-24.6,2.1-38.8h0ZM22.5,84.8c1.3.4,2.5.4,3.8.4s1.7.4,2.1.4c1.3,0,1.7-.8,1.7-1.3-1.3-1.7-2.9-2.5-5.4-3.3-.8-.4-1.7-.8-2.5-1.3-1.3-.4-1.7.8-1.7,1.7-.4.8-.8,2.1,0,3.3h2.1Z" class="cls-1"></path>
        <path d="M315.7,79c-.8,1.3-2.5,2.1-3.8,2.5-2.9.8-5.8,1.3-9.2.4-1.3-.4-2.1-1.3-3.3-2.1-.8-.8-2.1-1.7-2.9-2.9-1.3-2.5-2.1-5.4-3.3-8.4h-20.5l-1.7,4.2c-.4,1.7-1.3,2.9-2.1,4.2-.8,1.3-1.7,2.5-2.9,2.9-2.1,1.7-4.2,2.5-6.7,2.5s-3.3-.4-4.6-.8c-1.7-.4-2.9-1.3-3.8-2.5-1.3-.8-2.1-2.1-2.5-3.8-1.3-2.1-1.3-5-.8-7.5.4-.8.8-2.1.8-2.9l18.8-46c.8-2.1,2.1-4.6,3.3-5.8.8-1.7,2.1-2.9,3.8-4.2,2.5-1.7,5.8-2.9,9.2-2.9s3.3.4,5,.8,3.3,1.3,4.6,2.1c1.3,1.3,2.5,2.5,3.8,3.8.8,1.7,1.7,3.3,2.5,5l18.4,47.2q0,.4.4,1.7c.4.8.8,2.5.8,4.2s0,3.3-.8,4.6c-.4,1.7-1.3,2.9-2.5,3.8h0ZM280.2,47.2h5.8l-2.9-9.6-2.9,9.6h0Z" class="cls-1"></path>
        <path d="M222.6,60.2c0-2.1.4-4.2.4-5.8V21.3c0-1.7,0-3.8.4-5,0-1.7.8-2.9,1.3-4.2.4-.8,1.3-2.1,2.1-2.9.8-.4,1.7-1.3,2.9-1.7,2.1-.8,4.6-1.3,7.5-.8,1.3,0,2.1.4,3.3.8.8.4,2.1,1.3,2.9,1.7.8.8,1.3,2.1,2.1,2.9.4,1.3.8,2.5,1.3,4.2.4,1.3.4,3.3.4,5v35.1c0,2.1,0,3.8-.4,5.4,0,1.7-.4,3.3-.8,4.6,0,1.3-.8,2.5-1.3,3.8-.4,1.3-.8,2.1-1.7,3.3-.8.8-1.3,1.7-2.1,2.5-.8.8-1.7,1.7-2.9,2.5-.8.8-1.7,1.3-2.9,1.7-.8.8-2.1,1.3-3.3,1.7-1.3.4-2.5.8-4.2.8-2.9.4-6.3.4-9.6,0-1.7,0-2.9-.4-4.6-.4-1.3-.4-2.5-.8-3.8-1.7-1.3-.4-2.5-.8-3.3-1.3-.8-.8-1.3-1.3-2.1-1.7-2.1-2.5-2.9-4.6-3.3-6.7v-2.9c.4-1.7.4-2.9,1.3-4.2.4-.8,1.3-1.7,1.7-2.1,1.3-1.7,2.5-2.1,3.8-2.5.8-.4,2.5-.4,4.2-.4,1.3.4,2.9.8,4.2,2.1,1.3.8,2.1,2.1,2.9,2.5s2.1.8,2.9.4q.4-.4.4-1.3c.4-.4.4-1.7.4-2.5h0Z" class="cls-1"></path>
        <path d="M187.5,56v11.3c0,1.7,0,3.8-.4,5-.4,1.7-.8,2.9-1.3,4.2-.8.8-1.3,2.1-2.1,2.9-.8.4-2.1,1.3-2.9,1.7-2.1.8-5,1.3-7.5.8-1.3,0-2.5-.4-3.3-.8-1.3-.4-2.1-1.3-2.9-1.7-.8-.8-1.7-2.1-2.1-2.9-.4-1.3-1.3-2.5-1.3-4.2-.4-1.3-.8-3.3-.8-5V21.7c0-1.7.4-3.3.4-5,.4-1.3.8-2.5,1.3-3.8.8-.8,1.3-1.7,2.1-2.5.8-.8,1.7-1.3,2.9-2.1.8-.4,2.1-.8,3.8-1.3,1.3,0,3.3-.4,5-.4h22.1c1.7,0,2.9,0,4.2.4,1.3,0,2.5.4,3.3.4.8.4,1.7.8,2.5,1.3.8.4,1.7.8,2.1,1.3,2.9,2.5,3.8,5,3.8,7.9s-.4,5.4-3.3,7.9c-.4.4-1.3.8-2.1,1.3-.4.4-1.3.8-2.5,1.3-.8.4-1.7.4-2.9.4-1.3.4-2.5.4-4.2.4h-11.3c-.8,0-1.3.4-1.7.4-.8.4-.8.8-.8,1.3-.4.4-.4.8,0,1.3,0,.8-.4.8,0,1.3,0,.4-.4,1.3.4,1.7,0,0,.4.4.8.4s1.3,0,2.5.4c1.3,0,2.9-.4,3.8-.4h7.1c1.7.4,2.5.4,3.8.8.8,0,1.7.4,2.5.8.8.4,1.7.8,2.1,1.3,2.1,1.7,3.3,3.3,3.8,5,0,1.7.4,4.2-.8,5.8-.4,1.3-1.3,2.5-2.5,3.3-.8.8-1.3,1.3-2.1,1.3-.8.4-1.7.8-2.5,1.3-1.3,0-2.1.4-3.3.4-1.7.4-3.3.4-5,.4h-10.4Z" class="cls-1"></path>
        <path d="M264.7,2.9c.8,0,2.1,0,2.9.8,2.5,2.1,2.9,4.6,1.3,7.1-2.1,2.5-4.6,2.9-7.1,1.3-2.5-2.1-2.9-4.6-1.3-7.1,1.3-1.7,2.5-2.1,4.2-2.1h0Z" class="cls-1"></path>
        <path d="M302.3,2.9c.8,0,2.1,0,2.9.8,2.5,2.1,2.9,4.6,1.3,7.1-2.1,2.5-4.6,2.9-7.1,1.3-2.5-2.1-2.9-4.6-1.3-7.1,1.3-1.7,2.5-2.1,4.2-2.1h0Z" class="cls-1"></path>
        <path d="M372.9,21.3c0-1.7.4-3.8.8-5,0-1.7.8-2.9,1.3-4.2.8-.8,1.3-2.1,2.1-2.5.8-.8,1.7-1.7,2.9-2.1,2.1-.8,5-1.3,7.5-.8,1.3,0,2.5.4,3.8.8.8.4,2.1,1.3,2.9,2.1.8.4,1.3,1.7,2.1,2.5.4,1.3,1.3,2.5,1.3,4.2.4,1.3.4,3.3.4,5v39.3h15.5c1.7.4,2.9.8,4.2,1.3,1.3.4,2.1,1.3,2.9,1.7.8.8,1.3,1.3,2.1,2.1,1.3,1.7,1.3,3.3,1.3,5.4s0,3.3-1.3,5c-.8.8-1.3,1.7-2.1,2.1-.8.8-1.7,1.3-2.9,1.7-1.3.4-2.5.8-4.2,1.3-1.3,0-3.3.4-5,.4h-19.6c-2.1,0-4.2-.4-5.4-.4-1.7-.4-2.9-.8-3.8-1.3-1.3-.4-2.1-.8-2.9-1.7s-1.3-1.7-1.7-2.5c-.8-.8-1.3-2.1-1.3-3.3-.4-1.7-.8-3.3-.8-5V21.3h0Z" class="cls-1"></path>
        <path d="M320.7,21.3c0-1.7,0-3.8.4-5,.4-1.7.8-2.9,1.3-4.2.8-.8,1.7-2.1,2.5-2.5.8-.8,1.7-1.7,2.5-2.1,2.1-.8,5-1.3,7.9-.8,1.3,0,2.5.4,3.3.8,1.3.4,2.1,1.3,2.9,2.1.8.4,1.7,1.7,2.1,2.5.8,1.3,1.3,2.5,1.7,4.2,0,1.3.4,3.3.4,5v39.3h15.5c1.7.4,2.9.8,3.8,1.3,1.3.4,2.1,1.3,2.9,1.7.8.8,1.7,1.3,2.1,2.1,1.3,1.7,1.7,3.3,1.7,5.4s-.4,3.3-1.7,5c-.4.8-1.3,1.7-2.1,2.1-.8.8-1.7,1.3-2.9,1.7-.8.4-2.1.8-3.8,1.3-1.7,0-3.8.4-5.4.4h-19.6c-2.1,0-3.8-.4-5.4-.4-1.7-.4-2.9-.8-3.8-1.3-1.3-.4-2.1-.8-2.5-1.7-.8-.8-1.7-1.7-2.1-2.5-.4-.8-.8-2.1-1.3-3.3-.4-1.7-.4-3.3-.4-5V21.3h0Z" class="cls-1"></path>
        <path d="M458.2,146.2v14.6c0,1.7,0,3.3-.4,4.6-.4,1.3-.8,2.1-1.7,2.9-.4.8-.8,1.3-2.1,2.1-.8.4-2.1.8-3.8,1.3h-5c-2.9,0-4.2,0-5.8-.8-1.3-.4-2.1-.8-2.9-1.7-.8-.8-1.7-1.7-2.1-2.5-.8-.4-.8-1.3-1.3-2.1-.4-.8-.8-2.1-.8-3.3s-.4-3.8-.4-5.8l.4-48c0-2.1,0-3.8.4-5.4.4-1.3.8-2.5,1.3-3.8.4-.8.8-2.1,1.7-2.5.8-.8,1.3-1.7,2.1-2.1.8-.4,1.7-.8,2.9-1.3.8,0,2.5-.4,3.8-.4s3.8,0,5,.4c2.9.4,4.2,1.3,6.3,2.9,1.3.8,2.1,2.1,3.3,3.8l16.3,21.3-.4-12.9c0-.8.4-1.3.4-2.1,0-1.3,0-2.5.4-3.8,0-1.7.4-2.5.8-3.8.4-.8,1.3-1.7,1.7-2.5.8-.8,1.3-1.7,2.1-2.1s1.7-.8,2.5-1.3,1.7-.4,2.9-.4c1.3-.4,2.9-.4,4.2,0,.8,0,2.1.4,2.9.4.8.4,1.7.8,2.1,1.7.8.4,1.7,1.3,2.1,2.1s1.3,1.7,1.7,2.9c.4.8.8,2.1.8,3.8.4,1.3.4,2.9.4,5v49.7c0,2.1,0,4.2-.4,5.4-.4,1.7-.8,2.9-1.7,4.2-.4.8-1.3,2.1-2.1,2.5-.8.8-1.7,1.3-2.9,1.7-2.1,1.3-5.4,1.7-8.8,1.3-2.9-.4-5.4-1.3-7.5-3.3-1.3-1.2-2.9-2.5-3.8-4.2l-14.6-18.4h0Z" class="cls-1"></path>
        <path d="M222.1,169.2c-2.1,1.7-5,2.5-7.9,2.5s-6.7-1.3-10-5c-.8-1.3-2.1-2.5-2.9-4.2-2.5-4.2-5-7.9-6.3-10.4-1.7-2.1-2.5-2.9-3.3-3.8-.4-.4-1.3-.8-1.7-.8v9.2c0,2.1-.4,4.2-.4,5.8-.4,1.7-1.3,2.9-1.7,4.2-.8,1.3-1.3,2.1-2.1,2.9-1.3.8-2.1,1.7-3.3,2.1-2.1.8-5,1.2-7.5.8-1.7,0-2.5-.4-3.8-.8-1.3-.8-2.1-1.3-2.9-2.1-.8-.8-1.7-2.1-2.1-2.9-.8-1.3-1.3-2.5-1.7-4.2s-.4-3.8-.4-5.8v-49.7c0-1.7,0-3.8.4-5,.4-1.7.8-2.9,1.3-4.2.4-.8,1.3-1.7,2.1-2.5.8-.8,1.7-1.7,2.9-2.1,1.3-.8,2.5-1.3,3.8-1.3,1.7-.4,3.8-.8,5.8-.8,5.8,0,11.7.4,17.5,0,3.8,0,7.5,0,11.3,1.7,2.1.8,4.2,2.1,6.3,3.3,1.7,1.3,3.3,2.9,4.6,4.2,1.3,1.3,2.1,2.9,2.9,4.6,1.3,3.3,2.1,8.4,1.3,12.5,0,2.1-.4,4.2-1.3,5.8-.8,2.1-1.7,3.8-2.9,5.4-1.7,2.1-3.8,4.2-5.8,5.8l5.8,11.3c1.3,2.1,2.5,3.8,3.3,5.8,1.7,3.3,2.9,6.7,2.9,10s-.8,2.9-1.3,4.2c-.8,1.3-1.7,2.5-2.9,3.3h0ZM192.5,124.1c.8,0,1.7-.4,2.5-.4s1.3-.4,1.7-.4c.4-.4.8-.4,1.3-.8q.8-.8,1.3-1.7v-3.8c0-.8-.4-1.3-1.3-2.1,0,0-.4-.4-.8-.4-1.3-.4-2.9-.8-4.2-.8h-4.2v10.4h3.8Z" class="cls-1"></path>
        <path d="M346.6,162.5c-.4,1.3-1.3,2.9-2.1,3.8-1.3,2.5-2.9,3.3-5,4.6-.8.4-1.7.4-2.9.8-1.3,0-2.9.4-5,0-2.1,0-4.2,0-5.9-.4-1.7,0-2.5-.4-3.8-.8-.8-.4-1.7-.8-2.1-1.7-.8-.8-1.7-1.7-2.5-2.5-.4-1.3-1.3-2.1-1.7-3.3l-19.6-51c-.8-2.1-1.3-4.2-1.7-6.3,0-2.1.8-4.6,1.7-6.3.8-1.3,1.3-2.1,2.1-2.5.8-.8,1.7-1.7,2.9-2.1,2.9-1.7,6.7-2.5,10.4-1.3,1.3.4,2.1.8,3.3,1.7.8.8,2.1,2.1,2.9,3.3s1.3,2.5,2.1,4.2l12.1,30.9,12.1-30.1c.4-1.7,1.3-3.3,2.1-4.6.8-1.7,2.1-2.5,2.9-3.3,2.5-2.1,5-2.5,7.5-2.5s4.2.4,5.8.8c1.7.8,2.9,1.7,4.2,2.9.8,1.3,1.7,2.5,2.1,4.6.8,3.8,0,9.2-2.1,13.8l-20.1,47.2h0Z" class="cls-1"></path>
        <path d="M371.7,101.9c0-.8.8-2.1,1.3-2.9.4-.8,1.3-1.7,2.1-2.5.8-.8,1.7-1.7,2.9-2.1.8-.4,2.1-.8,3.8-1.3,1.7-.4,3.8-.4,5.4-.4h27.2c1.3.4,2.5.4,3.3.8,1.3.4,2.1.4,2.9.8.8.4,1.3.8,2.1,1.7,3.8,2.9,4.2,6.7,3.8,10.4,0,.8,0,1.2-.4,2.1-.4.8-.4,1.7-.8,2.1-.4.8-.8,1.2-1.3,1.7-.4.4-.8.4-1.7.8-.4.4-1.7.8-2.5,1.3-1.3,0-2.5.4-3.8.8-1.7,0-3.3.4-5.4.4h-6.3c-1.7-.4-2.1-.4-2.9-.4h-2.5c-.8,0-1.7.4-2.1.4-.8.4-1.3.4-1.7,1.3-.8,1.7-.8,3.3.4,5q.4.4.8.4c.4.4,1.3.4,1.7.4h14.2c.8,0,2.1,0,3.3.4,1.3,0,2.1,0,2.9.4,1.3,0,2.1.8,3.3,2.1,2.5,2.5,2.9,5,2.5,7.9,0,2.1-.8,4.2-2.5,6.3-1.3,1.3-2.5,2.5-3.8,2.9-1.3.8-3.3.8-5.8,1.3h-3.3c-2.5,0-3.8.4-5.4,0h-5.4c-.8.4-1.7.4-2.1,1.3-1.3.8-1.3,2.5-.4,4.2.4.4.8.4.8.8.4,0,.8.4,1.7.4h18c2.1,0,3.3.4,4.6.4,1.7.4,2.5.8,3.3,1.7,1.7,1.7,2.9,4.2,3.3,5.8.4,2.9,0,5.4-2.1,8.4-.4.4-1.3.8-1.7,1.7-.8.4-1.3.8-2.1,1.3-.8.4-1.7.4-2.9.8-2.1.4-5,.8-7.9.8h-23.4c-2.1,0-4.2,0-5.8-.4-1.7,0-2.5-.4-3.8-.8-1.3-.8-2.1-1.3-2.9-2.1-.4-.8-1.3-1.2-1.7-2.5-1.3-2.1-2.1-4.6-2.1-7.1v-53.1c0-1.3.4-2.5.8-3.8h0Z" class="cls-1"></path>
        <path d="M301.1,169.2c-1.3,1.3-2.5,2.1-4.2,2.9-2.9.8-6.3,1.3-9.6,0-1.3-.4-2.5-.8-3.8-1.7-.8-.8-2.1-2.1-2.9-3.3-1.7-2.5-2.5-5.9-3.3-8.8h-22.1l-1.3,4.2c-.8,1.7-1.7,3.3-2.5,4.6-.8,1.2-1.7,2.5-2.9,3.3-2.1,1.7-4.6,2.5-7.1,2.5s-3.3-.4-5-.8c-1.7-.8-2.9-1.7-4.2-2.9-.8-.8-1.7-2.1-2.5-3.8-.8-2.5-.8-5.4-.4-7.9,0-1.2.4-2.1.8-2.9l19.6-48.9c.8-2.5,2.1-4.6,3.3-6.3,1.3-1.7,2.5-2.9,3.8-4.2,3.3-2.1,6.7-2.9,10-2.9s3.8.4,5.4.8c1.7.4,3.3,1.3,4.6,2.1,1.7,1.3,2.9,2.5,4.2,3.8.8,1.7,2.1,3.8,2.9,5.4l19.2,49.7c0,.4,0,.8.4,1.7.4,1.3.8,2.9.8,4.6s0,3.3-.8,5c-.4,1.7-1.3,2.9-2.5,3.8h0ZM263.1,136.2h6.3l-2.9-10.9-3.3,10.9h0Z" class="cls-1"></path>
        <path d="M246.8,89c1.3,0,2.5,0,3.3.8,2.5,2.1,2.9,4.6,1.3,7.5-2.1,2.5-4.6,2.9-7.5,1.3-2.5-2.1-2.9-4.6-1.3-7.5,1.3-1.7,2.9-2.1,4.2-2.1h0Z" class="cls-1"></path>
        <path d="M286.5,89c1.3,0,2.5,0,3.3.8,2.5,2.1,2.9,4.6,1.3,7.5-2.1,2.5-4.6,2.9-7.5,1.3-2.5-2.1-2.9-4.6-1.3-7.5,1.3-1.7,2.9-2.1,4.2-2.1h0Z" class="cls-1"></path>
      </g>
    </g>
  </g>
</svg>