<svg viewBox="0 0 800 215.4" version="1.1" xmlns="http://www.w3.org/2000/svg">
  <defs>
    <style>
      .cls-1 {
        fill-rule: evenodd;
      }
    </style>
  </defs>
  
  <g>
    <g id="Layer_1">
      <g id="g2231">
        <g id="g2233">
          <path d="M208.1,108.9c-1.3-2.7-4.9-4.8-7.8-4.8h-6.1c-3,0-6.5,2.2-7.8,4.9l-48.1,100.5c-1.3,2.7.1,4.6,3.1,4.6h11.1c4.4,0,6.4-2,7.6-4.4,1.2-2.4,3.8-7.8,4.3-8.8.7-1.5,2.8-2.4,5.8-2.4h51.8c3,0,4.9.6,5.8,2.4.6,1.1,3.2,5.9,4.5,8.5,1.3,2.6,3.5,4.7,7.8,4.7h16.1c3,0,4.3-2.3,3.2-4.4-1.1-2.1-51.4-100.7-51.4-100.7ZM177.7,182.9c-3,0-4.4-2.2-3.1-4.9l19-40.6c1.3-2.7,3.3-2.7,4.5,0l18.5,40.6c1.2,2.7-.2,4.9-3.2,4.9h-35.6ZM579.8,109.7v99.7c0,2.7,2.4,4.6,5.4,4.6h13.1c3,0,5.4-1.9,5.4-4.9v-99.6c0-3-1.9-5.4-4.9-5.4h-13.7c-3,0-5.4,1.8-5.4,5.6ZM359.5,172.2c-1.7-2.4-.8-5.1,2.1-6,0,0,11.4-3.4,16.8-8.3,5.4-4.9,8.2-11.9,8.2-21.1s-1.1-11.1-3.1-15.2c-2.1-4.1-5.1-7.5-9-10-3.9-2.6-8.6-4.5-14-5.7-5.5-1.2-12.8-1.5-12.8-1.5-3-.1-7.9-.2-10.8-.2h-54.6c-3,0-5.4,2.4-5.4,5.4v99.6c0,3,2.4,4.9,5.4,4.9h12.9c3,0,5.4-1.9,5.4-4.9,0,0,0-39.6,0-39.6s0,0,0,0,24.5,0,24.5,0c3,0,6.8,2,8.5,4.4l25.4,35.8c2.4,3.2,4.6,4.4,7.6,4.4h16.9c3,0,3.5-2.8,2.4-4.3-1-1.5-26.4-37.6-26.4-37.6ZM349.2,151.9c-3.3.8-7.1.9-7.1.9-3,.1-7.8.2-10.8.2h-25.3c-3,0-5.4-2.4-5.4-5.4v-20.2c0-3,2.4-5.4,5.4-5.4h25.3c3,0,7.9.1,10.8.2,0,0,3.8.1,7.1.9s6,1.8,7.9,3.2c2,1.4,3.3,3,4.2,4.9.8,1.9,1.3,3.9,1.3,6.2s-.4,4.3-1.3,6.2c-.8,1.9-2.2,3.5-4.2,4.9-1.9,1.4-4.6,2.5-7.9,3.3ZM741.2,104.1c-3,0-5.4,2-5.4,4.8s0,63.7,0,63.7c0,3-1.7,3.7-3.8,1.5l-63.8-66.2c-2.1-2.1-5.1-3.9-9.2-3.9h-12c-3.8,0-5.4,2-5.4,4.1v101.9c0,2,1.9,4,4.9,4h12c3,0,5.1-1.6,5.1-4.4s0-67.1,0-67.1c0-3,1.7-3.7,3.7-1.5l66.5,69.2c2.1,2.1,4.7,3.8,9.2,3.8h9c3,0,5.4-2.4,5.4-5.4v-99.1c0-3-2.4-5.4-5.4-5.4h-11.1ZM481,166.2c-1.4,2.6-3.8,2.6-5.3,0l-31.2-57.3c-1.3-2.7-4-4.8-7.8-4.8h-16.9c-3,0-5.4,2.4-5.4,5.4v99.5c0,3,2,5,5.4,5h10.5c3,0,5.1-1.9,5.1-4.8s0-72.4.2-72.4,38.9,72.4,38.9,72.4c1.4,2.6,4.9,2.6,6.3,0,0,0,39.1-72.2,39.3-72.2s0,70.1,0,72.2,2.3,4.8,5.3,4.8h12.1c3,0,5.4-1.5,5.4-5.4v-99.1c0-3-2.4-5.4-5.4-5.4h-16.2c-4.1,0-6.6,2.1-8.1,4.7l-32.2,57.4Z" id="path2235"></path>
        </g>
        <g id="g2237">
          <path d="M0,159C0,212.7,54.9,215.4,65.9,215.4c36.4,0,51.8-9.8,52.5-10.3,2.3-1.3,5.1-3.9,5.1-8.8v-37.1c0-3.4-2.8-6.2-6.2-6.2h-45.8c-3.4,0-5.7,2.8-5.7,6.2v3.8c0,3.4,2.2,6.2,5.7,6.2h26.5c2.6,0,4.6,2.1,4.6,4.6,0,0,0,16.2,0,17.3-5.2,2.1-29.1,9.1-48.2,4.5-27.8-6.6-29.9-29.6-29.9-36.4s1.7-34.6,35.8-37.5c27.6-2.4,45.8,8.8,46,8.9,3.2,1.7,6.6.5,8.4-3,0,0,3.4-7,3.4-7,1.4-2.9.9-5.8-2.5-8.2-.2-.1-19.6-10.6-49.6-10.6C1.8,102,0,153.1,0,159Z" id="path2239"></path>
        </g>
        <g id="g2241">
          <path d="M774.9,200.4h-4.7v-1.7h11.5v1.7h-4.7v13.8h-2v-13.8h0Z" id="path2243"></path>
          <path d="M797.6,207.4c-.1-2.2-.3-4.8-.3-6.7h0c-.6,1.8-1.2,3.7-2,5.9l-2.7,7.5h-1.5l-2.5-7.4c-.7-2.2-1.3-4.2-1.8-6h0c0,1.9-.2,4.5-.3,6.9l-.4,6.6h-1.9l1.1-15.5h2.6l2.6,7.5c.6,1.9,1.1,3.6,1.6,5.2h0c.4-1.6,1-3.3,1.7-5.2l2.8-7.5h2.6l1,15.5h-2l-.4-6.8Z" id="path2245"></path>
        </g>
        <g id="g2247">
          <g id="g2249">
            <g id="use2254">
              <path d="M735.1,76.6h-71.9c-2.6,0-4.9-1.3-6.2-3.6-1.3-2.3-1.3-4.9,0-7.2l36-62.3c1.3-2.3,3.6-3.6,6.2-3.6s4.9,1.3,6.2,3.6l36,62.3c1.3,2.3,1.3,4.9,0,7.2-1.3,2.3-3.6,3.6-6.2,3.6Z" class="cls-1"></path>
            </g>
          </g>
        </g>
      </g>
    </g>
  </g>
</svg>