<svg viewBox="0 0 1000 208.5" version="1.1" xmlns="http://www.w3.org/2000/svg">
  
  <g>
    <g id="Ebene_1">
      <path d="M1,185.8C5.3,130.4,9.2,75,13.6,19.7c13,.2,26,0,39,0,3.5,0,7.6,1.3,9.3,4.7,1.5,2.5,1.2,5.5,1.1,8.3-1.1,15-2.3,29.9-3.4,44.9,24.1,0,48.1,0,72.2,0,1.6-19.3,2.8-38.7,4.5-58,16.8.2,33.5-.1,50.3.2-4.3,55.3-8.3,110.6-12.5,165.9-16.8,0-33.5,0-50.3,0,1.7-24.5,3.7-49,5.5-73.6-24.1,0-48.2-.1-72.3,0-1.7,24.5-3.7,49-5.4,73.5-16.9,0-33.7,0-50.6,0ZM203.5,51.2c.8-10.5,1.4-21.1,2.4-31.6,13.4.2,26.7,0,40.1.1,4.3-.2,8.3,3.1,8.3,7.6,0,7.9-1,15.9-1.5,23.8-16.4,0-32.9,0-49.3,0h0ZM282.8,70.5c14.5-6.6,30.6-7.8,46.3-8.4,21.6-.2,43.1,1.8,64.3,5.9-.6,8.3-1.6,16.7-2.2,25-18.7-3.4-37.7-6.3-56.8-5.8-5.2.2-10.5.2-15.6,1.7-1.6.6-3.7,1.2-4.2,3.1-1,2.6,1.4,4.8,3.2,6.2,4.7,3.3,10.2,5.2,15.4,7.5,16.9,7.6,34.7,13.8,49.6,25.1,4.7,3.7,8.8,8.5,10.7,14.3,2.9,9.1.4,19.8-6.6,26.5-7.2,6.9-17,10.1-26.6,12.1-15,3-30.5,3.3-45.7,2.7-18-.7-36.1-1.6-53.9-4.1.3-9.2.9-18.4,1.6-27.5,2.1.9,4.3,1.3,6.6,1.6,17.9,2.8,36,5.1,54.2,5,4.9-.3,10,0,14.6-1.8,2.4-.8,4.1-3.7,2.8-6.1-1.9-2.8-5.1-4.1-8-5.5-12.6-5.4-25.5-10.3-38-15.9-9.3-4.3-18.8-9.2-25.5-17.2-5.7-6.8-7.8-16.4-5.2-24.9,2.6-9.2,10.6-15.7,19-19.4h0ZM757.9,63.6c28.3-3.4,57-.8,84.9,4.4-.7,8.4-1.6,16.7-2.3,25.1-21.1-4.1-42.6-7-64.2-5.5-4,.4-8.5.7-11.8,3.4-1.7,1.9-.6,4.8,1.2,6.2,3.5,3,7.9,4.7,12.1,6.6,14.1,6.1,28.4,11.9,42.1,19.1,7.2,4,14.4,8.5,19.3,15.2,7,9.3,6.2,23.4-1.6,32-6.3,7-15.5,10.5-24.5,12.8-20,4.7-40.6,3.9-61,2.9-14.1-.7-28.2-1.8-42.2-3.5.3-9,1-18,1.6-27.1,22.3,3.6,44.9,7.1,67.6,5.8,3.6-.5,8.4-.3,10.7-3.7,1.9-3.9-2.4-6.7-5.5-8.1-16-7.4-32.8-12.9-48.5-21-8.3-4.5-16.6-10.1-21.1-18.7-5.2-10.2-2.8-23.7,5.7-31.4,10.2-9.2,24.1-12.6,37.4-14.4h0ZM457.8,65.2c20.2-4.5,42.2-4.1,61,5.3,12.2,5.9,22.6,16.1,27.3,29,4.2,11.3,4.1,23.7,2.3,35.5-33.5.2-67,0-100.6,0,.6,9.7,7.7,17.7,16.2,21.6,11.4,5.3,24.3,6,36.6,5.4,14.7-.6,29.3-2.7,43.7-5.8-1.4,8.4-2.5,16.8-3.9,25.2-22.3,6.1-45.7,7.4-68.8,6.1-18.6-1.7-38.5-5-53.1-17.5-11.5-9.6-17.2-24.8-17.1-39.6-.5-16.3,6.8-32.2,17.8-44,10.2-11,24.1-18.1,38.6-21.3h0ZM464.9,90.4c-8.1,4.2-13.3,12.6-15.1,21.4,19.7.4,39.3,0,59,.1.2-8.8-4-18.2-12.2-22.2-9.9-4.7-22-4.3-31.7.7h0ZM884.7,73.7c14.9-8.5,32.3-11.4,49.3-11.3,19.2.5,39.3,7.2,52.4,21.8,12,13.6,14.7,33.2,11.2,50.5-1.2.8-2.9.2-4.2.4-32,0-64.1,0-96.1,0,.4,9.3,7.1,17.2,15.3,21.2,11.4,5.6,24.6,6.5,37.1,5.8,14.8-.6,29.5-2.7,44-5.8-1.3,8.4-2.6,16.7-3.8,25.1-15.7,4.7-32.2,6.1-48.5,6.7-15.7.4-31.5-.9-46.8-4.7-13-3.4-25.8-10-34-21-9.4-12.6-11.6-29.4-8.7-44.6,4-18.5,16.4-34.8,32.9-44h0ZM916.7,89.2c-9.4,3.8-15.8,12.9-17.5,22.7,19.7,0,39.4,0,59.1,0,0-8.5-3.7-17.3-11.4-21.6-9.2-5-20.6-4.9-30.2-1.1ZM564.9,69.5c24.6-2.8,49.3-5.1,74-5.6,12.1.2,24.4.3,36.2,3,7.8,1.7,15.6,5.5,20.2,12.2,5.4,8,6.3,18.1,5.7,27.5-1.7,26.6-3.2,53.2-5,79.7-15.3,0-30.6,0-45.9,0,1.5-26.9,3.3-53.8,4.9-80.8.2-4.6-.7-9.9-4.6-12.7-4.6-3.1-10.4-3.3-15.7-3.3-8.4,0-16.8.8-25.2,2-1.8,31.5-3.9,63-5.5,94.6-15.4.4-30.8,0-46.2.2,2.2-39,4.7-77.9,7.1-116.8ZM193.2,185.7c3-40.3,5.9-80.5,9-120.8,16.4,0,32.9,0,49.3,0-2.9,40.2-6,80.5-8.9,120.7-16.5.2-32.9,0-49.4,0h0Z"></path>
    </g>
  </g>
</svg>