<svg viewBox="0 0 600 275" version="1.1" xmlns="http://www.w3.org/2000/svg">
  
  <g>
    <g id="Ebene_1">
      <path d="M523.8,156.4h31.1v28.9c-5.7,2.2-16.9,4.3-27.5,4.3-34.4,0-45.8-17.4-45.8-52.9s10.9-53.7,45.2-53.7,30,6,39,17.5l23.7-21.8c-14.5-20.7-39.8-26.9-63.6-26.9-53.4,0-81.5,29.1-81.5,84.7s25.4,85.3,81.2,85.3,50.7-6.5,64.3-16.1v-80.1h-66.2v30.8ZM360.8,187.3h79.1v32.2h-117.2V54.2h38.2v133Z"></path>
      <path d="M228,47.2c-49.9-49.9-130.8-49.9-180.6,0-49.9,49.9-49.9,130.8,0,180.6,49.9,49.9,130.8,49.9,180.6,0h0c49.9-49.9,49.9-130.8,0-180.6ZM169,191.3h-26.1c0,0-9.7,0-9.7,0v-107.8h9.7v98.1h26.1v9.6ZM138.3,242.5c-58.2,0-105.5-46.9-105.5-104.9s47.2-104.9,105.5-104.9,3.1,0,4.6,0v9.5c-1.5,0-3-.1-4.6-.1-52.9,0-95.9,42.7-95.9,95.3s42.9,95.4,95.9,95.4,93.5-40.4,95.8-91.1v-.3s-64.9,0-64.9,0v-9.6h74.5c.1,1.9.2,3.7.2,5.6,0,57.9-47.2,104.9-105.4,104.9ZM99,112.6h0,0c-1.9,0-3.9-.4-5.7-1.1-1.8-.7-3.4-1.8-4.8-3.2-1.4-1.4-2.5-3-3.2-4.8-.7-1.8-1.1-3.7-1.1-5.7,0-2.9.9-5.8,2.5-8.2,1.6-2.4,3.9-4.3,6.6-5.4,2.7-1.1,5.6-1.4,8.5-.9,2.9.6,5.5,2,7.5,4,2.1,2.1,3.5,4.7,4.1,7.5.6,2.9.3,5.8-.8,8.5-1.1,2.7-3,5-5.4,6.6-2.4,1.6-5.3,2.5-8.2,2.5h0Z"></path>
    </g>
  </g>
</svg>