<svg viewBox="0 0 1000 304.3" version="1.1" xmlns="http://www.w3.org/2000/svg">
  
  <g>
    <g id="svg2">
      
        
      
      <g id="layer1">
        <path d="M.5,215V4.9h36.9v210.1H.5Z" id="path3008"></path>
        <path d="M131.9,62.6c-47.3,0-80.1,36.4-80.1,78s35.6,78.5,80.4,78.5,79.4-31.4,79.4-78.6-30.6-77.9-79.8-77.9h0ZM131.4,98.2c24.8,0,43,19.3,43,42.5s-20.1,42.7-42.3,42.7-42.8-20.8-42.8-42.6,18.7-42.6,42.1-42.6Z" id="path3010"></path>
        <path d="M304.4,62.6c-47.3,0-80.1,36.4-80.1,78s35.6,78.5,80.4,78.5,79.4-31.4,79.4-78.6-12-40.1-12-40.1l10.2-3.5v-29.9h-52.4s-11.4-4.4-25.6-4.4h0ZM303.9,98.2c24.8,0,43,19.3,43,42.5s-20.1,42.7-42.3,42.7-42.8-20.8-42.8-42.6,18.7-42.6,42.1-42.6h0Z" id="path3012"></path>
        <path d="M346.6,225.3c0,24.7-20.1,42.8-42.3,42.8s-42.9-21-42.9-42.8h-37.4c0,46.5,35.6,78.5,80.4,78.5s79.4-31.3,79.4-78.5h-37.2Z" id="path3014"></path>
        <path d="M398.9,215V67h36.9v148h-36.9Z" id="path3016"></path>
        <path d="M471.7,215v-114.9h-19.8v-33.2h19.8V21.5h36.9v45.5h20.3v33.2h-20.3v114.9h-36.9Z" id="path3018"></path>
        <path d="M441.7,24.9c0,13.5-10.9,24.4-24.4,24.4s-24.4-10.9-24.4-24.4S403.8.5,417.3.5s24.4,10.9,24.4,24.4Z" id="path3020"></path>
        <path d="M611.8,62.5c-47.5,0-78.2,36.4-78.2,79.5s30.7,77.2,78.9,77.2,67.1-28.1,67.1-28.1l-24.7-24.7s-18.6,20.1-41.9,20.1-35-10.9-40.4-30.8h115v-10.2c0-40.5-23.5-83.1-75.8-83.1ZM610.7,95c17,0,34.4,9.1,38.3,30.8h-77.3c3.1-15.3,16.4-30.8,39-30.8h0Z" id="path3022"></path>
        <path d="M779.9,219.2c-47.7,0-80.2-36.3-80.2-79.1s36.7-77.6,80-77.6,63.3,29.5,63.3,29.5l-25.7,25.6s-14.9-19.3-37.7-19.3-42.5,19.3-42.5,42.3,18.4,42.9,42.2,42.9,38-19.2,38-19.2l26,25.6s-21.2,29.3-63.3,29.3h0Z" id="path3024"></path>
        <path d="M856.7,215.1V4.4h36.9v77.4s14.1-19.3,44.9-19.3,61,28.7,61,65.5v87.2h-36.9v-81.6c0-24.7-15.4-34.9-32.4-34.9s-36.6,11-36.6,36.8v79.7h-36.9Z" id="path3026"></path>
      </g>
    </g>
  </g>
</svg>