<svg viewBox="0 0 288 300" version="1.1" xmlns="http://www.w3.org/2000/svg">
  
  <g>
    <g id="svg2387">
      <g id="layer1">
        <g id="g2382">
          <path d="M144,4c-6.8,1.5-67,9.3-74.5,13.1-1.7,3.5-5.3,14.2-6.5,16-4.8,1-24.4,4.8-25.7,5.5-.7,2.1-5.2,10.9-6.2,12-4.2,1-23.5,4.6-25.9,6.4-1.4,8.3-6.6,91.3,27.9,145.6,34.6,54.3,95,90.4,110.9,93.9h.1c15.9-3.5,76.2-39.6,110.8-93.9,34.6-54.3,29.4-137.3,28-145.6-2.4-1.7-21.8-5.3-25.9-6.4-1-1-5.5-9.9-6.2-12-1.2-.7-20.8-4.4-25.7-5.5-1.1-1.7-4.8-12.5-6.5-16-7.5-3.7-67.7-11.6-74.7-13.1ZM144,25.2c5.9,1.3,57.4,8.2,63.8,11.3,1.5,3,4.5,12.1,5.5,13.6,4.1.9,21,4,22.1,4.6.6,1.8,4.3,9.5,5.2,10.3,3.5.9,20.1,3.9,22.2,5.4,1.2,7.1,5.6,78-23.9,124.4-29.5,46.4-81.1,77.3-94.7,80.3h-.1c-13.6-3-65.2-33.9-94.7-80.3-29.5-46.4-25.1-117.3-23.9-124.4,2.1-1.5,18.6-4.5,22.2-5.4.9-.9,4.6-8.6,5.2-10.3,1.1-.6,17.8-3.7,21.9-4.6,1-1.5,4.1-10.6,5.6-13.6,6.4-3.2,57.8-10.1,63.7-11.3Z" id="path5"></path>
          <path d="M153.4,47.9c-1.9.2-2.2,1.6-2.2,2.1-.4,66.4-.2,136.8-.7,205,.4,2.2,3.9-1.2,5.9-2.2,25.2-13.8,103.7-89.9,58.6-117.2,34.6-22.6,28.4-44.2,13.1-56-31.7-24.4-67.8-30.4-72-31.5-1.1-.3-1.8-.3-2.5-.2ZM174.5,75.2c.5-.3,20.8,7.3,31.9,14.8,12.7,8.7,8.4,17,1,22.1-4,2.7-29,20.7-33.2,21.7,0-3.5-.1-42.5.2-58.6ZM193.1,151.1c2.8,0,5.4,1,7.4,3,1.7,1.6,9.3,9.8-6.9,33.3-6,10.6-18.7,24-20.1,25.3-.2,0-.2-.2-.4-.1.1-7.6,0-44.5.4-54.8.9-.5,11.2-6.9,19.6-6.6Z" id="path9"></path>
          <path d="M67.6,71.8c-2.1.9-19.7,12.1-21.5,13.9-.5,15.7,3.7,57.9,19.2,90.8,2,4.2,4.1,8.1,6.4,11.6,4.4,7.6,4.7,7,9.8-.3,3.6-4.8,8.7-11.9,10-13.4,1.8,5.9,13.2,42.8,29.3,65,7.1,9.9,18.1,19.2,18.1,15.4-.4-37.6-1.5-200.5-.3-207.1-4.8-.1-20.3,1.9-23.4,3.5-.3,6,2.1,117.6.7,130.3-10.9-26.6-14.6-96.8-12.5-125.7-5.9,1.2-20.3,7-22.4,9-2.7,5.3,1,63.6,4.7,83.2-1.3,2-5,7.5-5.6,8.4-7.5-13.4-14.6-55-12.4-84.7Z" id="path15"></path>
        </g>
      </g>
    </g>
  </g>
</svg>