<svg viewBox="0 0 1280 257.7" version="1.1" xmlns="http://www.w3.org/2000/svg">
  
  <g>
    <g id="Ebene_1">
      <g id="path22">
        <path d="M155,107.1c-.8,0-1.5,0-1.9,0-.5.8-1.1,1.9-2.1,3.5,15.6,0,29.8,1.3,45.5,4.1l-4.4,4.3c-14.2-2.5-25.9-3.5-40.9-3.5s-2.6,0-3.2,0c-.5.8-1.7,2.3-2.9,3.7,1.3,0,3.9-.1,7.5-.1,12.3,0,23.8.9,36.3,2.9l-4.4,4.3c-9.5-1.5-21.1-2.3-31.6-2.3s-7.9.1-11.7.3c-.9,1-3.1,3.4-3.8,4.1,5-.5,10.5-.8,17-.8,9.3,0,18.2.6,26.6,1.9l-4.4,4.3c-6-.7-13.3-1.2-19.7-1.2-16.6,0-29.7,3.6-43.2,11.9,12.9,13.8,34,22.6,54.5,22.6h1.9l-7.2,6.9c-29.5-5.5-60.6-18.5-86.8-36.3-25.2-17-34.1-22.1-53.8-30.8v-5.1c-.1,0,13.2,5.7,13.2,5.7l4.5-3.6,43.5,19.9-2.8,2.3-22.3-9.7-2.2,1.7,11.6,6.5c9.8,5.5,17.3,7.9,24.1,7.9,15.1,0,28.6-10.7,37.3-29.5,6.6-.9,13.6-1.2,22-1.2,17.3,0,34.1,1.7,53.1,5.2l-4.6,4.5c-11.8-2.5-31.9-4.5-44.7-4.5M112.7,231.4c-56.6,0-102.5-45.9-102.5-102.5S56.1,26.3,112.7,26.3s102.5,45.9,102.5,102.5-45.9,102.5-102.5,102.5M112.7,19.7C52.4,19.7,3.6,68.5,3.6,128.8s48.8,109.1,109.1,109.1,109.1-48.8,109.1-109.1S173.1,19.7,112.7,19.7M400.9,172.2h62.5v29.3h-96.2V56.1h33.7v116.2ZM539.1,96.8h31.4v104.7h-29.5v-12.1c-4.4,8.1-13.3,15.2-29.7,15.2-26.8,0-40.7-12.1-40.7-46.5v-61.3h31.4v59.8c0,13.9,6,20.2,18.7,20.2s18.5-6.2,18.5-20.2v-59.8ZM594.6,92.9c0-25.4,16-38.9,41.1-38.9s13.3,1.2,13.3,1.2v25.4s-4.4-.4-8.1-.4c-9.8,0-15,3.3-15,12.5v4.2h23.1v25.6h-23.1v79.2h-31.4v-79.2h-15.8v-25.6h15.8v-3.9M704.3,96.8h23.9v25.6h-23.9v40.7c0,11.2,5.8,14.1,15,14.1s8.9-.6,8.9-.6v25.1s-7.3,1.7-15,1.7c-25.1,0-40.3-11.4-40.3-36.8v-44.3h-15.8v-25.6h15.8v-30.5h31.4v30.5ZM797.7,93.7c26.6,0,40.5,12.1,40.5,46.5v61.3h-31.4v-59.8c0-13.9-6-20.2-19.1-20.2s-18.9,6.2-18.9,20.2v59.8h-31.4V56.3h31.6v50.7c5.4-7.7,13.9-13.3,28.7-13.3M918.2,160.8c0,11.4-10.8,19.9-27.4,19.9s-12.9-3.7-12.9-10.8,3.3-10,13.9-11.4l18.1-2.5c3.1-.4,6.4-1,8.3-1.7v6.4ZM900.7,93.7c-31,0-45.9,11.8-47.2,34.1h30.5c.4-5.8,3.7-10.2,16.6-10.2s16.8,3.7,16.8,9.4-3.1,6.9-10.8,7.7l-19.9,2.1c-27,2.9-39.3,14.1-39.3,34.5s11.6,33.5,36.4,33.5,26.8-5.4,35.5-16.2v13.1h28.7v-68.8c0-28.9-16.8-39.1-47.4-39.1M1020.7,93.7c27.2,0,41.1,12.1,41.1,46.5v61.3h-31.4v-59.8c0-13.9-6-20.2-19.1-20.2s-18.9,6.2-18.9,20.2v59.8h-31.4v-104.7h29.5v12.1c4.4-8.1,13.3-15.2,30.1-15.2M1128,135.9c26.6,3.5,39.9,11.8,39.9,33.7s-15.6,35.1-48.6,35.1-48.6-14.3-49.2-35.3h31c.8,7.7,6.2,11.4,18.3,11.4s17.2-2.9,17.2-8.7-4.2-7.9-15-9.4l-11-1.5c-23.1-3.1-36.4-12.1-36.4-32.8s14.8-34.7,45.7-34.7,44.1,11.4,45.5,34.1h-30.5c-1-6-4.4-9.8-15-9.8s-14.3,3.5-14.3,8.1,2.5,7.1,11.4,8.3l11,1.5M1246.4,160.8c0,11.4-10.8,19.9-27.4,19.9s-12.9-3.7-12.9-10.8,3.3-10,13.9-11.4l18.1-2.5c3.1-.4,6.4-1,8.3-1.7v6.4ZM1229,93.7c-31,0-45.9,11.8-47.2,34.1h30.5c.4-5.8,3.7-10.2,16.6-10.2s16.8,3.7,16.8,9.4-3.1,6.9-10.8,7.7l-20,2.1c-27,2.9-39.3,14.1-39.3,34.5s11.6,33.5,36.4,33.5,26.8-5.4,35.5-16.2v13.1h28.7v-68.8c0-28.9-16.8-39.1-47.4-39.1"></path>
      </g>
    </g>
  </g>
</svg>