<svg viewBox="0 0 424.6 108.9" version="1.1" xmlns="http://www.w3.org/2000/svg">
  
  <g>
    <g id="svg2347">
      
      <path d="M57.5,107.4c-1.9-1.4-1.8-1.7,1.9-16.4,2.1-8.3,4-17.6,4.3-20.8l.5-5.8-5,9.7c-8.9,17.2-15.4,25.6-23.9,30.5-5.3,3.1-15.1,4.2-21.7,2.3-13.4-3.8-18.2-21.7-8.2-30.9,6-5.5,23.2-3.3,21.2,2.7-.6,2-1.2,2.2-5.1,1.6-3.8-.6-4.7-.3-6.9,1.9-2,2-2.6,3.6-2.6,7s.5,4.9,3.1,7c5.3,4.5,13.5,3,20-3.6,4.5-4.6,12.3-18.9,22.3-41.1,10.4-23,16.6-35.5,22.1-43.9C84.5,0,85.2-.6,88.5.3c3.7.9,3.9,4.3.7,11.6-6.2,13.8-10.6,29.9-11.8,43l-.7,7.5,9.8-14c12.4-17.8,19.6-26.7,30.8-38.2,7.2-7.4,9.6-9.2,11.8-9.2,3.6,0,4.7,2.5,2.6,5.9-.9,1.4-5.9,9.8-11.3,18.6-19.8,32.6-28.7,56.6-25.6,68.3,1.4,5.1,3.7,5.9,9.3,3.3,6.1-2.8,9.2-6,12.8-13.2,6.6-13.1,19.7-22.9,30.4-22.9s6,.6,7.1,1.4c1.7,1.2,2.3,1.2,3.9,0,2.5-1.8,7-1.8,8.5,0,1,1.2.2,3.5-4.3,12.2-3,5.9-6.6,12.7-7.8,15-1.3,2.3-2,4.5-1.6,4.9,2.3,2.3,12.6-8.7,23.2-24.6,3.6-5.5,3.7-5.6,2.2-9.2-2-4.7-2-14,0-17.7,1.6-3.2,6.1-6,9.5-6s3.4,1.3,5,2.9c2.4,2.4,2.9,3.8,2.9,7.5s-.9,6.3-2,8.5c-2.6,5.2-2.6,5.4,1.4,4.7,4.1-.7,7.6,1.5,7.6,4.6s-3.2,6.2-7.1,11.2c-13.2,16.8-15.4,25.2-5.3,21,6.5-2.7,9.9-6,25.4-25,11.3-13.9,15.7-18.5,17.3-18.5,2.6,0,6.7,2.6,6.7,4.2s-1.9,3.6-4.2,6.6l-4.2,5.5,1.3,4.6c.7,2.5,1.5,6.5,1.8,8.8s.7,4.2.9,4.2,3.1-1.8,6.2-4c4.6-3.2,6.3-5.2,8.3-9.8,11.2-24.9,20.1-44.1,21.3-46,1.7-2.7,7.4-3.1,9.4-.7,1.3,1.6,1.3,1.7-9.4,26.8l-4.6,10.8,4.3-2.5c4.7-2.8,8.4-3.2,10.8-1.3,2.3,1.8,3.8,7.4,3.1,11-.6,3.3-5.4,13.2-9.8,20.5-1.6,2.5-2.1,4.2-1.4,4.2,2.7,0,9.8-7.2,12.4-12.6,3.5-7.2,14.3-18.2,21-21.5,6.3-3.1,14.3-3.3,17.4-.5,1.8,1.6,2.2,1.7,2.7.3,1.3-3.3,10.4-2.8,10.4.6s-3.1,7.5-7,14.9c-3.8,7.4-7,14.5-7,15.7,0,3.8,2.7,3.5,8-.9,4.1-3.4,6-6.2,9.9-14.4,9.7-20.2,24.5-38.9,38-47.9,7.9-5.3,15-4.7,15,1.2s-6.5,17.1-10.9,23.5c-4.5,6.6-14.7,16.1-24.2,22.6-10.4,7.1-10.8,7.6-11.5,13.1-.7,5.4,1.8,8.6,6.1,7.5,4.5-1.1,13.6-11.6,19.5-22.2,7.7-14,11.5-19.9,17.9-27.8,6.7-8.2,20.9-20.2,25.1-21.1,4.1-.9,6.9.2,7.6,2.8.7,2.8-3.3,13.8-7.7,21.4-4.2,7.1-17.9,20.9-28.2,28.3-8.1,5.8-9.7,8.7-8.3,14.5,1.9,7.4,10.4,4.3,19.7-7.1,5.4-6.7,6.3-7.3,7.6-6,2.2,2.2,1,5.1-4.9,13-5.6,7.4-13.3,13.2-19,14.2-6.3,1.1-13-3.3-15.2-10-.2-.5-1.9.5-3.8,2.3-4.7,4.5-12.6,8.2-17.2,8.2s-4.6-.7-6.8-2.9c-1.6-1.6-2.9-3.9-2.9-5s-.2-2.1-.5-2.1-2.9,1.8-5.8,3.9c-8.8,6.6-13.4,7.2-17.6,2l-1.7-2.1-3.5,2c-1.9,1.1-5.6,2.5-8.2,3.1-5.5,1.2-9.7,0-13.6-4.3l-2.4-2.6-4,2.9c-6.1,4.4-10.1,5.4-13.7,3.5-3.8-1.9-6.1-5.3-6.1-8.5,0-1.4,2.7-7.7,6-14,3.3-6.3,6-11.8,6-12.2,0-1.9-2.9-.5-7.9,4-4.7,4.2-6.2,6.5-11.1,17.2-6.4,14.2-8.9,16.7-13.8,13.9-2.9-1.6-3.5-5.2-1.8-9.3.5-1.2-1.7-.1-6.4,3.2-12,8.4-21.6,9.1-28.2,2l-2.7-2.9-5.3,3.2c-3.8,2.3-7,3.3-11,3.6-5.3.4-5.9.2-8.8-2.6-2.2-2.2-3-4-3-6.5,0-4.8,5.9-16.1,12-22.9,3.2-3.6,4.7-5.9,4-6.4-1.3-.8-.9-1.4-10.4,11.9-10.5,14.6-16.6,21-22.7,24.1-6.2,3.1-10.4,3.3-13.3.5l-2.2-2.1-4.1,2.1c-5.3,2.7-12.6,2.7-16.9,0-1.8-1.1-3.5-2.7-3.8-3.5-.5-1.2-1.4-.9-4.8,1.4-7.1,4.9-15.8,6.1-21.8,2.9-4.6-2.4-6.4-12.7-4.5-26.8l.7-5.5-3.1,5.5c-8.7,15.3-19,29-21.8,29s-1.5-.6-2.6-1.4ZM220.5,98.4c2-2,2.5-3.5,2.4-7.7,0-6.1-.9-10-2.1-9.6-1.8.6-9.9,11.3-9.9,13.1s4.2,6.7,6,6.7,2.2-1.1,3.5-2.5ZM308.7,93.4c8.3-7.1,14.2-24.5,8.6-25.3-7.4-1.1-21.4,14.8-21.6,24.6-.2,7,5.3,7.3,13,.8ZM136.2,95c6.8-4.3,12.4-13.2,13.5-21.6.7-5-.6-6.3-5-5.2-9.2,2.3-22.9,23-18.7,28.1,1.9,2.2,5.1,1.8,10.1-1.4ZM367.8,61.1c7.1-7,17.6-22.2,15.3-22.2s-4.4,3.8-8.7,8.3c-7.6,8-17.2,21.7-15.3,21.7s4.5-3.5,8.8-7.8ZM400.5,59.4c4.9-4.5,14.8-20.5,12.7-20.5s-23.2,25.7-23.2,29.3,2.1-.9,4.7-3.4c2.6-2.5,5.2-4.9,5.8-5.5ZM187.9,51.8c1-2.8.1-6.9-1.4-6.9s-2.5,4.5-2,7.1c.8,3.8,2,3.7,3.4-.2Z" id="path2356"></path>
    </g>
  </g>
</svg>