<svg viewBox="0 0 997.3 1000" version="1.1" xmlns="http://www.w3.org/2000/svg">
  <defs>
    <style>
      .cls-1 {
        fill: #fff;
      }
    </style>
  </defs>
  
  <g>
    <g id="Layer_1">
      <g>
        <polygon points="51.1 614.1 20.5 644.6 62 658.3 51.1 614.1"></polygon>
        <polygon points="66.1 673.6 42.6 707 76.4 709.3 66.1 673.6"></polygon>
        <polygon points="35.5 557.3 4.5 584.6 47 600.4 35.5 557.3"></polygon>
        <polygon points="100 711.2 30.4 536.3 0 520.5 46.3 491.2 1.6 456.9 50.8 432.6 9.3 395.2 63.5 378.2 26.5 336 81.3 323.8 51.5 277.4 106.3 271.8 81.7 220.8 139.3 222.4 122.7 172 179.1 176.7 167.3 125 220.2 140.7 216.1 85.3 268.7 107.7 272.6 54.3 320.1 84.1 328.7 29.2 372.4 63.5 389 12.2 427.7 51.7 449.4 3.4 484 45.7 511.4 0 540.4 46.3 572.8 4.8 594.9 54.2 634.9 15.7 650.3 69.3 693.9 36.5 703.4 90.7 749.5 64.6 751.4 120.8 802.1 98.9 797.5 156.2 852.4 142 838 194.9 891.3 189.8 872.5 239.6 929.5 241.8 902.6 289.2 956.5 293.3 923 336.6 976.4 352.3 940.1 391.8 989.5 415.2 948.9 449.8 995.5 480.5 952.2 505.7 995.4 540.5 947.2 563.1 987.2 604.7 935.5 621.2 968.5 664.8 916.3 676.7 946.8 728.1 888.8 728 912.3 778.2 857.4 776.3 874.4 828.7 821.5 817.1 833.3 871.9 778.8 856.1 782.8 908.7 732.3 887.9 731.2 944.9 684.5 915.8 674.3 967.5 630.8 935.3 613.5 986.6 573 948.2 553.2 996.8 516.6 954.7 489.2 1000 459.6 953 426.2 994.6 404.2 942.9 365.7 983.2 349.2 929.1 304.6 964.5 297.3 908.6 252 936.9 251.7 881.4 199.4 902.5 206.1 847.6 150.3 861.5 165.2 809.6 110.3 816.3 128.6 764.9 72.6 762.2 100 711.2"></polygon>
        <path d="M876.8,918c-.1-27.8,22.4-48.2,49-48.3,26.3,0,48.8,20.4,48.8,48.3.1,28-22.4,48.4-48.7,48.4s-49.1-20.4-49.1-48.4M925.9,958.4c21.9,0,39.1-17.2,39.1-40.3s-17.4-40.2-39.2-40.2-39.4,17.3-39.4,40.2c0,23.3,17.3,40.3,39.5,40.3M915.6,946h-8.4v-55.8c-.1,0,21.1,0,21.1,0,13.2,0,19.8,4.7,19.8,15.9s-6.2,14.3-14.4,15.3l15.9,24.6h-9.5l-14.8-24.2h-9.7v24.2h0ZM925.7,914.7c7.2,0,13.7-.7,13.7-9.3-.1-6.8-6.5-8.1-12.3-8.1h-11.5v17.4h10.1Z"></path>
        <polygon points="25.3 520 72.4 507.3 166.3 646 166.9 645.8 177.2 479 223.8 466.5 276.3 661.9 244.5 670.5 204 519.5 203.3 519.7 190.7 684.9 163.2 692.3 69.6 555.8 69.1 555.8 109.5 706.7 77.6 715.2 25.3 520" class="cls-1"></polygon>
        <path d="M308.3,443.7l35.8-9.4,126.2,175.4-35.9,9.6-31.9-46.8-76.4,20.4-4.2,56.7-34.5,9.2,21-215.2ZM328.2,564.6l58.5-15.7-51.4-76.2h-.2l-.5.2-6.3,91.7Z" class="cls-1"></path>
        <polygon points="368.8 427.6 523.8 385.8 531.8 415.3 470.9 431.7 515.5 597.5 481.9 606.5 437.3 440.8 376.7 457.1 368.8 427.6" class="cls-1"></polygon>
        <polygon points="495.9 393.4 651 351.8 658.9 381.3 598 397.6 642.6 563.4 609.1 572.3 564.6 406.7 504 423 495.9 393.4" class="cls-1"></polygon>
        <polygon points="663.5 348.5 796.7 312.4 804.6 342 704.8 369 718.6 420.1 810.7 395.3 818.1 423.2 726.1 448 741.5 505.1 843 477.6 851.1 507.3 716 543.7 663.5 348.5" class="cls-1"></polygon>
        <polygon points="813.8 308 847.3 299 891.9 464.7 989.2 438.6 997.3 468.1 866.2 503.3 813.8 308" class="cls-1"></polygon>
      </g>
    </g>
  </g>
</svg>