<svg viewBox="0 0 400 80.6" version="1.1" xmlns="http://www.w3.org/2000/svg">
  
  <g>
    <g id="svg34">
      
      <path d="M296.2,42.3v.3c0,3.6,2.3,5.4,4.3,7l.5.4c1.8,1.4,2.9,2.9,2.9,4h0c0,1.7-.7,2.1-1.5,2.1s-1.5-.7-1.5-2.1v-1.7h-5v1.5c0,3.7,2.6,6.1,6.5,6.1s6.6-2.2,6.6-6v-.2c0-3.6-1.6-5-4.2-7.2l-.4-.3-.7-.6c-1.3-1-2.3-2-2.3-3.3h0c0-.8.2-2,1.5-2s1.4,1.4,1.4,2.2v1.5h4.8v-1.6c0-3.8-2.4-6.2-6.2-6.2s-6.6,1.9-6.6,6.1h0ZM322.1,36.6v3.9h3.7v18.9h5.1v-18.9h3.2v-3.9h-12,0ZM343.3,36.6v17.3c0,1.7-.9,2-1.5,2-.9,0-1.5-.7-1.5-2v-17.3h-5v17.9c0,3.3,2.6,5.4,6.5,5.4s6.5-2.1,6.5-5.4v-17.9h-5.1ZM376,36.6l.3,16.3h-.1l-3.9-16.3h-6.6v22.8h5l-.4-16.4h.1l3.9,16.4h6.6v-22.8h-4.9,0ZM313.5,36.6l-4.2,22.8h5.2l2.2-17.7h.2l2.1,17.7h5.2l-4.2-22.8h-6.7ZM356.3,47.8v.3l2.8,11.2h5.2l-3-9.9h0c0,0,.1-.1.1-.1,1.4-1.1,2.2-3.2,2.2-5.7v-.4c0-2.1-.7-3.8-1.9-5-1.2-1.1-2.7-1.7-4.6-1.7h-6.5v22.8h5v-19.1h.8c1.9,0,2.2,1.9,2.3,3.2v1.1c-.1,2.2-1.1,3-1.9,3.1h-.4c0,0,0,.1,0,.1Z" id="path8"></path>
      <path d="M282.9,47.2s0,.5,0,.8v.6h0c2.7,2.3,5.6,5.4,6.1,7.7.1.6.1,1.2-.1,1.7-.3.6-.8,1-1.6,1.2-3.9,1.3-13.3-1.2-20.9-5.1-5.5-2.7-10.2-6-13.5-9.1-3-2.9-3.8-5.2-3-6.6.3-.5.8-.9,1.5-1.2,2.5-1,7.3-.3,12,1.1-2.2,1.7-3.8,3.9-4.5,6.2h0c-.2,2.1,2.8,4.8,5.7,6.3,0,0,.2,0,.2,0,0,0,0-.2,0-.2-.7-5.1,3.2-12.9,7.2-14.5.3-.1.5-.2.5-.2,0,0-.5,0-.5,0-.3,0-.6,0-1,0-2.5,0-4.7.6-6.5,1.7-7.8-2.7-13.6-3-16-2.2-.9.3-1.6.8-1.9,1.5-.3.7-.3,1.5,0,2.5,1.1,3.3,5.9,7.8,11.9,11.8.9,4.7,5,9.4,10.9,10.1h.3s.1,0,.1,0l-.3-.3c-1.8-1.4-3.5-3.8-4.1-5.8l.4.2s.2,0,.3.1c9.6,4.8,19.6,7.2,24,5.7,1-.3,1.7-.8,2.1-1.5.3-.7.3-1.5,0-2.5-.8-2.5-4.4-6.4-9-9.8-.1,0-.2-.1-.3-.2h0Z" id="path10"></path>
      <polygon points="251.8 15.9 248.7 19.5 396.4 19.5 396.4 77 180 77 193.4 61.4 188.6 61.4 172.2 80.6 400 80.6 400 15.9 251.8 15.9"></polygon>
      <path d="M213,61.6H0V0h265.7l-52.7,61.6h0ZM.5,61.1h212.3L264.6.5H.5v60.6Z" id="path14"></path>
      <path d="M258.4,3.4l-46.9,54.9H3.3V3.4h255.1M265.1.3H.3v61.1h212.6L265.1.3Z" id="path18"></path>
      <path d="M183.7,26.7c0-.1,0-.2-.1-.3-.1-.1-.2-.2-.4-.2h-2.7c-.2,0-.5.2-.5.4l-.2,1c-.6-.5-1.2-.9-2-1.2h-.3c0-.1,0-.1-.1-.2-2.9-.7-5.8.2-8.2,2.5-1.2,1.1-2.1,2.4-2.7,3.8l2.7-14.6c0-.1,0-.3,0-.3,0-.1-.2-.1-.3-.1h-3.5c-.1,0-.2,0-.3.1,0,0-10.7,14.4-12.4,16.3.6-2.4,2.8-16,2.8-16h0c0-.2,0-.3,0-.4,0-.1-.2-.1-.3-.1h-3.7c-.1,0-.2,0-.3.1l-17.9,21.2c-.3-3.1-1.7-6.4-1.7-6.4-2.3-4.9-7.5-6.6-10.6-3.9-.2,0-.3.1-.5.2,2.3-3.3,7.7-3,11.2,1.1,0,0,1.6,2,2.7,4.9.3-1,.5-2.1.5-3.2-1.9-2.6-4-4.1-4-4.1-4.4-3-9.6-1.9-11,1.8-.2.2-.3.4-.4.6.4-4,5.2-6.5,10.2-4.8,0,0,2.4.9,4.9,2.9,0-.2,0-.3-.1-.5-.3-1.1-.6-2.1-1.1-3-2.9-1.3-5.4-1.5-5.4-1.5-5.4-.4-9.4,3.5-8.6,7.6v.2c0,.1,0,.2,0,.4-1.8-3.7,1.1-8.5,6.4-9.6,0,0,2.5-.4,5.5,0-.8-.8-1.7-1.6-2.6-2.2-3.1.4-5.4,1.5-5.4,1.5-4.9,2.4-6.5,7.8-3.7,11,0,.2.2.4.3.5-3.4-2.3-3.2-7.9.9-11.6,0,0,1.9-1.6,4.8-2.8-1.2-.4-2.4-.5-3.6-.5-2.4,1.9-3.8,3.9-3.8,3.9-3.1,4.6-1.8,10.2,2.2,11.4h0c.1.1.2.2.4.3-4.1-.2-6.7-5.2-4.9-10.5,0,0,.8-2.3,2.6-4.7-1,.3-2,.7-2.9,1.2-1.2,2.8-1.4,5.3-1.4,5.3-.4,5.5,3.3,9.6,7.3,8.8h.2c.1,0,.3,0,.4,0-3.6,1.8-8.3-1.2-9.3-6.6,0,0-.4-2.5,0-5.5-.9.9-1.6,1.8-2.3,2.9.4,3,1.4,5.2,1.4,5.2,2.4,5,7.7,6.7,10.8,3.8h0c.1-.1.3-.2.4-.3-2.2,3.5-7.8,3.4-11.3-.9,0,0-1.7-2.4-2.7-5.1,0-.1-.1-.3-.2-.3-.1-.1-.3-.1-.4-.1h-2.7c-.2,0-.4.1-.6.4,0,0-.1.3-.2,1-.6-.5-1.3-.9-1.9-1.1,0,0-.3-.1-.4-.1-2.9-.7-5.8.2-8.2,2.5-1.4,1.3-2.4,2.9-3,4.6,0,0,0,0,0,.1l1.2-6.7c0-.2,0-.3-.1-.4-.1-.1-.2-.2-.4-.2h-3c-.2,0-.5.2-.5.4l-2.9,16.4c0,.2,0,.3.1.4.1.1.2.1.4.1h2.9c.2,0,.5-.1.5-.3l1.2-6.7s0,1.4.2,2.1c.4,2.5,2.6,4.8,5,5.3,2,.4,4.2-.1,6.4-1.5,0,.2-.1.6-.1.6h0c0,.2,0,.3.1.4.1.1.3.2.4.2h2.6c.2,0,.5,0,.5-.3l2.3-12.9c1.8,2.1,4,3.9,4,3.9,4.4,3,9.6,1.9,11-1.9.1-.2.3-.3.3-.5-.4,4-5.2,6.5-10.2,4.8,0,0-2.2-.8-4.6-2.7,0,0,0,.2,0,.3.3,1.1.7,2.2,1.2,3.1,2.7,1.2,5.1,1.4,5.1,1.4,5.4.4,9.4-3.4,8.6-7.5,0-.1,0-.3,0-.4h0c1.7,3.6-1.2,8.2-6.5,9.3,0,0-2.3.4-5.3,0,.7.8,1.5,1.4,2.4,2,3-.4,5.3-1.4,5.3-1.4,4.8-2.4,6.4-7.6,3.9-10.8,0-.2-.2-.4-.4-.6,3.3,2.3,3,7.9-1,11.5,0,0-2,1.7-4.9,2.8,1.1.4,2.3.6,3.5.7,2.5-1.9,4-4.1,4-4.1,3-4.6,1.8-10.2-2.2-11.4-.2-.1-.3-.2-.5-.3,4.1.2,6.7,5.2,4.9,10.5,0,0-.9,2.5-2.9,5,.2,0,.3,0,.5-.1,1-.3,1.9-.6,2.8-1.1,1.2-2.9,1.5-5.5,1.5-5.5.4-5.4-3.2-9.5-7.1-8.9-.2,0-.3,0-.5,0h-.1c3.6-1.6,8.1,1.4,9.1,6.7,0,0,.6,2.5.2,5.5,0,.4-.3,1.1-.6,1.7-.1.2-.2.4-.4.7h0c0,.1,0,.3,0,.4,0,.1.2.2.3.2h4.2c.1,0,.2,0,.3-.1,0,0,13.8-15.3,15.4-17.2-.6,3.2-1.8,11-3,16.9h0c0,.2,0,.3,0,.3,0,.1.2.1.3.1h3.3c.1,0,.2,0,.3-.1,0,0,11.1-15.2,12.8-17.2-.7,3.2-1.9,11.1-3,16.9h0c0,.2,0,.3,0,.3,0,.1.2.2.3.2h3.2c.2,0,.3-.1.4-.3l1.2-7.1v.4c0,.7-.2,1.3-.1,2,.4,2.5,2.6,4.8,5,5.3,2,.4,4.2-.1,6.4-1.5,0,.2-.1.6-.1.6h0c0,.2,0,.3.1.4.1.1.2.1.4.1h2.6c.2,0,.5-.1.5-.3l2.4-13,.6-3.5h0ZM104.1,35.3c-.6,2.1-2.4,4.1-4.4,4.6-1.5.3-2.7.1-3.5-.4-.8-.6-1.2-1.5-1.5-2.4-.1-.4-.1-.6-.1-.9,0-2,1-3.8,2.9-5.3,1.1-.8,2.5-1.1,3.8-.8.7.2,1.7.6,2.3,1.8.3.6.5,1.4.5,2.2s0,.8-.2,1.2M178.9,35.3c-.6,2.1-2.6,4.2-4.5,4.7-1.5.2-2.6,0-3.3-.4-.8-.6-1.3-1.5-1.5-2.4,0-.3,0-.6,0-.9,0-2,1-3.8,2.9-5.3,1.1-.8,2.5-1.1,3.8-.8.7.2,1.7.6,2.3,1.8.3.6.5,1.4.5,2.2s0,.8-.2,1.2" id="path20"></path>
      <path d="M212.8,26.4c-.1-.1-.2-.2-.4-.2h-3c.2-.9.8-4.5.8-4.5h0c0-.2,0-.3-.1-.4-.1-.1-.2-.2-.4-.2h-3c-.2,0-.5.2-.5.4,0,0-.7,4-.8,4.7h-1.7c-.2,0-.3,0-.4.2-.1-.1-.2-.2-.4-.2h-3.4c-.1,0-.3,0-.4.2,0,0-2.4,3.1-3.8,4.7.4-2.5,1.7-9.4,1.7-9.4h0c0-.2,0-.3-.1-.4-.1-.1-.2-.2-.4-.2h-2.9c-.2,0-.5.2-.5.4,0,.4-.5,2.3-.9,4.8h0c-.1-.1-.2-.2-.4-.2-1.2,0-2.6.5-3.5,1.2v-.4c0-.2,0-.3,0-.4s-.2-.2-.4-.2h-2.7c-.2,0-.5.1-.5.4v.4c0,0-2.9,16-2.9,16,0,.2,0,.3.1.4.1.1.3.2.4.2h2.5c.2,0,.4-.2.5-.4l2-9.9c.6-2.5,2.3-3.3,3.7-3.5,0,0,.4,0,.4,0-1,6-2.2,13.1-2.2,13.2,0,.2,0,.3.1.4.1.1.2.2.4.2h2.9c.2,0,.4-.1.5-.4,0-.3.8-4.4,1.2-6.8,1.1,1.6,4.2,7,4.2,7,.1.1.3.2.4.2h3.2s.1,0,.2-.1c0,0,.2.1.2.1h3.3c.2,0,.5-.2.5-.4,0,0,2.2-12.4,2.4-13.2h3.2c.2,0,.5-.2.5-.4l.4-2.7h0c0-.2,0-.3-.1-.4M202.5,42.2c-1.2-2-4.5-7.6-4.9-8.1.4-.5,4.6-5.7,5.4-6.8l-.4,2c0,.2,0,.3.1.4.1.1.2.2.4.2h1.5c-.1.9-1.8,9.5-2.2,12.2" id="path22"></path>
      <path d="M88.7,21.2c-.1-.1-.2-.2-.4-.2h-2.7c-.2,0-.5.2-.5.4,0,0-.9,4.6-1.2,6.1-.6-.5-1.3-.9-1.9-1.1h-.3c0-.1,0-.1-.1-.2-2.9-.7-5.8.2-8.2,2.5-1.4,1.3-2.4,2.9-3,4.6,0-1.4-.4-2.8-.9-3.8,0,0,0,0,0,0-1.4-2.4-3.7-3.5-6.7-3.4h0c-3.3.4-6.7,2.7-8.3,5.9,0,0,0,.1,0,.1l2.5-14.2c0-.1,0-.2,0-.3,0-.1-.2-.1-.3-.1h-3.5c-.1,0-.2,0-.3.1,0,0-10.8,14.4-12.5,16.3.5-2.4,2.8-16,2.8-16h0c0-.2,0-.3,0-.3,0-.1-.2-.1-.3-.1h-3.4c-.1,0-.2,0-.3.1l-21.4,25.2c-.1.1-.1.3,0,.4,0,.1.2.3.3.3h4.3c.1,0,.2,0,.3-.1,0,0,13.5-15.7,15.1-17.7-.6,3.2-1.9,11.5-3.1,17.3h0c0,.2,0,.3,0,.3,0,.1.2.2.3.2h3.3c.1,0,.2,0,.3-.1,0,0,11.3-15.7,12.9-17.7-.7,3.2-1.8,11.6-3.1,17.4h0c0,.2,0,.3,0,.3,0,.1.2.1.3.1h3.2c.2,0,.3-.1.4-.3l1.2-6.7c0,1.4.3,2.8.9,4,1.2,2.1,3.3,3.4,5.9,3.5,3.6,0,7.1-2.3,8.7-5.6,0-.2,0-.4,0-.5-.1-.2-.3-.2-.4-.2h-2.7c-.1,0-.3,0-.4.2-1.3,1.5-2.8,2.3-4.3,2.3-1.6,0-3-.9-3.6-2.3,0,0,0-.2,0-.2,0-.3-.1-.5-.1-.7h0c.6-.1,12.3-.1,12.3-.1.1,0,.3,0,.3-.1,0,.7,0,1.3.2,2,.4,2.5,2.6,4.8,5,5.3,2,.4,4.2-.1,6.4-1.5,0,.2-.1.6-.1.6h0c0,.2,0,.3.1.4.1.1.2.1.4.1h2.6c.2,0,.5-.1.5-.3l3.9-21.5c0-.2,0-.3-.1-.4M58.4,32.9c.8-1.5,2.5-2.5,4-2.7,1.6-.1,2.3.3,3,.9.6.7.9,1.2,1,1.8h-7.9M83.1,34.2c0,.5,0,.8-.2,1.2-.5,2.2-2.5,4.1-4.4,4.6-1.5.3-2.7.1-3.4-.4-.8-.6-1.3-1.5-1.5-2.4,0-.4,0-.6,0-1,0-2,1.1-3.8,2.9-5.3,1.1-.8,2.5-1.1,3.8-.8.7.2,1.6.7,2.3,1.8.4.6.5,1.4.5,2.2" id="path26"></path>
      <path d="M89.5,25.7h2.9c.2,0,.5-.3.5-.5l.6-3.5c0-.2,0-.3-.1-.4s-.2-.2-.4-.2h-3c-.2,0-.5.2-.5.4l-.6,3.5c0,.2,0,.4.1.5s.2.2.4.2" id="path28"></path>
    </g>
  </g>
</svg>