<svg viewBox="0 0 482 216" version="1.1" xmlns="http://www.w3.org/2000/svg">
  
  <g>
    <g id="MS-symbol">
      <path d="M212.3,86.4v43.2h-7.5v-33.9h-.1l-13.4,33.9h-5l-13.7-33.9h0v33.9h-6.9v-43.2h10.8l12.4,32h.2l13.1-32h10.3ZM218.6,89.7c0-1.2.4-2.2,1.3-3s1.9-1.2,3.1-1.2,2.4.4,3.2,1.3c.8.8,1.3,1.8,1.3,3s-.4,2.2-1.3,3c-.9.8-1.9,1.2-3.2,1.2s-2.3-.4-3.1-1.2c-.9-.8-1.3-1.8-1.3-3ZM226.7,98.6v31h-7.3v-31h7.3ZM248.8,124.3c1.1,0,2.3-.3,3.6-.8,1.3-.5,2.5-1.2,3.6-2v6.8c-1.2.7-2.5,1.2-4,1.5-1.5.3-3.1.5-4.9.5-4.6,0-8.3-1.4-11.1-4.3-2.9-2.9-4.3-6.6-4.3-11s1.5-9.1,4.4-12.3c2.9-3.2,7-4.8,12.4-4.8s2.7.2,4.1.5c1.4.4,2.5.8,3.3,1.2v7c-1.1-.8-2.3-1.5-3.4-1.9-1.2-.5-2.4-.7-3.6-.7-2.9,0-5.2.9-7,2.8-1.8,1.9-2.7,4.4-2.7,7.6s.8,5.6,2.5,7.3c1.7,1.7,4,2.6,6.9,2.6ZM276.7,98.1c.6,0,1.1,0,1.6.1s.9.2,1.2.3v7.4c-.4-.3-.9-.5-1.7-.8-.7-.3-1.6-.4-2.7-.4-1.8,0-3.3.8-4.5,2.3s-1.9,3.8-1.9,7v15.6h-7.3v-31h7.3v4.9h.1c.7-1.7,1.7-3,3-4,1.3-1,3-1.4,4.9-1.4ZM279.9,114.6c0-5.1,1.4-9.2,4.3-12.2,2.9-3,6.9-4.5,12.1-4.5s8.6,1.4,11.3,4.3c2.7,2.9,4.1,6.8,4.1,11.7s-1.4,9-4.3,12c-2.9,3-6.8,4.5-11.8,4.5s-8.6-1.4-11.4-4.2c-2.8-2.8-4.2-6.7-4.2-11.6ZM287.5,114.3c0,3.2.7,5.7,2.2,7.4,1.5,1.7,3.6,2.6,6.3,2.6s4.7-.9,6.1-2.6c1.4-1.7,2.1-4.2,2.1-7.6s-.7-5.8-2.2-7.5c-1.4-1.7-3.4-2.5-6-2.5s-4.7.9-6.2,2.7c-1.5,1.8-2.2,4.3-2.2,7.6ZM322.5,106.8c0,1,.3,1.9,1,2.5.7.6,2.1,1.3,4.4,2.2,2.9,1.2,5,2.5,6.1,3.9,1.2,1.5,1.8,3.2,1.8,5.3s-1.1,5.3-3.4,7c-2.2,1.8-5.3,2.7-9.1,2.7s-2.7-.2-4.3-.5c-1.6-.3-2.9-.7-4-1.2v-7.2c1.3.9,2.8,1.7,4.3,2.2,1.5.5,2.9.8,4.2.8s2.9-.2,3.6-.7,1.2-1.2,1.2-2.3-.4-1.9-1.2-2.5-2.4-1.5-4.6-2.4c-2.7-1.1-4.6-2.4-5.7-3.8-1.1-1.4-1.7-3.2-1.7-5.4s1.1-5.1,3.3-6.9c2.2-1.8,5.1-2.7,8.6-2.7s2.3.1,3.6.4c1.3.2,2.5.6,3.4.9v6.9c-1-.6-2.1-1.2-3.4-1.7-1.3-.5-2.6-.7-3.8-.7s-2.5.3-3.2.8c-.8.5-1.2,1.3-1.2,2.2ZM338.9,114.6c0-5.1,1.4-9.2,4.3-12.2,2.9-3,6.9-4.5,12.1-4.5s8.6,1.4,11.3,4.3c2.7,2.9,4.1,6.8,4.1,11.7s-1.4,9-4.3,12c-2.9,3-6.8,4.5-11.8,4.5s-8.6-1.4-11.4-4.2c-2.8-2.8-4.2-6.7-4.2-11.6ZM346.5,114.3c0,3.2.7,5.7,2.2,7.4,1.5,1.7,3.6,2.6,6.3,2.6s4.7-.9,6.1-2.6c1.4-1.7,2.1-4.2,2.1-7.6s-.7-5.8-2.2-7.5c-1.4-1.7-3.4-2.5-6-2.5s-4.7.9-6.2,2.7c-1.5,1.8-2.2,4.3-2.2,7.6ZM394.9,104.6h-10.9v25h-7.4v-25h-5.2v-6h5.2v-4.3c0-3.3,1.1-5.9,3.2-8,2.1-2.1,4.8-3.1,8.1-3.1s1.7,0,2.4.1c.7,0,1.3.2,1.8.4v6.3c-.2-.1-.7-.3-1.3-.5-.6-.2-1.3-.3-2.1-.3-1.5,0-2.7.5-3.5,1.4s-1.2,2.4-1.2,4.2v3.7h10.9v-7l7.3-2.2v9.2h7.4v6h-7.4v14.5c0,1.9.3,3.3,1,4,.7.8,1.8,1.2,3.3,1.2s.9-.1,1.5-.3c.6-.2,1.1-.4,1.6-.7v6c-.5.3-1.2.5-2.3.7s-2.1.3-3.2.3c-3.1,0-5.4-.8-6.9-2.5-1.5-1.6-2.3-4.1-2.3-7.4v-15.9Z"></path>
      <g>
        <rect height="34.2" width="34.2" y="72" x="72"></rect>
        <rect height="34.2" width="34.2" y="72" x="109.8"></rect>
        <rect height="34.2" width="34.2" y="109.8" x="72"></rect>
        <rect height="34.2" width="34.2" y="109.8" x="109.8"></rect>
      </g>
    </g>
  </g>
</svg>