<svg viewBox="0 0 744.1 163.7" version="1.1" xmlns="http://www.w3.org/2000/svg">
  
  <g>
    <g id="svg2697">
      <g id="layer1">
        <path d="M653.8,17.6c-22.5,0-45.6,8.6-57.6,23.8-6.7-12.4-19-18.7-31.6-18.7h-89.5v84.9l-40-84.9h-30.4l-35.6,76.5h-15c-5,15.8-17,23.2-36,22.9-21.3-.3-37.6-17-38.3-38.8-.9-22.8,16.8-40.8,38.7-40.7,15,0,26.5,6,34.4,19.1l31.7-4s-11.9-40-66.5-40-71.1,53-71.1,53h-70.6v-25.3h78.9v-22.6h-108.9v115.3l-32.9-45.2s30.9-4.7,30.9-34.9-19.8-35.2-37.2-35.2H17.7v119.6h30v-46.7h34.5l31.4,46.7h145.5l-.2-22.5h-82.3v-27h71.3s6.6,53.3,71,53.3,28-3.8,28-3.8h34.9l8.9-20.6h59.6l9.5,20.6h45.3v-46.7h32.5l30.4,46.7h35.5l-34.8-50.3s7.4-.6,13.1-4.1c3.4,33.8,36.2,58.2,72.1,58.2s72.6-28.7,72.6-64.2-29.3-64.2-72.6-64.2ZM97.3,72.9h-49.7v-27.7h49.7c22.2,0,19.1,27.7,0,27.7ZM400.9,99.1l19.2-43.7,19.5,43.7h-38.7ZM552.3,72.9h-47.1v-27.7h47.1c22.1,0,20.2,27.7,0,27.7ZM654,122c-22.3.3-40.5-16.9-40.5-39.3s16.3-40.5,40.5-40.7c22.4,0,40.5,18.2,40.5,40.7s-17.6,39-40.5,39.3" id="path2201"></path>
      </g>
    </g>
  </g>
</svg>