<svg viewBox="0 0 600 375.6" version="1.1" xmlns="http://www.w3.org/2000/svg">
  
  <g>
    <g id="Ebene_1">
      <g>
        <path d="M124.6,98.8c0,3.2-1.3,6.3-3.6,8.5-2.3,2.3-5.6,3.6-8.9,3.5-3.2,0-6.2-1.4-8.5-3.6-8.9-8.9-23.5-12.5-33-12.4-14.5,0-25.9,5-34.1,14.9-8.2,9.9-12.3,24-12.3,42.3v131.1c.3,3.5-1.2,6.8-3.8,9.1-2.3,1.9-5.2,3-8.3,3.1-3,0-5.9-1.1-8.3-3.1-2.7-2.2-4.1-5.6-3.8-9.1v-131.1c0-10.7,1.4-21.4,4.4-31.6,2.7-9.4,7.3-18.1,13.3-25.8,5.9-7.4,13.4-13.5,22-17.6,9.6-4.5,20.2-6.7,30.8-6.4,9.1.2,18.1,1.9,26.6,5.2,8.7,3.1,16.7,8,23.4,14.5,2.5,2.2,3.9,5.3,4.1,8.6h0Z"></path>
        <path d="M185,283.1c.3,3.5-1.2,6.8-3.8,9.1-4.8,4-11.8,4-16.5,0-2.7-2.2-4.1-5.6-3.8-9.1V86.7c-.3-3.5,1.2-6.8,3.8-9.1,4.8-4,11.8-4,16.5,0,2.6,2.2,4.1,5.6,3.8,9.1v196.4Z"></path>
        <path d="M394.5,283.1c.2,3.5-1.2,6.8-3.8,9.1-4.8,4-11.7,4-16.5,0-2.7-2.2-4.1-5.6-3.8-9.1v-133.9c0-7.3-1.4-14.5-4.2-21.2-5.5-13.1-15.9-23.5-29-29-13.5-5.6-28.8-5.6-42.3,0-13.1,5.5-23.5,15.9-29,29-2.8,6.7-4.3,13.9-4.2,21.2v133.9c.3,3.5-1.2,6.8-3.8,9.1-4.8,4-11.8,4-16.5,0-2.7-2.2-4.1-5.6-3.8-9.1v-133.9c0-10.5,2-21,6.2-30.6,3.9-9.3,9.6-17.8,16.7-25,7.1-7.1,15.4-12.7,24.6-16.7,19.7-8.4,41.9-8.4,61.6,0,18.9,7.8,33.9,22.8,41.7,41.7,4.1,9.7,6.2,20.1,6.2,30.6l.2,133.9Z"></path>
        <path d="M600,297.2c.1,10.6-2,21.1-6.2,30.8-8,18.8-23,33.7-41.8,41.5-9.7,4.1-20.1,6.2-30.6,6.2-6,0-11.9-.6-17.7-1.8-6.3-1.2-12.5-3.1-18.5-5.5-6-2.4-11.7-5.5-16.9-9.2-5-3.5-9.3-7.9-12.7-12.9-1.4-2-2.1-4.4-2-6.9,0-3.3,1.3-6.5,3.8-8.7,2.3-2.2,5.4-3.4,8.7-3.4,1.7,0,3.4.4,5,1,2,.9,3.6,2.3,4.6,4.2,4.8,7.2,15.1,12.9,22,15.1,7.6,2.5,15.6,3.8,23.6,3.8,7.3,0,14.5-1.4,21.2-4.2,13.1-5.5,23.5-15.9,29-29,2.9-6.6,4.4-13.8,4.4-21v-27.7c-7.1,6.8-15.5,12.2-24.6,15.9-9.4,3.9-19.6,5.9-29.8,5.9-10.6.1-21.1-2-30.8-6.2-18.7-7.9-33.6-22.8-41.5-41.5-4.2-9.7-6.3-20.2-6.2-30.8v-63.6c0-10.5,2-21,6.2-30.6,3.9-9.3,9.6-17.8,16.7-25,7.1-7.1,15.4-12.7,24.6-16.7,19.7-8.4,41.9-8.4,61.6,0,18.9,7.8,33.9,22.8,41.7,41.7,4.1,9.7,6.2,20.1,6.2,30.6v148h.1ZM575.8,149.2c0-7.3-1.4-14.5-4.2-21.2-5.5-13.1-15.9-23.5-29-29-13.5-5.6-28.8-5.6-42.3,0-13.1,5.5-23.5,15.9-29.1,29-2.8,6.7-4.3,13.9-4.2,21.2v63.3c0,7.3,1.4,14.6,4.2,21.3,2.8,6.5,6.7,12.4,11.7,17.3,5,5,10.9,8.9,17.3,11.7,13.5,5.6,28.8,5.6,42.3,0,13.1-5.5,23.5-15.9,29-29,2.9-6.7,4.4-14,4.3-21.3v-63.2Z"></path>
      </g>
      <circle r="20.7" cy="20.7" cx="172.9"></circle>
    </g>
  </g>
</svg>