<svg viewBox="0 0 7051.4 1080" xmlns:xlink="http://www.w3.org/1999/xlink" version="1.1" xmlns="http://www.w3.org/2000/svg">
  <defs>
    <style>
      .cls-1 {
        fill: none;
      }

      .cls-2 {
        clip-path: url(#clippath);
      }
    </style>
    <clipPath id="clippath">
      <rect height="2160.2" width="8131.9" y="-540.1" x="-540" class="cls-1"></rect>
    </clipPath>
  </defs>
  
  <g>
    <g id="svg2">
      
      <g id="g8">
        <g id="g10">
          <g class="cls-2">
            <g id="g12">
              <g id="g18">
                <path d="M6694.8,474.3v147h103.3v145.9c.3,13-.4,27.1-2.6,38.3-4.1,27.2-30,73.5-103.3,73.5s-98.3-46.3-102.7-73.5c-1.9-11.2-2.6-25.3-2.6-38.3v-460.7c0-16.3,1.1-34.1,4.6-47.6,5-24.6,26.8-73,100.2-73s96.4,51.1,100.8,73c2.9,14.5,3.1,38.9,3.1,38.9v55.9h253.9v-33.1s1.2-34.5-1.9-66.7c-19.1-189.1-174.9-248.9-353.5-248.9s-331.6,60.4-353.9,248.9c-2,17.2-5.1,48.3-5.1,66.7v423.8c0,18.5.6,32.7,4,66.5,16.6,183.9,175.9,249.1,354.2,249.1s337.6-65.2,354.5-249.1c3-33.7,3.3-48,3.7-66.5v-270.1h-356.6ZM4944.3,32.1h-254.9v745.7c.4,13,0,27.6-2.2,38.3-5.3,25-26.5,73.2-96.9,73.2s-91.2-48.2-96.1-73.2c-2.6-10.7-2.9-25.3-2.6-38.3V32.1h-254.9v722.6c-.3,18.6,1.1,56.7,2.2,66.6,17.6,188.3,166,249.4,351.3,249.4s334-61.1,351.9-249.4c1.4-10,3.3-48,2.2-66.6V32.1ZM2601.8,32.1l-127.2,788-127.1-788h-411.2l-21.8,1008.1h251.9l6.8-933.2,173.3,933.2h255.6l173.5-933.2,6.8,933.2h252.6l-22.5-1008.1h-410.8ZM1079.2,32.1l-186.7,1008.1h272.3l140.7-933.2,137.3,933.2h270.4L1527.3,32.1h-448.1ZM5835.3,843.7l-237.4-811.6h-374.1v997.5h247.5l-14.4-837.6,254.9,837.6h358.8V32.1h-249.1l13.7,811.6ZM3546.3,294.5c-4.5-19.9-3.2-41.1-.9-52.1,7.2-32.3,28.9-67.5,91.4-67.5s92.4,36.3,92.4,90.8v61.6h248.5v-70.3c0-217.2-194.7-251.3-335.7-251.3s-322.6,58.5-349.1,222c-7,44.5-8.7,84,2.4,134.3,43.2,203.8,397.9,262.9,449.4,391.8,9.1,24.4,6.5,55.5,1.9,73.9-7.7,33.5-30.3,67.3-97.2,67.3s-100.5-36.1-100.5-90.4v-96.7h-267.6v76.9c0,222.8,174.5,290.1,362.5,290.1s328.7-61.5,352.6-228.3c11.4-86.2,2.8-142.3-1.8-163.4-41.7-209-419.8-271.9-448.4-388.5M267.9,292c-4.9-20.3-3.7-41.8-1-53,6.9-32.1,28.7-67.9,92.3-67.9s93.7,36.6,93.7,91.6v62.4h251.4v-70.8C704.3,34.9,506.6,0,364.1,0S38.7,59.4,11.9,224c-7.3,45.2-8.6,84.9,2,135.9,43.6,206.1,401.9,265.7,454,396.1,9.8,24.2,6.8,55.4,2,74.4-8.3,33.9-31,68.1-98.5,68.1s-100.6-36.7-100.6-91.8l-.3-97H0v77.1C0,1012.2,177,1080,366.5,1080s331.7-62.1,356.1-230.8c12.1-87,3-143.5-1.1-165-42.5-211.6-424.9-274.2-453.6-392.2" id="path20"></path>
              </g>
            </g>
          </g>
        </g>
      </g>
    </g>
  </g>
</svg>