<svg viewBox="0 0 1280 225.3" version="1.1" xmlns="http://www.w3.org/2000/svg">
  
  <g>
    <g id="Ebene_1">
      <g>
        <path d="M973.6,12.6v25h24.4c10.7,0,17.7,6.7,21.7,11.1,3.2,3.6,73.6,83.4,75.3,85.5,1.7,2.1,1.7,2.1,1.7,3.5v39.6c0,1.8-.2,3.6-.5,5.4-1,2.3-3,4.1-5.4,4.8-2.3.3-4.6.4-7,.4h-24.5s0,25,0,25h137.3v-25h-25.8c-2.3,0-4.6-.1-6.9-.4-2.4-.7-4.4-2.5-5.4-4.8-.4-1.8-.5-3.6-.6-5.4v-39.5c-.2-1.3.2-2.6.9-3.7l76.2-86.9c7-7.8,10.6-9.5,19.8-9.5h25.3V12.6h-113.1v25h17.1c2.6-.2,4.9,1.9,5.1,4.5,0,1.1-.3,2.3-1,3.2-.4.5-47.4,55.8-48,56.3s-1,.4-1.4-.2c-.4-.6-46.9-56.1-46.9-56.1-3.3-4-.7-7.7,3.1-7.7h16.6V12.6h-138Z"></path>
        <path d="M636.9,12.6v25h21.9c15.8,0,16.9,8.8,16.9,16.5v117.2c0,7,.4,16.6-9.7,16.6h-27v25h115.4v-25h-28.2c-11.2,0-11.8-5.1-11.9-16.1v-100.4l158.5,141.5h40.3l-2.1-159.8c.2-11.7.9-15.6,13-15.6h25.3V12.6h-117.8v25h25.9c11.9,0,13.9,4.6,14,15.6l1.4,83.6L735.3,12.6h-98.4Z"></path>
        <path d="M117.1,0C92.3,0,64.1,4.6,40.3,15.3,18.1,25.3,0,41.2,0,67.7c0,13.8,5.2,27.2,14.7,37.3,6.4,5.9,16.8,16,43.9,22,12.1,2.6,38,6.7,63.8,9.4,25.8,2.7,50.8,5.1,61,7.9,8.1,2.1,21.8,4.9,21.8,20.3s-14.4,20-16.9,21c-2.5,1-19.8,8.9-50.9,8.9-20.6-.6-41-4.1-60.6-10.4-11.6-4.1-23.8-9.6-35.1-23.5-4.6-6.5-7.1-14.3-7.3-22.2H6.3v78.8h31.3v-10.7c0-2.5,2-4.5,4.4-4.5.8,0,1.6.2,2.3.6,14.7,6.4,30.1,11.4,45.8,14.8,16.4,3.4,27.1,5.9,47.5,5.9,21.6.4,43-2.6,63.6-9,13.7-3.7,26.5-10.1,37.8-18.7,12.9-9.9,20.4-25.3,20.3-41.5.1-15.2-5.8-29.9-16.4-40.8-5.9-5.7-12.7-10.4-20.2-13.8-8-3.6-16.3-6.5-24.9-8.7-16.2-4-52.7-8.9-70.1-10.7-18.3-1.9-50-4.5-62.7-8.4-3.8-1.2-11.7-4.9-11.7-14s3.6-12,10.7-16.4c11.2-7,33.9-11.4,57.6-11.4,22.9-.3,45.6,4.2,66.7,13,5.7,2.5,11,5.7,15.9,9.5,7.9,6.8,13.4,16,15.6,26.2h25.3V9.9h-28.2v8c0,2.6-2.6,5.9-7.7,3.2C196.6,14.4,160.9.2,117.1,0h0Z"></path>
        <path d="M456,0C411.7,0,364.6,15.4,337.9,39.6c-20.5,18.7-32.2,45.2-32.1,72.9-.3,27.9,11.4,54.6,32.1,73.2,28.7,25.8,71.7,39.6,118.1,39.6s90.4-13.7,118.4-39.6c20.1-19.1,31.6-45.5,31.7-73.2.3-27.7-11.2-54.2-31.7-72.9C544.4,12.4,505.1,0,456,0h0ZM456,29.3c24.3,0,47.6,8.7,63.4,24.2,15.2,15,23.2,36.2,23.2,58.9s-7.2,43-23.2,58.9c-15.9,15.9-38.8,24.4-63.4,24.4s-47.7-8.7-63.5-24.4c-15.2-15.8-23.5-37-23-58.9,0-22.6,7.9-43.8,23-58.9,15.7-15.6,39.2-24.2,63.5-24.2h0Z"></path>
      </g>
    </g>
  </g>
</svg>