<svg viewBox="0 0 300 82" version="1.1" xmlns="http://www.w3.org/2000/svg">
  
  <g>
    <g id="svg2990">
      <path d="M36.7,81.2c-15.8-.2-28.8-.7-28.8-1.2,0-1.5,110.8-2.4,199.4-1.7,46.2.4,84.1.9,84.4,1.1.3.3.2.8,0,1.1-.7.7-211,1.3-255,.7h0ZM33,63.3c0-.4.9-1.7,1.9-2.8,1-1.1,5.4-10.8,9.6-21.6,8.7-22.2,11-26.6,16.3-31l3.8-3.2-9.5.6c-10.9.6-17.3,2.6-21.2,6.4-3,2.9-4.9,8.1-4.1,11.2.7,2.8-1.3,2.6-4.4-.5-3.7-3.7-2.8-8.7,2.5-13.6,6.6-6.2,11.1-7,40.7-7.7,14.3-.3,26.2-.5,26.3-.4.2.1-.9,1-2.5,2-2.1,1.4-5.2,1.9-12.3,2.2-8.6.3-9.8.6-12.3,2.9-2.8,2.7-8.5,15.4-15.8,35.3-4.1,11.3-7.5,17.1-10.8,18.9-2.6,1.3-8.2,2.4-8.2,1.5h0ZM118,63.4c0-.4.8-1.9,1.8-3.4s2.1-3.3,2.4-4.2c.3-.8,1.5-3.9,2.6-6.7l2.1-5.2-4.5,3.4c-7.7,5.9-15.9,7.1-20,3.1-4.3-4.3-2.6-13.7,4.1-22.8,7.5-10.3,21.4-14.1,21.4-5.9s-5.7,10.2-13,14.7c-6.1,3.8-7.9,7-5.9,10.7,1.2,2.2,3.3,2.2,8.4-.1,6.3-2.9,12-9.6,14.9-17.5,1.4-3.8,2.6-7,2.6-7.2s-1-.5-2.2-.7c-2.1-.4-2-.5.9-1.7,1.7-.7,3.9-2.7,4.9-4.4,5.4-9.5,12.6-13.7,24.1-14.4,7.7-.4,8.3-.3,10.8,2.1,1.4,1.4,2.6,3.1,2.6,3.7,0,1.5-5.5,7-7.1,7s-1-.3,0-1.2c.7-.7,1.2-2.4,1.2-4,0-6-9.2-7.6-16.1-2.8-2.8,2-8.9,10.2-8.9,12.1s4.5.5,10,.2c10.6-.6,12.6.3,7.1,3.2-8.1,4.2-15.8,26.5-9.5,27.4,4.8.7,13.4-14.6,13.4-23.8s.3-2.8,9-4.9c10.9-2.5,12.4-2.2,11.7,2.7-.3,2-.9,4.4-1.3,5.5s1.4-.4,3.9-3.1c5.2-5.6,9.4-7.8,13-6.8,4.8,1.2,4.4,3.8-3.8,22.1-2.3,5.1-3.6,9.5-3.6,12.2,0,4.9-1.1,5.3-4.7,1.7-3.5-3.5-2.9-8.1,2.5-20.1,2.3-5,4.1-9.6,4.1-10.2,0-4.6-10.1,7.1-16.5,19.1-4.6,8.6-5.3,9.4-8.2,9.6-1.8.2-3.2,0-3.2-.4s2.2-6.5,5-13.6c5.9-15.2,6.2-17.1,2.2-16.2-3.9.9-4.2,1.2-4.3,3.7,0,2.8-5.1,13.7-8.6,18.3-5.4,7.1-14.3,10.3-19.1,6.9-5.1-3.6-1.3-18.5,6.5-26.1l4-3.8-5.8.3-5.8.3-4.2,11.7c-5.8,16.1-10.4,25.7-13.1,27.5-2.7,1.8-7.8,3.2-7.8,2.2h0ZM118.2,30.3c3.7-4,5.3-8.2,3.3-9-2.8-1.1-8.6,6.1-10.9,13.6l-.7,2.4,2.9-2.1c1.6-1.1,4.1-3.3,5.6-4.9h0ZM87.6,54.8c-2.1-1.6-2.6-2.9-2.6-6.1v-4l-3.5,2.7c-7.9,6-15,7.2-19.2,3-2.3-2.3-2.5-3.1-1.9-7.6,1.6-12.1,10.9-23.1,21.2-25.2,2.5-.5,3.6-.2,5.2,1.4,1.7,1.7,1.9,2.5,1,5-1.3,3.7-9.2,11.2-14.7,14-3.8,1.9-4.1,2.4-4.1,6s.4,4.2.9,4.5c2.4,1.5,7.9-1.1,12.6-5.9,4.1-4.2,6.3-7.8,12-20.5,6.6-14.5,7.2-15.5,10.3-16.3,1.8-.5,3.7-.7,4.2-.6.5.2-2.4,7.8-6.5,17-8.7,19.7-10.8,25.9-10.8,31s-.5,4.6-4.1,1.8h0ZM77.1,31.5c4.6-4.4,6.6-8.3,4.9-9.9-.8-.8-1.6-.7-2.8,0-3.9,2.4-11.4,16.7-7.6,14.6.8-.4,3.2-2.5,5.5-4.7h0ZM264.5,54.8c-2.3-1.8-2.7-2.8-2.4-6,.2-2.1,0-3.9-.4-3.9s-.8.4-.8,1c0,2-8.3,7-11.5,7s-6.5-2.5-6.5-5.5-.1-1.7-2.2.2c-6.2,5.7-14.2,6.9-18.3,2.8l-2.5-2.5-3.6,2.5c-4.2,2.9-9.5,3.2-11.9.8-2.4-2.4-1.5-6.5,4.6-19.8,5.1-11.4,5.2-11.4,9.3-12.3,2.3-.5,4.3-.8,4.5-.6.2.1-2.2,5.8-5.2,12.7-5.8,12.9-6.7,16.7-4,16.7s7.5-4.2,7.5-6.1c0-3,4-11.2,7.5-15.5,4.1-5,10.6-8.4,16.1-8.4s8.6,4.1,3.7,7.9c-3.2,2.5-4.8,2.7-3.9.3,2.2-5.4-1.1-6.9-5.7-2.6-8.5,8.1-12.7,26.9-5.5,24.8,4.9-1.4,9.6-5.7,12.7-11.7,6.8-12.8,14.1-18.1,25.1-18.2,3.7,0,7,.2,7.4.6.4.4-.4,3.3-1.8,6.5-4.3,9.7-7.9,21.5-8.1,26.5,0,2.6-.4,4.8-.8,4.8-.3,0-1.8-1-3.3-2.1h0ZM258.3,44.4c3.3-3.4,13.3-22.3,12.3-23.3-1.2-1.2-6.2,1.1-9,4.1-3.9,4.2-8.2,12.1-9.4,17.4-1.5,6.5.9,7.2,6.1,1.8h0ZM222.2,12.2c-1.7-.6-1.6-4.8.2-6.3,2.3-1.9,5-.9,5,1.9s-3.2,5.2-5.2,4.4h0Z" id="path3249"></path>
    </g>
  </g>
</svg>