<svg viewBox="0 0 1000 914.7" version="1.1" xmlns="http://www.w3.org/2000/svg">
  
  <g>
    <g id="Ebene_1">
      <path d="M0,727.6v111.6c0,45.3,30.9,74.2,75.9,74.2s76.3-30.5,76.3-77.3v-108.6h-40.1v106.5c0,25.5-12.9,41.3-35.8,41.3s-36.3-18.2-36.3-39.3v-108.6H0ZM171.7,729.2v182.5h63.8c35.3,0,65.4-18,65.4-53.8s-32.7-45.6-32.7-45.6c0,0,24.2-6.7,24.2-38.6s-30.6-44.5-56.9-44.5h-63.8ZM212,763.8h19.4c13.4,0,22,7.1,22,19.4s-7.3,19.3-21,19.3h-20.4v-38.7h0ZM212,831.1h21.4c20.1,0,27.1,10.3,27.1,22.7s-9,22.8-25.1,22.8h-23.4v-45.5h0ZM316,729.1h40.3v182.5h-40.3v-182.5ZM755.4,911.6h-40.3v-182.5h126.4v37.7h-86.1v41.8h78.5v30.6h-78.5v72.4ZM856.3,729.1v37.7h52v144.8h40.8v-144.8h51v-37.7h-143.7ZM402.2,850.9l-32,23.4s11.1,40.4,66.5,40.4,64.1-21.5,64.1-59.4c0-61-85.3-48.1-85.3-79.4s7.3-15.6,20.9-15.6c21.7,0,30,21.3,30,21.3l32-22.5s-12.5-33.3-60.4-33.3-60.3,25.3-60.3,51.3c0,62.2,82.8,48.7,82.8,81.3s-8.7,19.1-22.2,19c-26.8,0-36.1-26.6-36.1-26.6h0ZM604.7,725.8c-47.4,0-68.6,25.7-68.6,25.7l6.1,6.1s-30.7,21.8-30.7,68.6,41.5,88.4,93.3,88.4,94.4-44.4,94.4-94.4-39-94.5-94.6-94.5h0ZM605.6,763.7c32.2,0,53,24.6,53,56.5s-20.6,56.8-53,56.8-53-22.4-53-52,18.3-38.8,18.3-38.8l-6.6-6.6s14.1-15.9,41.4-15.9ZM481.5,0C274.7,0,185.5,184.1,185.5,184.1l26.3,18.8s-33.1,62.9-32.1,143.5c0,164.6,131.1,319.7,324,319.7s320-142.7,320-319.3c0-230.4-178.7-346.8-342.1-346.8h0ZM483.3,56.2c161.6,0,286.9,130.2,286.9,281.6s-120.7,272-261.3,272-196.9-78.8-196.9-186.9,33.2-105.9,70.3-129.1l5.4,5.9c-10.2,8-39.2,54.6-39.2,100.4,0,85,66.7,143.9,150.7,143.9s178.4-91.3,178.4-197.2-108.8-228-239.8-228-133.9,31.2-169.3,58.7l-5.5-5c46.2-71.3,126.3-116.2,220.1-116.2ZM435.1,174.1c83.6,0,165.2,55.3,185.5,133.8l-7.4,2.8c-36.6-48.3-96.5-88.3-167.3-88.3-130.2,0-198.6,118.3-188.6,217.1l-7.7,2.8s-14.4-31.7-14.4-69.4c0-109,89.5-198.9,199.7-198.9h0ZM490.3,310.9c39.6,0,71.2,32.1,71.2,70.1s-20.2,50.2-20.2,50.2l24,16.8s-23.8,37.3-72.3,37.3-87.4-37.4-87.4-87.8,44.6-86.6,84.7-86.6h0Z"></path>
    </g>
  </g>
</svg>