<svg viewBox="0 0 1659 793" version="1.1" xmlns="http://www.w3.org/2000/svg">
  
  <g>
    <g id="Logo">
      <g>
        <path d="M842.9,507.4h-36.8l-63.4-87.3-63.4,87.3h-36.8l81.8-112.6-75.4-103.8h36.8l57,78.4,57-78.4h36.8l-75.4,103.8,81.8,112.6ZM1034.1,445.9c0,19-6.3,34.2-18.7,45.1-12.4,10.9-30.5,16.4-53.7,16.4h-101.5v-96.4h-48.2l20.1-27.6h28.2v-92.4h97.2c21.8,0,38.7,5.2,50.4,15.5,11.6,10.3,17.5,24.1,17.5,40.8s-9.4,36.6-28,46.9c12,4.6,21.2,11.5,27.4,20.3,6.3,9,9.4,19.5,9.4,31.2ZM893.2,383.4h62c12.5,0,22-2.8,28.2-8.3,6.2-5.5,9.4-13.9,9.4-25s-3.3-17.1-9.7-22.5c-6.5-5.4-15.8-8.1-27.8-8.1h-62v63.9ZM1000.7,445.2c0-11.4-3.4-20-10.2-25.7-6.8-5.7-17.1-8.6-30.7-8.6h-66.6v67.8h66.6c13.2,0,23.4-2.9,30.4-8.7,7-5.8,10.5-14.1,10.5-24.9ZM1256.3,399.2c0,16.7-2.4,32.1-7.2,45.6-4.8,13.6-12.1,25.7-21.7,36.1-9.7,10.4-21,18.3-33.7,23.5-12.7,5.2-27.1,7.8-42.8,7.8s-30.4-2.6-43.1-7.8c-12.7-5.2-24-13.1-33.4-23.5-9.7-10.3-17-22.4-21.9-35.9-4.8-13.6-7.3-29-7.3-45.8s2.5-32.1,7.3-45.7c4.8-13.6,12.2-25.8,21.9-36.3,9.5-10.3,20.7-18.1,33.4-23.3,12.7-5.1,27.2-7.7,43.1-7.7s30.1,2.6,42.8,7.7c12.7,5.1,24.1,13,33.7,23.3,9.6,10.5,16.9,22.7,21.7,36.3,4.8,13.6,7.2,29,7.2,45.7ZM1079.4,399.2c0,25.5,6.6,45.9,19.6,60.7,12.8,15,30.3,22.6,51.9,22.6s39.1-7.6,51.9-22.6h0c12.8-14.6,19.3-35,19.3-60.7s-6.5-46.2-19.3-61c-13-14.8-30.5-22.3-51.9-22.3s-38.9,7.5-51.9,22.3c-13,15.2-19.6,35.7-19.6,61ZM1360.7,394.8l75.4-103.8h-36.8l-57,78.4-57-78.4h-36.8l75.4,103.8-81.8,112.6h36.8l63.4-87.3,63.4,87.3h36.8l-81.8-112.6Z"></path>
        <path d="M396.5,360.9c.2,0,.5.2.6.3,53.8,40.9,146,142.2,117.9,170.8-31.7,27.7-73.1,44.5-118.5,44.5-45.4,0-86.8-16.8-118.5-44.5-28.1-28.6,64.1-129.9,117.9-170.8.1-.1.4-.3.6-.3ZM490.2,242.8c-27.6-16.4-57.4-26.3-93.8-26.3s-66.2,10-93.8,26.3c-.3.2-.5.6-.3.9.1.3.5.4.9.3,34.9-7.5,87.8,22.6,92.8,25.6.1,0,.2.1.4.1s.3,0,.4-.1c5-3,58-33.1,92.8-25.6.4,0,.7,0,.9-.3.2-.3,0-.7-.3-.9ZM270.5,268.1c-.3.2-.6.4-.8.6-32.8,32.6-53.2,77.8-53.2,127.7s13.7,78.8,36.8,109.1c.2.3.6.5,1,.3.3-.2.3-.6.2-.9-13.7-42.4,56.4-145.3,92.7-188.4.1-.1.2-.3.2-.5s-.1-.4-.3-.6c-54.9-54.6-73.5-48.8-76.6-47.3ZM445.9,315.4c-.2.1-.3.3-.3.6s.1.4.2.5c36.2,43.1,106.4,146,92.7,188.4-.1.3-.1.7.2.9.3.2.7,0,1-.3,23.1-30.3,36.8-68,36.8-109.1s-20.4-95.1-53.2-127.7c-.2-.2-.5-.5-.8-.6-3-1.6-21.7-7.4-76.6,47.3Z"></path>
      </g>
    </g>
  </g>
</svg>