<?xml version="1.0" encoding="UTF-8"?>
<svg id="Layer_1" data-name="Layer 1" xmlns="http://www.w3.org/2000/svg" viewBox="0 0 484.8 410.1">
  <defs>
    <style>
      .cls-1 {
        fill: #fff;
      }
    </style>
  </defs>
  <path class="cls-1" d="M391.75,117.8c-2.9-3.1-6.5-4.6-10.8-4.6s-8,1.5-10.9,4.5-4.4,6.8-4.4,11.1,1.5,8.1,4.4,11.1,6.5,4.5,10.9,4.5,7.9-1.5,10.8-4.5c3-3.1,4.5-6.7,4.5-11.1s-1.5-8-4.5-11ZM391.75,117.8c-2.9-3.1-6.5-4.6-10.8-4.6s-8,1.5-10.9,4.5-4.4,6.8-4.4,11.1,1.5,8.1,4.4,11.1,6.5,4.5,10.9,4.5,7.9-1.5,10.8-4.5c3-3.1,4.5-6.7,4.5-11.1s-1.5-8-4.5-11ZM285.35,117.7c-2.9-3-6.2-4.5-10.2-4.5-8.1,0-14.5,6.9-14.5,15.5s6.4,15.8,14.5,15.8,14.5-6.7,14.5-15.8c-.1-4.4-1.5-8-4.3-11ZM391.75,117.8c-2.9-3.1-6.5-4.6-10.8-4.6s-8,1.5-10.9,4.5-4.4,6.8-4.4,11.1,1.5,8.1,4.4,11.1,6.5,4.5,10.9,4.5,7.9-1.5,10.8-4.5c3-3.1,4.5-6.7,4.5-11.1s-1.5-8-4.5-11ZM285.35,117.7c-2.9-3-6.2-4.5-10.2-4.5-8.1,0-14.5,6.9-14.5,15.5s6.4,15.8,14.5,15.8,14.5-6.7,14.5-15.8c-.1-4.4-1.5-8-4.3-11ZM391.75,117.8c-2.9-3.1-6.5-4.6-10.8-4.6s-8,1.5-10.9,4.5-4.4,6.8-4.4,11.1,1.5,8.1,4.4,11.1,6.5,4.5,10.9,4.5,7.9-1.5,10.8-4.5c3-3.1,4.5-6.7,4.5-11.1s-1.5-8-4.5-11ZM285.35,117.7c-2.9-3-6.2-4.5-10.2-4.5-8.1,0-14.5,6.9-14.5,15.5s6.4,15.8,14.5,15.8,14.5-6.7,14.5-15.8c-.1-4.4-1.5-8-4.3-11ZM391.75,117.8c-2.9-3.1-6.5-4.6-10.8-4.6s-8,1.5-10.9,4.5-4.4,6.8-4.4,11.1,1.5,8.1,4.4,11.1,6.5,4.5,10.9,4.5,7.9-1.5,10.8-4.5c3-3.1,4.5-6.7,4.5-11.1s-1.5-8-4.5-11ZM285.35,117.7c-2.9-3-6.2-4.5-10.2-4.5-8.1,0-14.5,6.9-14.5,15.5s6.4,15.8,14.5,15.8,14.5-6.7,14.5-15.8c-.1-4.4-1.5-8-4.3-11ZM391.75,117.8c-2.9-3.1-6.5-4.6-10.8-4.6s-8,1.5-10.9,4.5-4.4,6.8-4.4,11.1,1.5,8.1,4.4,11.1,6.5,4.5,10.9,4.5,7.9-1.5,10.8-4.5c3-3.1,4.5-6.7,4.5-11.1s-1.5-8-4.5-11ZM.65.3v409.5h483.5V.3H.65ZM356.15,104.5c6.6-6.6,15-9.9,24.9-9.9s18.1,3.3,24.8,9.9c6.6,6.5,10,14.6,10,24.3s-3.4,17.8-10,24.4c-6.6,6.5-14.9,9.8-24.8,9.8s-18.3-3.3-24.9-9.8c-6.6-6.6-9.9-14.8-9.9-24.4s3.2-17.8,9.9-24.3ZM320.05,71.9c2.2-2.1,5-3.2,8.4-3.2s6.1,1.1,8.3,3.2c2.2,2.1,3.4,4.9,3.4,8.3s-1.1,6.1-3.4,8.2c-2.1,2.1-4.9,3.3-8.3,3.3s-6.1-1.1-8.4-3.3c-2.1-2.1-3.2-4.9-3.2-8.2-.1-3.4,1-6.2,3.2-8.3ZM337.75,96.3v65h-18.8v-65h18.8ZM249.85,104.4c5.9-6.5,13.3-9.7,22-9.7,6.6,0,12.6,2,18,6v-33.1h18.6l-.1,93.8h-18.6v-4.6c-5.3,4.1-11.3,6.1-18,6.1-8.8,0-16.1-3.3-22-9.8-5.9-6.6-8.8-14.8-8.7-24.4,0-9.7,2.9-17.8,8.8-24.3ZM171.15,96.2h18.8v36.8c0,7.1,5,12.5,11.9,12.5s12-5.4,12-12.5v-36.8h18.8v65h-18.8v-6.6c-4.4,5.5-10.3,8.2-17.8,8.2-7,0-12.9-2.4-17.8-7.1-4.8-4.8-7.1-10.6-7.1-17.8v-41.7ZM129.75,83.5h18.8v12.6h14.8v16.3h-14.8v24.4c0,4,3,6.9,7.1,6.9h7.6v17.5h-10.8c-6.4,0-11.9-2-16.3-5.9-4.4-4-6.5-9-6.5-14.9l.1-56.9ZM99.45,137.5l-11.8-3.5c-12.1-3.4-17.1-9.1-17.1-18.8,0-14.4,10.5-20.9,26.4-20.9s26,9.5,26,20.6l-17.1-.1c-1.1-3.6-4.4-5.5-9.8-5.5-4.9,0-7.4,1.4-7.4,4.2,0,1.6,1.8,3.1,5.1,4.4l11.6,3.8c13.1,4.1,18.5,10.1,18.5,20,0,13.6-10.6,20.9-26.8,20.9s-27-5.8-28-21.9h17.3c1.2,4.4,5,6.5,11.1,6.5,5,0,8.5-1.7,8.5-4.7.1-2.1-2.1-3.7-6.5-5ZM212.85,330.4l29.9-21.3c29.2,8.9,63.1-19.7,53.2-53.8l-94.1,66.7c-4.7,3.4-9.7,6.4-14.8,9.1-7.7,4-13.6,6-18.9,7.3-5.7,1.4-11.6,2-17.5,2h-1.7c-94.9.8-108.3-125.5-23.9-148.8,5.5-1.5,12.2-2.3,18.4-2.6,15.7-.6,33.4,5.5,45.7,14.3h0l-19.5,25.8h0l-6.1-3.6c-6.3-3.1-13.1-4.5-20.1-4.4-56.5,3.4-56.6,87,2.5,88.2,8.9,0,18.6-.5,34.6-11.3l97-68.9c-28.9-20.7-67.1,1.9-68.4,32.3l-30,21.2s-7.6-22.8,4.5-49.2c0,0,13.6-35.1,54.4-43.1,0,0,35.9-9.1,66.3,19.2,0,0,5.3,4.6,10.8,12.7l-.2-.2c5.8,7.9,8.4,14.4,8.4,14.4,16.6,38-3.9,68.9-3.9,68.9-21.1,35.8-58.7,37.1-58.7,37.1-29,2.7-47.9-12-47.9-12ZM297.45,340.4l74.8-64.4c7.3-6.2,11.7-13,12.5-22.1,1.7-18.8-13.6-32.2-29.2-33.2-8.1-.5-14.5,2.8-21.3,7.5l-17.7-26.5c9.1-5.8,20.6-11.5,37.9-12.4,57.1-2.9,84.5,75,37.5,111.8l-45.7,39.3h-48.8ZM411.85,340.5h-44.7l42.1-36.4c2.6-2.2,6.6-.4,6.6,3v29.3c0,2.3-1.8,4.1-4,4.1ZM380.95,144.4c4.2,0,7.9-1.5,10.8-4.5,3-3.1,4.5-6.7,4.5-11.1s-1.5-8-4.5-11c-2.9-3.1-6.5-4.6-10.8-4.6s-8,1.5-10.9,4.5-4.4,6.8-4.4,11.1,1.5,8.1,4.4,11.1,6.6,4.5,10.9,4.5ZM275.05,144.4c8,0,14.5-6.7,14.5-15.8,0-4.4-1.4-8-4.2-11s-6.2-4.5-10.2-4.5c-8.1,0-14.5,6.9-14.5,15.5-.1,9.1,6.3,15.8,14.4,15.8ZM391.75,117.8c-2.9-3.1-6.5-4.6-10.8-4.6s-8,1.5-10.9,4.5-4.4,6.8-4.4,11.1,1.5,8.1,4.4,11.1,6.5,4.5,10.9,4.5,7.9-1.5,10.8-4.5c3-3.1,4.5-6.7,4.5-11.1s-1.5-8-4.5-11ZM285.35,117.7c-2.9-3-6.2-4.5-10.2-4.5-8.1,0-14.5,6.9-14.5,15.5s6.4,15.8,14.5,15.8,14.5-6.7,14.5-15.8c-.1-4.4-1.5-8-4.3-11ZM391.75,117.8c-2.9-3.1-6.5-4.6-10.8-4.6s-8,1.5-10.9,4.5-4.4,6.8-4.4,11.1,1.5,8.1,4.4,11.1,6.5,4.5,10.9,4.5,7.9-1.5,10.8-4.5c3-3.1,4.5-6.7,4.5-11.1s-1.5-8-4.5-11ZM285.35,117.7c-2.9-3-6.2-4.5-10.2-4.5-8.1,0-14.5,6.9-14.5,15.5s6.4,15.8,14.5,15.8,14.5-6.7,14.5-15.8c-.1-4.4-1.5-8-4.3-11ZM391.75,117.8c-2.9-3.1-6.5-4.6-10.8-4.6s-8,1.5-10.9,4.5-4.4,6.8-4.4,11.1,1.5,8.1,4.4,11.1,6.5,4.5,10.9,4.5,7.9-1.5,10.8-4.5c3-3.1,4.5-6.7,4.5-11.1s-1.5-8-4.5-11ZM391.75,117.8c-2.9-3.1-6.5-4.6-10.8-4.6s-8,1.5-10.9,4.5-4.4,6.8-4.4,11.1,1.5,8.1,4.4,11.1,6.5,4.5,10.9,4.5,7.9-1.5,10.8-4.5c3-3.1,4.5-6.7,4.5-11.1s-1.5-8-4.5-11ZM391.75,117.8c-2.9-3.1-6.5-4.6-10.8-4.6s-8,1.5-10.9,4.5-4.4,6.8-4.4,11.1,1.5,8.1,4.4,11.1,6.5,4.5,10.9,4.5,7.9-1.5,10.8-4.5c3-3.1,4.5-6.7,4.5-11.1s-1.5-8-4.5-11ZM391.75,117.8c-2.9-3.1-6.5-4.6-10.8-4.6s-8,1.5-10.9,4.5-4.4,6.8-4.4,11.1,1.5,8.1,4.4,11.1,6.5,4.5,10.9,4.5,7.9-1.5,10.8-4.5c3-3.1,4.5-6.7,4.5-11.1s-1.5-8-4.5-11Z"/>
</svg>