<svg width="14" height="14" viewBox="0 0 14 14" fill="none" xmlns="http://www.w3.org/2000/svg">
<path d="M13.9999 0.600637V11.0117C13.9999 11.171 13.9366 11.3237 13.824 11.4364C13.7113 11.549 13.5585 11.6123 13.3992 11.6123C13.2399 11.6123 13.0872 11.549 12.9745 11.4364C12.8619 11.3237 12.7986 11.171 12.7986 11.0117V2.05017L1.0101 13.8387C0.896243 13.9448 0.745647 14.0025 0.590041 13.9998C0.434435 13.997 0.285969 13.934 0.175922 13.824C0.0658753 13.7139 0.00283906 13.5654 9.35771e-05 13.4098C-0.00265191 13.2542 0.0551077 13.1036 0.161204 12.9898L11.9497 1.20127H2.9882C2.8289 1.20127 2.67613 1.13799 2.56349 1.02535C2.45085 0.91271 2.38756 0.759936 2.38756 0.600637C2.38756 0.441338 2.45085 0.288564 2.56349 0.175922C2.67613 0.0632811 2.8289 0 2.9882 0H13.3992C13.5585 0 13.7113 0.0632811 13.824 0.175922C13.9366 0.288564 13.9999 0.441338 13.9999 0.600637Z" fill="#AFFF40"/>
</svg>
