<?xml version="1.0" encoding="UTF-8"?>
<svg id="Layer_2" data-name="Layer 2" xmlns="http://www.w3.org/2000/svg" viewBox="0 0 146.6 79.14">
  <g id="Layer_1-2" data-name="Layer 1">
    <g>
      <path d="M15.79,68.06h-5.19l2.62-7.41,2.57,7.41ZM10.32,52.73L0,78.47h6.96l1.76-4.93h8.88l1.86,4.93h7.09l-10.21-25.74h-6.02Z" fill="#fbfafc"/>
      <polygon points="59.1 68.07 69.06 68.07 69.06 62.59 59.1 62.59 59.1 58.46 69.64 58.46 69.64 52.73 52.91 52.73 52.91 78.47 70.25 78.47 70.25 72.67 59.1 72.67 59.1 68.07" fill="#fbfafc"/>
      <polygon points="89.77 68.5 80.51 52.73 73.44 52.73 73.44 78.47 79.66 78.47 79.53 62.66 88.83 78.47 95.86 78.47 95.86 52.73 89.64 52.73 89.77 68.5" fill="#fbfafc"/>
      <polygon points="139.1 52.73 134.15 61.72 129.2 52.73 121.47 52.73 130.74 67.61 130.74 78.47 137.12 78.47 137.12 67.61 146.6 52.73 139.1 52.73" fill="#fbfafc"/>
      <polygon points="8.28 1.17 2.17 1.17 2.17 11.09 8.04 11.09 8.04 48.16 19.4 48.16 19.4 1.18 8.28 1.18 8.28 1.17" fill="#fbfafc"/>
      <path d="M15.79,68.06h-5.19l2.62-7.41,2.57,7.41ZM10.32,52.73L0,78.47h6.96l1.76-4.93h8.88l1.86,4.93h7.09l-10.21-25.74h-6.02Z" fill="#fbfafc"/>
      <path d="M38.46,68.53h4.58v4.06c-.45.19-.93.33-1.45.42-.59.1-1.23.16-1.88.16-1.13,0-2.15-.19-3.03-.56-.87-.37-1.61-.9-2.2-1.56-.59-.66-1.04-1.47-1.34-2.39-.31-.93-.46-1.97-.46-3.09s.17-2.11.51-3.03c.33-.91.81-1.72,1.41-2.38.6-.66,1.32-1.19,2.14-1.56.82-.37,1.72-.56,2.7-.56,1.13,0,2.15.21,3.03.63.88.42,1.6.96,2.14,1.61l.22.27,4.07-4.85-.21-.21c-1.04-1.04-2.41-1.88-4.07-2.5-1.65-.61-3.46-.92-5.39-.92s-3.61.32-5.22.94c-1.61.63-3.04,1.54-4.23,2.71-1.2,1.17-2.15,2.61-2.83,4.27-.68,1.66-1.02,3.54-1.02,5.59s.34,3.88,1.01,5.53c.67,1.65,1.61,3.09,2.8,4.27,1.19,1.18,2.62,2.11,4.27,2.76,1.64.65,3.46.98,5.41.98s3.62-.21,5.21-.61c1.59-.4,2.99-.94,4.19-1.59l.16-.09v-13.8h-10.49v5.51Z" fill="#fbfafc"/>
      <polygon points="59.1 68.07 69.06 68.07 69.06 62.59 59.1 62.59 59.1 58.46 69.64 58.46 69.64 52.73 52.91 52.73 52.91 78.47 70.25 78.47 70.25 72.67 59.1 72.67 59.1 68.07" fill="#fbfafc"/>
      <polygon points="89.77 68.5 80.51 52.73 73.44 52.73 73.44 78.47 79.66 78.47 79.53 62.66 88.83 78.47 95.86 78.47 95.86 52.73 89.64 52.73 89.77 68.5" fill="#fbfafc"/>
      <path d="M116.67,70.53c-.49.71-1.15,1.3-1.97,1.75-.81.45-1.78.67-2.88.67-.95,0-1.83-.18-2.63-.54-.79-.36-1.49-.86-2.05-1.5-.57-.64-1.02-1.42-1.35-2.33-.32-.91-.49-1.92-.49-3.01s.17-2.06.49-2.96c.32-.89.78-1.68,1.36-2.33.58-.65,1.28-1.17,2.09-1.54.81-.37,1.71-.56,2.68-.56.88,0,1.76.18,2.6.54.83.35,1.5.9,2.01,1.63l.2.29,4.37-4.58-.18-.22c-1.04-1.24-2.43-2.19-4.1-2.84-1.66-.64-3.38-.96-5.1-.96-1.86,0-3.61.32-5.22.94-1.61.63-3.04,1.54-4.24,2.71-1.2,1.17-2.15,2.61-2.83,4.27-.68,1.66-1.02,3.54-1.02,5.59s.34,3.85,1.01,5.51c.67,1.66,1.6,3.11,2.78,4.31,1.18,1.2,2.58,2.13,4.18,2.78,1.6.65,3.36.98,5.24.98,2.07,0,3.92-.38,5.51-1.15,1.59-.76,2.95-1.81,4.03-3.11l.19-.22-4.49-4.42-.2.29Z" fill="#fbfafc"/>
      <polygon points="139.1 52.73 134.15 61.72 129.2 52.73 121.47 52.73 130.74 67.61 130.74 78.47 137.12 78.47 137.12 67.61 146.6 52.73 139.1 52.73" fill="#fbfafc"/>
      <path d="M142.86,43.75h-12.01v-17.07l-11.02,11.53c-3.46,3.62-8.16,5.66-13.05,5.66h-5.3v-12.57h.33c4.89,0,9.59-2.03,13.05-5.66l7.5-7.85h-16.78V5.23h37.28v38.52ZM101.83,1.3v20.42h11.47c-3.46,3.62-8.16,5.66-13.05,5.66h-2.53v20.41h10.61c4.89,0,9.59-2.03,13.05-5.65l5.71-5.98v11.52h19.51V1.3h-44.78Z" fill="#99fa00"/>
      <path d="M37.9,10.76c.55-.35,1.18-.59,1.87-.71.71-.13,1.42-.19,2.11-.19,1.32,0,2.72.35,4.16,1.05,1.43.7,2.6,1.64,3.49,2.82l.21.29,7.27-8.03-.23-.22c-1.98-1.9-4.32-3.35-6.95-4.32-2.63-.97-5.24-1.46-7.76-1.46-2.1,0-4.21.28-6.27.83-2.07.55-3.95,1.44-5.6,2.63-1.66,1.2-3.01,2.75-4.03,4.62-1.02,1.87-1.54,4.15-1.54,6.77,0,2.13.34,3.97,1,5.47.66,1.49,1.55,2.78,2.63,3.83,1.08,1.04,2.33,1.91,3.71,2.58,1.36.66,2.77,1.24,4.2,1.72,1.47.48,2.78.93,3.9,1.34,1.12.41,2.07.86,2.82,1.34.73.48,1.3,1.01,1.7,1.58.38.56.57,1.24.57,2.04,0,.86-.16,1.6-.46,2.21-.31.61-.73,1.1-1.25,1.46-.53.37-1.16.64-1.87.81-.72.17-1.48.25-2.25.25-1.7,0-3.43-.46-5.15-1.37-1.73-.91-3.14-2.07-4.19-3.42l-.21-.27-7.45,7.93.2.22c1.98,2.16,4.5,3.85,7.49,5.02,2.98,1.16,6.11,1.75,9.3,1.75,2.19,0,4.34-.31,6.4-.93,2.07-.62,3.94-1.58,5.54-2.87,1.61-1.29,2.92-2.94,3.87-4.92.96-1.98,1.44-4.35,1.44-7.05,0-2.36-.46-4.36-1.36-5.95-.89-1.58-2.03-2.92-3.39-3.99-1.35-1.06-2.87-1.92-4.52-2.56-1.65-.64-3.23-1.23-4.71-1.74-1.03-.34-1.97-.68-2.8-1.01-.81-.32-1.52-.67-2.11-1.05-.56-.37-.99-.79-1.28-1.27-.28-.47-.42-1.08-.42-1.8,0-.85.18-1.55.54-2.08.37-.55.83-1.01,1.38-1.35" fill="#fbfafc"/>
      <path d="M81.54,20.01c-.7.42-1.5.71-2.38.88-.9.17-1.85.26-2.82.26h-4.2v-10.3h4.39c.94,0,1.86.07,2.74.19.86.12,1.63.38,2.31.75.66.36,1.19.88,1.57,1.52.39.65.58,1.49.58,2.52s-.2,1.89-.58,2.55c-.39.67-.93,1.22-1.61,1.62M93.65,8.91c-.92-1.85-2.19-3.36-3.79-4.5-1.59-1.13-3.47-1.96-5.61-2.47-2.12-.5-4.43-.76-6.85-.76h-16.57v46.98h11.3v-17.48h5.02c2.31,0,4.56-.27,6.7-.79,2.15-.53,4.08-1.38,5.73-2.53,1.66-1.16,3-2.7,3.98-4.6s1.48-4.25,1.48-6.99-.46-5.01-1.38-6.86" fill="#fbfafc"/>
      <polygon points="8.28 1.17 2.17 1.17 2.17 11.09 8.04 11.09 8.04 48.16 19.4 48.16 19.4 1.18 8.28 1.18 8.28 1.17" fill="#fbfafc"/>
    </g>
  </g>
</svg>